{"glyphs":{"0":{"ha":600,"x_min":38,"x_max":646,"o":"m 162 671 l 162 671 q 210 728 177 700 q 284 775 243 756 l 284 775 q 454 785 379 819 l 454 785 q 498 761 494 767 q 500 748 501 755 q 500 727 499 741 l 500 727 q 628 676 589 762 l 628 676 q 646 466 662 599 l 646 466 q 579 239 629 333 l 579 239 q 462 42 542 134 l 462 42 q 405 -14 431 5 q 367 -32 378 -34 l 367 -32 q 331 -40 347 -36 l 331 -40 q 293 -46 309 -46 l 293 -46 q 290 -49 291 -48 q 287 -52 288 -50 l 287 -52 l 257 -61 q 231 -83 255 -77 q 177 -86 207 -90 q 115 -68 146 -82 q 69 -30 84 -55 l 69 -30 q 38 56 45 24 l 38 56 q 42 328 18 162 l 42 328 q 106 554 60 450 l 106 554 q 162 671 129 608 z m 370 593 l 349 558 q 250 240 275 410 l 250 240 q 247 130 242 181 l 247 130 l 249 130 l 250 131 q 410 478 356 291 l 410 478 q 427 581 428 543 q 413 630 425 619 l 413 630 q 409 626 409 626 q 407 628 408 626 l 407 628 q 396 632 403 633 l 396 632 q 370 593 382 613 l 370 593 z"},"1":{"ha":400,"x_min":9,"x_max":437,"o":"m 40 542 q 45 579 35 561 q 81 616 55 597 q 127 637 106 634 l 127 637 l 128 638 q 138 643 133 640 q 147 649 142 646 l 147 649 q 223 729 189 685 l 223 729 q 224 731 224 730 q 226 734 224 732 l 226 734 q 276 782 240 766 q 345 796 312 797 q 405 776 378 794 q 437 723 431 758 l 437 723 q 410 655 433 695 l 410 655 q 426 625 416 642 q 430 589 436 607 l 430 589 q 378 483 404 536 q 334 390 351 430 q 304 318 317 350 q 276 252 290 285 l 276 252 q 207 57 228 132 q 162 -66 185 -19 l 162 -66 l 162 -69 l 161 -69 q 127 -102 152 -92 q 74 -110 101 -113 q 27 -93 47 -108 q 10 -50 7 -78 q 18 3 12 -23 q 35 96 23 28 l 35 96 q 127 482 59 233 l 127 482 q 72 504 98 486 q 40 542 45 522 z"},"2":{"ha":545,"x_min":-16,"x_max":619,"o":"m 320 542 l 320 542 q 236 478 309 499 l 236 478 q 118 482 170 460 l 118 482 q 84 514 94 493 q 86 568 73 535 l 86 568 q 194 720 133 658 l 194 720 q 236 755 215 742 l 236 755 q 308 792 264 777 q 398 807 351 806 l 398 807 q 569 747 507 809 l 569 747 q 619 620 626 698 l 619 620 q 473 352 610 521 l 473 352 q 343 217 416 282 q 203 88 269 151 l 203 88 q 181 116 175 104 q 213 134 187 127 q 278 144 239 141 q 355 144 317 146 l 355 144 q 461 118 446 139 l 461 118 q 478 88 474 110 q 475 40 481 66 l 475 40 q 423 -49 461 -19 l 423 -49 q 284 -89 397 -75 l 284 -89 q 84 -92 171 -103 l 84 -92 q 17 -73 42 -86 q -1 -41 -8 -60 q -1 -13 6 -23 q -16 8 -8 -3 l -16 8 q -14 76 -35 37 l -14 76 q 41 154 17 128 q 91 210 65 180 q 150 275 116 240 q 216 344 183 310 l 216 344 q 342 493 290 422 l 342 493 q 379 558 366 528 q 390 625 392 588 l 390 625 q 368 604 378 612 q 350 586 358 595 l 350 586 q 320 542 329 566 z"},"3":{"ha":597,"x_min":-2,"x_max":617,"o":"m 190 282 l 190 282 q 156 332 151 294 l 156 332 q 203 407 162 370 l 203 407 q 250 452 220 426 q 308 506 279 478 l 308 506 q 394 617 383 577 l 394 617 q 318 595 349 605 q 265 580 287 584 q 228 578 243 575 q 202 592 212 581 q 186 619 191 603 q 181 652 181 635 l 181 652 q 218 702 181 693 l 218 702 q 234 711 228 704 q 244 726 239 718 l 244 726 q 280 753 259 749 l 280 753 q 337 774 305 762 q 402 795 368 786 l 402 795 q 580 759 514 825 l 580 759 q 617 630 627 712 l 617 630 q 588 535 612 588 l 588 535 q 541 478 566 500 q 496 441 516 456 q 450 407 475 426 l 450 407 q 530 368 503 401 q 562 286 557 334 l 562 286 q 503 72 571 188 l 503 72 q 172 -79 426 -56 l 172 -79 q 55 -64 102 -84 q 0 -8 8 -44 l 0 -8 q -1 42 -9 16 q 23 86 6 67 q 61 114 39 105 q 104 111 83 122 l 104 111 q 181 107 161 104 l 181 107 q 277 140 216 111 l 277 140 q 319 171 297 150 q 354 213 341 191 q 363 250 366 234 q 336 267 360 266 q 275 268 312 268 q 190 282 238 268 z"},"4":{"ha":588,"x_min":-19,"x_max":589,"o":"m 554 283 l 554 283 q 500 270 550 272 l 500 270 l 501 270 q 492 264 517 270 l 492 264 q 455 259 470 259 l 455 259 q 412 103 421 134 q 398 51 403 72 q 382 9 392 29 l 382 9 l 372 -12 q 373 -20 372 -17 l 373 -20 q 338 -83 362 -61 q 284 -110 313 -106 q 227 -99 255 -114 q 179 -50 198 -84 l 179 -50 l 186 -2 q 170 6 179 4 q 152 10 160 8 l 152 10 q 131 32 131 15 l 131 32 q 150 112 142 73 q 180 183 158 150 l 180 183 l 192 216 l 127 211 q 54 219 75 207 q 16 251 33 230 q -11 290 -2 271 q -18 330 -21 309 l -18 330 q 36 432 -14 368 q 121 540 85 496 q 195 623 157 584 l 195 623 q 377 783 272 702 l 377 783 q 466 811 411 811 l 466 811 q 527 800 509 809 l 527 800 q 571 749 562 784 l 571 749 l 571 741 q 588 680 602 717 l 588 680 q 559 622 580 654 q 534 576 538 590 l 534 576 l 513 496 q 505 462 508 477 q 498 431 501 446 q 490 400 494 415 q 482 365 486 384 l 482 365 l 500 366 q 518 366 509 366 l 518 366 q 533 373 525 369 q 549 378 541 376 l 549 378 q 577 369 568 381 q 587 342 586 357 q 584 313 588 326 q 572 292 580 300 q 554 283 563 283 z m 285 492 l 285 492 q 144 352 161 374 q 128 325 126 330 q 143 321 129 319 q 178 330 156 323 q 227 344 200 337 l 227 344 q 248 398 231 357 l 248 398 q 285 492 282 479 z m 365 -34 l 365 -34 q 367 -25 366 -29 l 367 -25 q 365 -34 360 -43 z"},"5":{"ha":603,"x_min":-19,"x_max":609,"o":"m 266 756 q 335 761 301 757 q 406 768 369 764 q 479 774 443 771 q 544 776 515 777 l 544 776 q 609 754 609 775 l 609 754 q 574 634 634 675 l 574 634 q 495 610 550 618 q 418 604 440 602 l 418 604 q 369 608 387 608 l 369 608 q 330 548 356 586 q 279 471 304 509 l 279 471 l 260 428 q 354 462 278 454 l 354 462 q 475 451 428 470 l 475 451 q 578 319 569 408 l 578 319 q 549 167 583 262 l 549 167 q 462 37 523 95 l 462 37 q 344 -41 409 -14 l 344 -41 q 60 -49 215 -96 l 60 -49 q 13 -22 31 -41 q -14 18 -6 -4 q -19 63 -22 40 q 0 101 -16 85 l 0 101 q 112 122 36 139 l 112 122 q 212 117 183 107 q 261 145 241 126 q 293 185 281 164 q 309 217 304 205 q 316 240 314 228 l 316 240 q 303 280 321 272 l 303 280 q 266 280 292 284 q 208 271 240 276 q 143 262 176 266 q 86 262 110 258 l 86 262 q 53 328 32 271 l 53 328 q 54 327 52 331 q 56 326 56 323 l 56 326 q 29 382 29 343 l 29 382 q 69 473 45 428 q 109 548 92 517 q 135 596 125 578 q 153 632 144 613 l 153 632 q 149 634 148 630 q 153 643 149 637 q 161 657 156 649 q 168 670 165 664 l 168 670 q 198 737 155 713 l 198 737 q 266 756 230 755 z m 161 644 q 170 658 166 652 q 169 662 173 664 q 163 655 164 660 q 161 644 162 649 l 161 644 z m 496 754 l 496 754 q 521 755 519 752 q 496 754 523 758 z m 240 298 l 238 298 q 240 298 234 299 l 240 298 z"},"6":{"ha":582,"x_min":9,"x_max":583,"o":"m 441 788 l 441 788 q 516 785 476 800 l 516 785 q 545 748 555 771 l 545 748 q 545 730 540 737 q 558 717 550 723 q 574 705 566 710 q 582 692 581 699 l 582 692 q 541 649 586 674 l 541 649 q 499 631 522 643 q 450 605 476 618 q 394 566 424 592 q 336 508 363 539 l 336 508 q 246 371 287 449 l 246 371 q 310 410 273 396 q 378 422 346 423 q 440 403 410 420 q 490 358 469 386 l 490 358 q 527 216 539 294 q 488 83 515 138 q 420 -7 460 28 l 420 -7 q 215 -73 343 -73 l 215 -73 q 25 26 75 -65 l 25 26 q 9 260 -22 112 l 9 260 q 153 581 55 455 l 153 581 q 441 788 260 719 z m 320 266 l 320 266 q 224 153 251 232 l 224 153 q 213 106 215 129 l 213 106 q 221 97 217 99 l 221 97 q 283 118 252 75 l 283 118 q 319 196 311 158 q 327 249 327 233 q 320 266 327 265 z"},"7":{"ha":548,"x_min":3,"x_max":652,"o":"m 322 553 l 342 579 q 237 582 289 582 q 156 584 185 582 l 156 584 q 102 590 124 585 q 73 619 79 595 q 77 669 67 642 q 112 717 87 695 q 181 742 136 739 q 268 751 226 745 q 345 762 310 756 q 409 773 379 767 q 462 782 438 778 q 508 789 486 785 q 547 790 529 792 l 547 790 q 599 743 588 785 l 599 743 l 593 719 q 652 670 638 703 l 652 670 q 632 589 668 632 l 632 589 q 437 314 551 501 l 437 314 q 342 159 390 238 q 262 36 293 79 l 262 36 q 199 -47 226 -15 l 199 -47 q 196 -49 198 -47 l 196 -49 q 193 -55 196 -51 q 186 -63 189 -59 q 183 -66 183 -68 l 183 -66 q 130 -92 159 -89 q 66 -91 101 -96 l 66 -91 q 19 -64 35 -84 q 4 -29 3 -45 q 12 0 4 -14 q 32 27 20 13 q 54 56 44 40 l 54 56 q 144 221 112 152 q 202 346 176 290 l 202 346 q 322 553 267 484 l 322 553 z"},"8":{"ha":658,"x_min":7,"x_max":665,"o":"m 439 809 l 439 809 q 502 804 483 809 l 502 804 q 564 746 545 791 l 564 746 q 654 698 623 757 l 654 698 q 665 571 684 640 l 665 571 q 548 392 640 470 l 548 392 q 489 348 520 369 l 489 348 q 548 266 526 322 l 548 266 q 562 161 566 217 q 530 60 557 105 q 465 -16 502 14 q 387 -64 427 -47 q 309 -85 347 -81 q 221 -91 271 -89 q 127 -81 171 -94 q 51 -35 83 -69 q 7 66 18 -2 l 7 66 q 40 236 -4 163 l 40 236 q 148 340 73 292 l 148 340 l 212 377 q 149 474 163 435 q 134 543 135 512 q 147 613 133 574 q 190 690 160 652 q 260 754 220 727 l 260 754 q 439 809 346 813 z m 304 115 q 337 120 322 113 q 356 152 351 127 q 350 200 361 177 q 318 250 338 222 l 318 250 l 294 241 q 271 227 271 230 l 271 227 q 252 208 271 221 q 231 179 233 195 q 239 150 229 163 q 267 127 249 136 q 304 115 285 117 z m 452 604 l 445 609 q 428 623 440 623 q 403 614 416 623 q 376 587 389 604 q 356 548 363 570 l 356 548 q 364 458 338 499 l 364 458 l 367 453 q 388 471 377 463 q 412 490 399 479 l 412 490 q 467 558 441 518 l 467 558 q 463 582 473 565 q 452 604 453 599 l 452 604 z"},"9":{"ha":603,"x_min":30,"x_max":627,"o":"m 339 -30 l 339 -30 q 254 -82 312 -69 l 254 -82 q 162 -70 196 -94 l 162 -70 q 146 19 122 -44 l 146 19 q 177 75 163 49 q 206 125 191 100 l 206 125 q 283 238 242 182 l 283 238 q 106 262 176 211 l 106 262 q 30 410 34 314 l 30 410 q 49 514 28 458 q 106 621 70 569 q 189 711 142 673 l 189 711 q 405 783 292 794 l 405 783 q 530 765 497 776 l 530 765 q 591 684 608 741 l 591 684 q 592 657 585 665 q 608 642 598 649 q 624 621 617 634 q 627 576 631 607 l 627 576 q 444 102 593 324 l 444 102 q 339 -30 396 30 z m 416 588 l 416 588 q 387 608 416 605 l 387 608 q 318 574 351 607 l 318 574 q 275 498 284 538 l 275 498 q 293 446 265 453 l 293 446 q 354 462 323 437 l 354 462 q 405 550 390 491 l 405 550 q 412 572 408 562 q 416 588 416 581 z"}," ":{"ha":312,"x_min":0,"x_max":0,"o":""},"!":{"ha":370,"x_min":-3,"x_max":487,"o":"m 470 721 l 470 721 q 479 705 474 709 q 486 698 484 700 l 486 698 q 481 680 491 693 l 481 680 q 456 638 472 662 l 456 638 q 419 575 427 595 l 419 575 q 355 425 378 493 q 316 301 332 356 q 285 204 300 246 l 285 204 q 243 131 267 155 l 243 131 q 200 104 231 111 q 137 102 169 97 q 83 122 105 106 q 66 164 60 138 l 66 164 q 100 322 77 258 q 139 428 122 386 q 167 504 155 470 q 190 562 179 537 q 214 614 200 586 q 245 670 228 641 q 278 722 261 698 l 278 722 q 344 788 317 777 q 399 800 371 798 q 447 794 426 802 q 475 768 467 786 q 470 721 483 750 z m 231 -33 l 231 -33 q 186 -94 220 -74 q 112 -116 151 -115 q 40 -101 73 -118 q -2 -50 6 -85 q 9 9 -11 -16 q 55 41 28 33 q 119 51 82 48 q 185 47 155 54 q 231 21 215 40 q 231 -33 247 2 z"},"\"":{"ha":458,"x_min":141,"x_max":572,"o":"m 394 555 q 389 622 394 588 q 382 698 383 656 q 397 765 381 739 q 437 802 413 790 q 487 812 460 813 q 535 796 513 810 q 568 754 556 781 q 572 688 579 727 l 572 688 q 526 562 574 631 l 526 562 q 503 527 513 544 q 474 500 492 509 q 438 492 456 490 q 407 508 420 493 q 394 555 394 522 z m 166 533 l 166 533 q 142 634 141 586 q 158 719 142 682 q 200 777 173 755 q 255 800 226 799 q 309 778 283 801 q 348 701 334 754 l 348 701 l 337 675 q 338 672 338 673 q 339 669 338 670 l 339 669 q 323 616 326 643 q 309 563 320 589 l 309 563 l 272 507 q 245 481 262 490 q 210 474 227 472 q 179 489 192 475 q 166 533 166 503 z"},"#":{"ha":833,"x_min":-2,"x_max":870,"o":"m 814 366 l 814 366 q 738 373 772 362 l 738 373 l 737 372 l 752 369 l 618 378 q 602 349 612 363 q 587 319 592 334 l 587 319 q 643 316 624 319 q 671 313 661 312 q 690 314 681 313 l 690 314 q 727 304 711 316 l 727 304 q 735 283 734 298 q 739 262 735 268 l 739 262 q 766 222 761 244 q 762 180 771 199 q 731 149 753 161 q 674 140 709 137 q 598 140 639 142 q 520 141 557 138 l 520 141 l 493 45 q 430 22 471 16 l 430 22 q 402 37 414 25 q 388 71 389 49 l 388 71 l 387 71 q 388 75 387 73 l 388 75 q 387 102 387 89 l 387 102 l 387 128 q 374 129 380 129 l 374 129 l 360 129 l 267 126 q 265 127 265 126 q 265 127 264 127 l 265 127 l 235 126 q 210 72 224 100 q 189 6 195 44 l 189 6 q 128 -20 166 -22 l 128 -20 q 99 -9 111 -20 q 84 22 86 1 l 84 22 l 83 22 q 84 25 83 24 l 84 25 l 84 27 q 97 117 89 56 l 97 117 q 74 111 78 113 l 74 111 q 49 107 66 107 q 20 114 32 106 q 4 135 8 122 l 4 135 q 36 200 -6 166 l 36 200 q 67 220 56 216 q 88 225 77 223 q 116 231 98 227 l 116 231 q 126 298 121 263 q 137 366 131 332 l 137 366 q 12 378 55 355 l 12 378 q -2 409 -7 395 q 22 440 3 423 l 22 440 q 162 494 79 472 l 162 494 l 172 535 q 210 677 194 639 q 253 738 225 715 q 312 770 281 761 q 373 774 343 779 q 424 752 403 769 l 424 752 q 450 637 473 714 l 450 637 l 411 557 l 483 578 q 490 597 486 588 q 496 614 493 605 l 496 614 q 506 663 505 640 l 506 663 q 542 732 515 705 q 603 772 569 758 q 670 789 636 786 q 723 787 704 791 q 754 774 742 782 q 771 754 765 766 l 771 754 q 763 697 785 728 l 763 697 q 734 609 759 664 l 734 609 l 759 606 q 796 596 781 600 q 824 580 810 592 q 845 564 837 568 q 857 553 853 559 l 857 553 q 851 512 865 541 l 851 512 q 870 420 882 462 q 814 366 857 377 z m 331 385 l 288 270 q 412 297 351 287 l 412 297 q 425 344 417 318 q 439 391 433 370 l 439 391 l 331 385 z m 754 369 l 754 369 q 767 368 761 369 q 775 366 772 366 q 775 365 777 365 l 775 365 q 754 369 766 365 z"},"$":{"ha":591,"x_min":-14,"x_max":686,"o":"m 358 861 l 358 861 q 450 916 383 900 l 450 916 q 565 916 520 932 l 565 916 q 599 890 588 907 q 600 845 610 872 l 600 845 q 589 828 593 838 q 578 805 584 817 l 578 805 q 547 757 563 772 l 547 757 q 621 734 596 751 q 667 702 646 717 l 667 702 q 686 676 686 684 q 675 659 685 667 q 650 640 664 651 q 627 605 635 628 l 627 605 q 627 557 633 573 l 627 557 q 564 512 614 521 l 564 512 q 482 506 531 507 q 410 504 432 505 q 371 496 387 502 l 371 496 q 341 449 335 484 l 341 449 q 361 424 343 437 q 402 395 378 411 q 452 360 426 379 q 498 316 478 341 l 498 316 q 528 193 544 260 l 528 193 q 414 35 505 101 l 414 35 q 337 -5 381 11 l 337 -5 q 331 -13 334 -10 q 325 -22 327 -17 l 325 -22 l 317 -34 q 298 -71 307 -52 q 276 -109 289 -90 l 276 -109 q 274 -109 274 -110 l 274 -109 q 253 -156 270 -135 q 213 -188 235 -178 q 168 -193 191 -198 q 130 -162 145 -188 l 130 -162 l 129 -162 l 129 -28 q 6 45 43 -17 l 6 45 q -14 103 -11 72 q -6 159 -17 133 l -6 159 q 40 190 11 183 q 100 196 68 196 q 164 195 132 196 q 220 202 196 194 l 220 202 q 307 229 295 220 q 314 241 319 237 q 298 249 309 245 q 273 258 287 253 q 247 271 259 263 l 247 271 q 103 428 138 324 l 103 428 q 95 513 90 467 q 115 592 99 558 q 152 650 130 625 l 152 650 q 298 742 199 707 l 298 742 q 342 755 321 750 l 342 755 q 344 800 344 787 q 345 820 344 813 q 348 833 345 826 q 358 861 351 840 z"},"%":{"ha":976,"x_min":92,"x_max":937,"o":"m 282 -15 l 261 -33 l 246 -53 q 168 -83 210 -81 l 168 -83 q 109 -55 124 -85 l 109 -55 q 92 12 71 -46 l 92 12 q 161 116 111 64 l 161 116 q 187 145 178 130 l 187 145 q 255 221 206 175 l 255 221 l 480 448 q 586 597 544 544 q 644 674 627 650 q 681 718 661 697 l 681 718 q 677 731 683 724 l 677 731 q 667 752 665 746 l 667 752 q 764 828 690 807 l 764 828 q 887 826 832 848 l 887 826 q 937 743 946 801 l 937 743 q 738 481 889 626 l 738 481 q 660 403 698 442 l 660 403 l 550 291 q 527 264 539 277 q 482 212 515 251 l 482 212 q 282 -15 354 58 l 282 -15 z m 453 104 q 453 141 448 122 q 463 182 457 160 l 463 182 q 523 266 473 219 l 523 266 q 540 314 520 290 q 599 354 560 337 l 599 354 q 635 387 610 373 q 692 402 659 400 l 692 402 q 852 341 767 405 l 852 341 q 907 181 930 280 l 907 181 q 873 100 897 138 q 825 44 848 62 q 783 17 802 25 q 742 2 763 8 l 742 2 q 682 -12 713 -7 q 646 -17 651 -17 q 637 -16 641 -17 q 628 -15 632 -16 q 604 -11 623 -14 q 559 0 584 -8 q 514 20 534 7 l 514 20 q 453 104 469 48 l 453 104 z m 136 545 l 136 545 q 324 697 167 680 l 324 697 l 325 698 q 478 706 412 735 l 478 706 q 533 636 540 680 l 533 636 q 566 548 565 600 l 566 548 q 494 440 568 502 l 494 440 q 454 408 474 424 q 411 368 433 392 q 346 332 388 343 q 262 329 303 321 q 187 364 220 337 q 140 444 153 390 q 136 545 126 498 z m 776 211 l 746 201 l 710 197 q 701 191 705 193 q 691 184 696 188 q 670 168 686 180 q 640 140 653 155 l 640 140 q 642 79 608 101 l 642 79 q 722 104 676 56 l 722 104 q 770 183 759 144 l 770 183 q 774 197 772 190 q 776 211 776 204 l 776 211 z m 399 530 l 399 530 l 349 515 q 285 472 325 486 l 285 472 q 284 457 284 464 q 289 444 284 450 l 289 444 q 389 493 358 444 l 389 493 q 399 530 399 509 z m 761 165 l 761 165 l 772 172 q 784 178 776 174 l 784 178 q 774 173 779 175 q 761 165 768 170 z m 791 555 l 794 559 l 791 555 z"},"&":{"ha":712,"x_min":27,"x_max":710,"o":"m 633 -3 l 633 -3 q 676 2 665 7 q 683 -17 687 -4 q 663 -48 679 -30 q 624 -81 647 -66 l 624 -81 q 527 -109 569 -118 l 527 -109 q 478 -74 500 -104 l 478 -74 q 462 -50 470 -62 q 445 -30 454 -38 l 445 -30 q 271 -103 364 -88 l 271 -103 q 197 -101 241 -108 q 110 -75 153 -95 q 42 -23 66 -56 l 42 -23 q 27 176 -6 43 l 27 176 q 175 360 63 269 l 175 360 q 239 411 222 399 l 239 411 q 268 635 219 533 l 268 635 q 382 764 310 723 l 382 764 q 504 800 431 797 l 504 800 q 668 712 638 806 l 668 712 q 646 571 686 652 l 646 571 q 543 440 614 509 l 543 440 q 463 376 508 407 l 463 376 q 479 302 465 338 q 503 245 493 266 q 520 202 512 223 l 520 202 q 527 211 523 204 q 536 224 531 217 q 546 238 541 231 q 554 248 551 245 q 563 254 557 250 q 576 262 568 258 l 576 262 q 610 262 596 270 l 610 262 q 619 266 611 263 q 626 270 626 268 l 626 270 q 642 283 628 279 q 670 286 655 287 l 670 286 q 710 262 710 283 l 710 262 q 691 212 712 244 l 691 212 q 603 58 655 120 l 603 58 q 601 56 602 56 q 599 54 600 55 l 599 54 q 619 25 613 36 q 633 -3 624 13 z m 285 218 l 285 218 q 245 163 256 185 q 252 115 234 140 l 252 115 q 285 94 266 96 q 319 92 304 91 q 352 94 334 93 l 352 94 q 340 113 347 104 q 324 134 333 121 l 324 134 q 285 218 302 168 z m 510 638 l 509 638 q 473 644 503 662 l 473 644 q 424 592 446 629 l 424 592 q 414 527 401 554 l 414 527 q 434 544 426 536 q 455 558 442 551 q 480 573 468 564 l 480 573 q 510 638 507 593 l 510 638 z m 425 534 l 463 537 l 425 534 z m 420 529 l 423 532 l 420 529 z"},"'":{"ha":250,"x_min":172,"x_max":362,"o":"m 184 517 q 179 584 184 550 q 172 660 173 618 q 187 727 171 702 q 227 764 203 752 q 277 774 250 775 q 325 758 303 772 q 358 716 346 743 q 362 650 369 689 l 362 650 q 316 524 364 593 l 316 524 q 293 489 303 506 q 264 462 282 471 q 228 454 246 452 q 197 470 210 455 q 184 517 184 484 z"},"(":{"ha":342,"x_min":-6,"x_max":531,"o":"m -6 206 l -6 206 q 93 583 16 426 l 93 583 q 238 766 155 708 l 238 766 q 300 794 272 790 q 343 785 328 798 l 343 785 q 438 836 375 834 l 438 836 q 487 829 464 837 q 522 807 510 820 q 531 776 534 793 q 500 742 527 759 l 500 742 q 274 511 352 637 l 274 511 q 161 158 181 363 l 161 158 q 174 -18 153 69 l 174 -18 q 191 -77 183 -52 q 198 -119 198 -102 q 187 -145 198 -136 q 146 -156 176 -154 l 146 -156 q 23 -28 65 -156 l 23 -28 q -6 206 -11 76 z"},")":{"ha":427,"x_min":-120,"x_max":405,"o":"m -83 -62 l -83 -62 q 141 278 72 52 l 141 278 q 183 696 199 468 l 183 696 q 197 776 181 743 q 237 825 212 808 q 291 844 261 842 q 346 831 320 845 q 388 785 371 816 q 405 705 405 753 l 405 705 q 404 655 407 682 q 401 582 401 627 q 385 461 400 537 q 342 308 369 384 l 342 308 q 208 33 285 142 l 208 33 q 97 -110 135 -72 q 30 -162 58 -149 q -20 -155 1 -175 l -20 -155 q -80 -171 -55 -177 q -116 -147 -106 -166 q -120 -103 -127 -128 q -83 -62 -113 -79 z"},"*":{"ha":558,"x_min":53,"x_max":741,"o":"m 576 691 l 576 691 q 741 658 699 697 l 741 658 q 726 596 773 629 l 726 596 q 632 560 687 570 l 632 560 q 441 502 477 521 l 441 502 q 619 321 543 410 l 619 321 q 606 286 632 291 l 606 286 q 553 292 583 282 l 553 292 q 534 301 542 294 q 508 316 525 307 l 508 316 q 416 376 488 327 l 416 376 q 406 326 407 348 q 404 291 405 304 l 404 291 q 399 269 399 280 q 387 244 398 257 q 356 221 376 230 q 312 212 335 212 q 267 218 289 211 q 226 238 244 225 l 226 238 q 191 311 187 269 l 191 311 q 213 383 197 348 l 213 383 l 218 399 l 169 387 q 104 399 128 387 q 74 424 80 411 q 83 452 68 436 l 83 452 q 137 491 106 474 q 200 523 168 507 l 200 523 q 185 528 194 525 q 163 535 175 531 q 138 543 151 539 q 114 552 125 547 l 114 552 q 64 584 76 564 q 53 622 51 604 q 68 650 55 640 q 95 651 81 660 l 95 651 q 159 704 110 697 l 159 704 q 249 686 200 710 l 249 686 q 281 662 273 672 q 297 645 289 652 l 297 645 q 302 635 299 639 q 306 625 304 630 l 306 625 q 425 828 349 723 l 425 828 q 459 853 438 847 q 497 854 479 859 q 523 831 514 848 q 523 793 532 814 q 508 757 514 771 q 496 728 501 742 l 496 728 q 477 667 483 692 l 477 667 q 528 683 498 678 q 576 691 558 687 z"},"+":{"ha":497,"x_min":-22,"x_max":545,"o":"m 156 452 l 156 452 q 208 611 193 550 l 208 611 q 206 644 203 626 l 206 644 q 265 694 228 675 q 344 710 302 712 l 344 710 q 403 706 384 715 l 403 706 q 428 659 439 689 l 428 659 q 439 646 430 655 q 448 632 448 637 l 448 632 q 413 562 435 595 q 376 508 390 528 q 356 476 362 488 l 356 476 q 346 454 348 462 l 346 454 q 450 466 410 459 l 450 466 q 498 462 473 468 q 536 445 522 456 q 545 419 549 434 q 507 388 541 404 l 507 388 q 472 382 494 387 q 426 370 450 376 q 379 358 401 364 q 346 350 356 352 l 346 350 q 307 329 322 344 l 307 329 q 252 183 278 208 l 252 183 q 222 167 239 171 q 184 153 204 163 q 137 145 164 143 q 92 160 110 146 q 66 199 73 174 q 71 258 59 224 l 71 258 q 81 288 75 273 q 91 317 86 303 l 91 317 q 70 332 72 326 l 70 332 q 55 351 60 339 l 55 351 q 13 372 33 362 q -22 392 -8 381 l -22 392 q -21 453 -60 430 l -21 453 q 8 466 -9 460 l 8 466 q 65 465 60 463 q 66 466 69 466 l 66 466 l 63 466 q 96 460 66 465 l 96 460 q 156 452 132 454 z m 343 454 l 344 454 q 346 460 346 459 l 346 460 q 345 459 345 460 q 343 454 345 458 l 343 454 z"},",":{"ha":288,"x_min":6,"x_max":264,"o":"m 230 72 q 236 65 233 68 q 241 57 239 61 l 241 57 l 259 39 q 262 15 258 27 q 264 -14 265 3 q 246 -54 262 -32 q 209 -94 230 -76 l 209 -94 q 116 -162 170 -144 l 116 -162 q 13 -145 57 -182 l 13 -145 q 6 -123 6 -131 q 13 -103 6 -116 l 13 -103 q 30 -73 18 -90 q 51 -41 41 -56 l 51 -41 l 46 -37 l 44 -39 q 41 -33 41 -40 l 41 -33 q 31 -24 38 -31 l 31 -24 l 30 -24 l 22 -17 l 20 -12 q 28 73 -8 40 l 28 73 q 141 106 67 110 l 141 106 q 196 93 159 105 l 196 93 q 210 81 203 86 q 221 72 216 76 l 221 72 l 225 75 l 230 72 z"},"-":{"ha":588,"x_min":52,"x_max":587,"o":"m 320 246 l 320 246 l 149 249 q 145 248 147 248 q 140 247 143 248 l 140 247 l 139 249 q 84 259 107 249 q 53 283 60 268 q 57 315 45 298 q 106 346 68 332 l 106 346 l 124 348 q 165 397 131 374 q 263 428 198 420 l 263 428 l 321 430 l 366 430 q 414 429 390 430 l 414 429 q 523 426 467 442 l 523 426 q 587 354 591 405 l 587 354 q 553 297 585 328 l 553 297 q 520 283 536 291 q 476 264 504 274 l 476 264 q 320 246 421 246 z"},".":{"ha":235,"x_min":1,"x_max":212,"o":"m 212 -38 q 177 -80 200 -62 q 130 -106 153 -99 q 98 -114 106 -114 q 57 -109 90 -114 l 57 -109 l 56 -109 q 53 -107 55 -109 l 53 -107 q 1 -42 1 -83 l 1 -42 q 38 30 1 -6 l 38 30 q 146 74 88 78 l 146 74 q 179 66 153 73 l 179 66 q 183 63 182 63 l 183 63 q 212 -38 240 19 l 212 -38 z"},"/":{"ha":567,"x_min":-43,"x_max":676,"o":"m 331 575 q 384 675 365 637 q 414 732 402 712 q 430 756 426 751 q 436 765 434 760 l 436 765 q 459 810 434 788 q 540 842 483 831 l 540 842 l 547 842 q 622 830 601 840 l 622 830 q 676 768 661 812 l 676 768 q 668 732 679 749 q 644 701 656 715 l 644 701 q 627 635 656 669 l 627 635 q 552 550 585 595 q 475 443 519 504 q 378 297 430 381 q 272 128 325 213 l 272 128 q 52 -192 138 -86 l 52 -192 q 3 -199 35 -213 l 3 -199 q -42 -150 -30 -185 l -42 -150 q -30 -65 -58 -109 l -30 -65 q 148 272 38 90 l 148 272 q 247 433 197 352 q 331 575 296 513 z"},":":{"ha":339,"x_min":37,"x_max":374,"o":"m 344 498 q 374 463 366 484 q 368 415 382 441 q 327 373 354 388 q 270 353 300 358 q 208 350 239 347 q 154 364 177 352 l 154 364 q 122 447 102 390 l 122 447 q 227 516 151 505 l 227 516 q 344 498 298 526 l 344 498 z m 287 197 l 288 194 q 220 100 280 135 l 220 100 q 107 78 164 67 l 107 78 q 61 100 80 83 q 37 148 41 117 l 37 148 l 40 124 q 54 180 35 155 q 103 223 73 205 q 169 249 133 240 q 233 255 204 257 q 279 238 262 252 q 287 197 295 224 l 287 197 z"},";":{"ha":339,"x_min":64,"x_max":374,"o":"m 344 508 q 374 473 366 494 q 368 425 382 451 q 327 383 354 398 q 270 363 300 368 q 208 360 239 357 q 154 374 177 362 l 154 374 q 122 457 102 400 l 122 457 q 227 526 151 515 l 227 526 q 344 508 298 536 l 344 508 z m 283 254 l 288 251 q 294 244 291 247 q 299 236 297 240 l 299 236 l 317 218 q 320 194 316 206 q 322 165 323 182 q 304 125 320 147 q 267 85 288 103 l 267 85 q 174 17 228 35 l 174 17 q 71 34 115 -3 l 71 34 q 64 56 64 48 q 71 76 64 63 l 71 76 q 88 106 76 89 q 109 138 99 123 l 109 138 l 104 142 l 102 140 q 99 146 99 139 l 99 146 q 89 155 96 148 l 89 155 l 88 155 l 80 162 l 78 167 q 86 252 50 219 l 86 252 q 199 284 125 289 l 199 284 q 254 272 217 284 l 254 272 q 268 260 261 265 q 279 251 274 255 l 279 251 l 283 254 z"},"<":{"ha":570,"x_min":-14,"x_max":651,"o":"m 484 601 l 484 601 q 506 605 497 603 q 524 608 515 607 l 524 608 q 595 598 565 613 q 640 568 625 582 l 640 568 q 651 498 673 534 l 651 498 q 640 456 655 477 q 596 417 625 434 l 596 417 q 436 351 518 378 q 271 292 353 323 l 271 292 q 293 264 268 280 q 356 228 318 248 q 438 184 394 208 q 515 133 481 160 l 515 133 q 504 80 523 104 l 504 80 q 459 57 486 59 l 459 57 q 403 69 440 63 q 319 83 365 75 q 221 104 272 91 q 124 138 170 117 l 124 138 q -14 260 18 184 l -14 260 q -10 273 -14 266 q -2 288 -6 280 l -2 288 q -6 324 6 308 l -6 324 q 74 408 -6 362 l 74 408 q 106 427 93 419 l 106 427 q 200 476 154 451 q 290 523 245 500 l 290 523 q 484 601 393 575 z"},"=":{"ha":567,"x_min":-13,"x_max":580,"o":"m 81 145 l 81 145 q 19 155 43 140 q -13 192 -6 170 q -8 236 -20 213 q 41 274 3 259 q 129 296 79 289 q 229 305 178 302 q 330 308 279 307 q 422 316 380 309 q 486 317 463 323 q 520 298 509 311 q 530 266 531 284 q 515 228 528 247 l 515 228 q 414 170 485 185 l 414 170 q 226 151 319 153 q 81 145 133 149 z m 473 541 l 473 541 q 557 513 531 535 q 580 466 583 490 q 543 421 576 441 q 451 401 510 401 l 451 401 q 416 403 439 403 l 416 403 q 454 404 423 403 l 454 404 q 446 405 463 404 l 446 405 q 406 404 417 407 l 406 404 l 394 402 q 158 355 354 339 l 158 355 q 89 391 111 365 l 89 391 q 92 443 68 417 l 92 443 q 142 481 98 467 l 142 481 q 192 495 165 490 q 260 509 219 500 q 358 528 301 517 q 473 541 415 539 z"},">":{"ha":745,"x_min":43,"x_max":752,"o":"m 437 296 l 485 309 l 444 335 q 343 396 395 367 q 243 459 290 424 l 243 459 q 237 545 201 503 l 237 545 q 293 606 249 574 l 293 606 q 317 617 305 611 q 349 629 329 622 q 394 636 369 635 q 440 632 418 637 l 440 632 q 514 591 476 622 l 514 591 q 545 569 522 585 q 596 529 567 552 q 656 480 625 506 q 711 428 687 454 l 711 428 q 752 342 766 368 l 752 342 q 742 327 750 337 q 731 313 733 317 l 731 313 q 726 244 739 282 l 726 244 q 704 215 715 224 q 673 193 693 205 l 673 193 q 546 164 625 176 q 406 137 467 152 q 282 106 344 122 l 282 106 q 55 64 122 67 l 55 64 q 50 78 53 70 q 43 94 46 86 l 43 94 q 44 125 35 115 q 59 144 52 134 q 76 165 65 153 q 115 192 87 177 q 178 221 143 207 q 252 246 213 234 q 326 268 290 258 q 391 284 361 277 q 437 296 420 291 l 437 296 z"},"?":{"ha":570,"x_min":55,"x_max":627,"o":"m 627 541 l 627 541 q 478 324 639 439 l 478 324 q 399 269 436 294 q 336 224 362 244 q 306 188 309 203 l 306 188 q 283 148 304 164 q 236 126 262 132 q 184 121 210 119 q 146 135 158 123 l 146 135 q 178 279 118 195 l 178 279 q 241 354 205 316 q 312 427 277 391 q 373 494 346 462 l 373 494 q 411 564 404 532 l 411 564 l 408 564 q 395 550 401 558 q 367 530 388 541 q 330 512 346 519 q 299 499 313 505 q 281 490 284 492 q 274 486 277 488 q 264 482 270 484 l 264 482 l 248 476 q 124 500 161 455 l 124 500 q 100 544 111 516 l 100 544 q 122 638 89 584 l 122 638 q 192 710 150 685 q 298 751 234 734 q 423 767 361 767 q 537 748 485 767 q 615 687 589 729 l 615 687 q 621 646 625 668 q 614 612 617 624 q 611 589 610 599 q 618 567 611 579 q 627 541 625 554 z m 245 -16 l 245 -16 q 190 -77 224 -58 q 125 -97 156 -97 q 72 -80 93 -98 q 55 -27 51 -62 l 55 -27 q 104 40 57 22 l 104 40 q 217 40 164 64 l 217 40 q 245 -16 266 18 z"},"@":{"ha":815,"x_min":4,"x_max":850,"o":"m 408 157 l 408 157 q 335 130 374 130 q 266 151 296 130 q 224 207 235 171 l 224 207 q 272 396 200 287 l 272 396 q 372 495 308 450 l 372 495 q 543 548 473 567 l 543 548 q 582 521 567 542 l 582 521 q 589 512 591 518 l 589 512 l 584 498 q 583 484 582 491 q 596 471 583 476 l 596 471 q 620 399 618 443 q 600 331 621 354 l 600 331 q 571 274 569 286 q 582 254 572 261 q 612 237 592 246 l 612 237 q 649 260 637 250 l 649 260 q 698 384 697 307 l 698 384 q 675 493 699 444 l 675 493 q 592 582 645 556 l 592 582 q 390 554 518 618 l 390 554 q 284 466 335 526 l 284 466 q 198 352 215 388 q 171 282 180 316 q 160 212 161 248 q 170 145 158 176 l 170 145 q 296 64 199 75 l 296 64 q 344 51 332 60 q 357 31 355 42 q 359 8 359 20 q 371 -15 359 -5 l 371 -15 q 381 -52 393 -34 q 337 -81 369 -70 q 257 -95 304 -93 q 163 -86 210 -97 l 163 -86 q 14 29 52 -60 l 14 29 q 4 210 -16 96 l 4 210 q 82 432 24 318 l 82 432 q 228 632 144 552 l 228 632 q 514 776 354 754 l 514 776 q 776 714 669 797 l 776 714 q 831 634 810 690 q 850 501 852 577 q 817 332 848 424 q 715 145 786 240 l 715 145 q 596 60 671 85 l 596 60 q 470 54 524 35 l 470 54 q 415 131 413 74 l 415 131 q 408 157 410 143 z m 315 222 l 315 222 q 368 261 344 236 q 404 302 391 286 q 431 332 417 317 l 431 332 q 416 340 426 338 l 416 340 q 344 304 377 342 l 344 304 q 315 222 313 267 z"},"A":{"ha":564,"x_min":-23,"x_max":596,"o":"m 553 678 l 553 678 q 596 625 587 660 l 596 625 q 560 403 576 513 q 529 218 544 292 q 509 106 514 143 q 496 32 503 69 l 496 32 l 490 11 q 486 -9 488 0 q 482 -30 484 -19 l 482 -30 q 406 -62 454 -62 l 406 -62 q 325 -36 355 -62 l 325 -36 q 319 23 307 -22 l 319 23 q 326 70 324 41 q 329 117 327 98 l 329 117 l 329 119 q 275 91 299 108 q 245 69 251 73 q 229 62 239 64 q 211 58 219 59 l 211 58 q 185 52 192 57 l 185 52 q 81 -64 127 -52 l 81 -64 q 23 -68 52 -73 q -23 -34 -6 -64 l -23 -34 q -7 130 -55 -4 l -7 130 q 68 301 19 201 q 161 474 116 400 l 161 474 q 374 742 258 633 l 374 742 q 415 761 393 750 q 459 772 437 771 q 503 767 480 773 q 542 749 526 761 l 542 749 q 553 678 579 721 z m 377 472 l 339 415 q 297 305 318 355 q 261 216 276 254 l 261 216 l 340 219 q 358 346 348 283 q 377 472 368 409 l 377 472 z m 312 215 l 312 215 q 340 217 326 215 l 340 217 l 340 218 q 316 216 327 217 q 312 215 305 215 z"},"B":{"ha":585,"x_min":-14,"x_max":635,"o":"m 528 754 l 528 754 l 532 753 q 576 720 557 738 q 610 681 594 701 q 634 636 625 660 l 634 636 q 568 430 672 544 l 568 430 q 469 348 524 382 l 469 348 q 496 334 483 338 q 531 317 508 329 q 561 270 554 304 q 558 192 568 235 q 520 104 547 149 q 448 22 492 58 l 448 22 q 216 -48 348 -61 l 216 -48 q 192 -45 197 -48 q 184 -40 187 -42 q 171 -37 181 -38 l 171 -37 q 114 -62 146 -57 q 54 -57 82 -67 q 6 -23 25 -47 q -14 40 -14 1 l -14 40 q -4 81 -11 66 l -4 81 q -7 103 -7 90 l -7 103 q 57 380 27 284 l 57 380 q 189 668 118 571 l 189 668 q 350 774 247 750 l 350 774 q 528 754 449 797 z m 213 56 l 217 56 q 238 58 229 59 q 258 58 246 56 l 258 58 q 336 94 287 61 l 336 94 q 369 155 367 125 q 360 194 371 185 q 331 202 349 202 q 290 197 312 202 q 246 190 267 191 l 246 190 l 246 188 q 236 153 241 168 q 227 124 231 138 l 227 124 q 213 56 218 91 l 213 56 z m 403 576 l 403 576 q 338 529 373 580 l 338 529 q 304 432 316 497 l 304 432 q 346 448 325 441 q 384 462 366 454 l 384 462 q 447 508 428 481 l 447 508 q 461 552 469 534 l 461 552 q 422 581 449 568 l 422 581 q 403 576 414 574 z m 391 580 l 388 580 l 391 580 z"},"C":{"ha":573,"x_min":18,"x_max":650,"o":"m 449 498 l 449 498 q 428 528 449 528 l 428 528 q 409 524 420 528 q 388 517 398 520 l 388 517 q 331 474 351 497 q 289 421 310 450 q 253 359 268 392 q 230 297 238 326 l 230 297 q 252 153 201 190 l 252 153 q 297 139 273 138 q 335 148 320 139 q 363 165 349 157 q 396 177 377 173 q 442 172 414 180 q 471 149 469 163 q 471 120 473 135 q 471 93 469 105 q 492 78 472 81 l 492 78 q 468 20 511 54 l 468 20 q 447 3 457 11 l 447 3 q 264 -58 361 -52 l 264 -58 q 134 -36 203 -62 l 134 -36 q 18 139 31 3 l 18 139 q 50 400 1 265 l 50 400 q 174 611 91 514 l 174 611 q 322 727 249 700 l 322 727 q 510 762 409 772 l 510 762 q 650 671 617 748 l 650 671 q 639 486 683 594 l 639 486 q 582 426 624 448 l 582 426 q 504 406 546 406 q 450 433 462 406 q 449 498 438 459 z"},"D":{"ha":594,"x_min":0,"x_max":623,"o":"m 622 406 l 622 406 q 607 318 618 363 q 574 230 595 273 q 523 147 552 187 q 457 73 493 107 q 380 16 421 39 l 380 16 q 210 -21 292 -36 l 210 -21 q 157 -70 192 -60 q 87 -70 121 -81 q 26 -31 52 -60 q 0 49 0 -2 q 7 152 0 99 q 26 254 14 205 l 26 254 q 73 406 45 335 l 73 406 q 148 632 139 567 l 148 632 q 196 740 161 719 l 196 740 q 306 769 254 774 q 400 744 358 764 l 400 744 q 549 633 469 711 l 549 633 q 622 406 637 548 z m 233 144 l 229 106 q 312 160 280 132 q 371 210 343 187 l 371 210 q 434 312 414 253 l 434 312 q 378 509 478 442 l 378 509 q 333 539 363 520 l 333 539 q 313 472 319 507 q 295 404 306 437 l 295 404 l 268 316 l 246 221 q 240 183 244 201 q 233 144 236 164 l 233 144 z"},"E":{"ha":524,"x_min":7,"x_max":594,"o":"m 226 126 l 226 126 q 313 120 284 120 q 399 128 341 120 l 399 128 q 420 113 417 122 q 422 95 423 104 q 423 76 421 85 q 442 61 425 67 l 442 61 q 448 44 451 58 q 431 12 444 29 l 431 12 q 353 -48 398 -31 l 353 -48 q 240 -69 281 -66 l 240 -69 q 92 -64 172 -74 l 92 -64 q 7 9 4 -48 l 7 9 q 99 431 7 219 l 99 431 q 167 576 129 500 l 167 576 q 177 612 175 592 q 179 651 178 632 q 185 685 180 670 q 206 706 190 700 l 206 706 q 535 770 414 789 l 535 770 q 591 742 577 769 q 594 680 604 714 q 553 616 583 646 q 476 579 522 586 l 476 579 q 404 556 417 562 l 404 556 q 368 524 379 544 l 368 524 q 342 482 354 502 q 325 439 330 462 l 325 439 l 321 417 q 368 412 340 408 q 419 419 395 415 q 457 419 442 422 q 463 390 471 416 q 432 330 454 363 q 368 282 409 297 l 368 282 q 333 275 342 277 q 318 271 323 272 l 318 271 q 278 268 311 270 l 278 268 q 221 144 231 188 l 221 144 q 226 126 217 126 z"},"F":{"ha":424,"x_min":-30,"x_max":565,"o":"m 148 9 l 148 9 q 82 -54 135 -38 l 82 -54 q -4 -44 34 -68 l -4 -44 q -30 30 -45 -19 l -30 30 q 20 209 -17 86 q 72 382 57 332 l 72 382 q 116 546 107 506 l 116 546 q 161 670 147 646 q 184 704 174 694 q 217 726 194 713 q 265 746 239 739 q 317 756 291 753 q 370 760 343 758 q 430 769 397 761 l 430 769 q 454 771 443 769 q 474 774 464 773 l 474 774 q 520 769 497 776 q 554 744 542 762 q 565 703 565 726 q 556 654 565 680 q 529 604 546 628 l 529 604 q 436 530 492 552 l 436 530 q 380 518 397 518 q 357 522 363 518 q 349 528 350 526 q 342 521 348 530 l 342 521 q 329 492 333 508 q 320 469 325 476 q 307 439 315 461 q 285 403 298 417 q 270 385 272 388 l 270 385 l 358 394 q 395 386 379 396 q 417 360 410 375 q 420 331 423 345 q 402 309 417 316 q 383 294 387 301 q 375 279 378 286 q 368 265 372 272 q 348 252 363 258 l 348 252 q 225 228 316 237 l 225 228 q 212 193 220 213 q 194 150 203 172 l 194 150 q 165 69 168 83 q 159 46 161 55 l 159 46 q 148 9 153 19 z"},"G":{"ha":639,"x_min":-13,"x_max":672,"o":"m 397 755 l 397 755 q 621 719 541 784 l 621 719 q 672 629 659 688 q 658 497 684 570 l 658 497 q 620 446 647 463 q 565 427 593 429 q 513 434 536 424 q 488 461 490 443 l 488 461 l 479 481 q 396 490 455 517 l 396 490 q 294 410 345 467 l 294 410 q 224 300 240 349 l 224 300 q 206 229 206 246 l 206 229 q 233 161 204 191 l 233 161 q 317 137 275 134 q 392 156 359 139 q 446 193 425 172 q 467 223 467 214 l 467 223 q 473 235 470 229 q 478 247 476 241 l 478 247 q 480 248 474 247 q 483 248 486 248 q 486 246 480 247 l 486 246 l 492 244 q 397 226 443 200 l 397 226 q 365 250 379 237 q 339 261 351 262 l 339 261 q 329 308 317 273 l 329 308 q 348 335 334 322 q 382 352 361 347 l 382 352 q 567 372 482 395 l 567 372 q 620 332 605 362 q 632 263 634 301 q 616 186 630 225 q 584 124 601 147 q 537 68 567 100 q 460 6 506 36 l 460 6 q 218 -64 347 -67 l 218 -64 q -3 89 31 -61 l -3 89 q -13 197 -14 137 l -13 197 q 91 522 -3 371 l 91 522 q 212 664 136 594 l 212 664 q 320 730 260 707 l 320 730 q 397 755 352 743 z"},"H":{"ha":588,"x_min":-34,"x_max":696,"o":"m 248 234 l 239 218 l 191 96 q 173 38 181 68 q 156 -14 165 8 q 129 -50 147 -37 q 87 -69 110 -63 q 40 -75 64 -76 q -4 -66 15 -74 l -4 -66 q -34 0 -47 -46 l -34 0 q 53 324 12 202 q 120 516 93 446 q 175 664 146 586 l 175 664 q 199 716 178 693 q 249 754 220 739 q 308 776 277 769 q 363 777 339 782 q 399 755 387 772 q 400 706 410 738 l 400 706 q 349 576 364 614 q 322 508 334 538 l 322 508 l 294 442 q 347 448 315 441 l 347 448 q 431 457 405 461 l 431 457 q 436 474 431 462 l 436 474 q 499 698 464 596 l 499 698 q 628 786 524 782 l 628 786 q 690 766 669 786 l 690 766 q 696 709 713 745 l 696 709 q 566 302 604 451 l 566 302 q 510 70 523 130 q 486 -1 496 10 q 466 -16 476 -12 q 445 -25 455 -21 q 429 -45 435 -29 l 429 -45 l 426 -45 q 391 -73 418 -63 q 337 -80 364 -83 q 291 -60 309 -78 q 281 -7 272 -43 l 281 -7 q 314 116 291 50 q 351 218 337 181 q 373 287 364 255 l 373 287 q 358 281 365 283 q 339 274 350 279 q 317 264 328 268 q 294 256 305 260 l 294 256 q 248 234 266 245 l 248 234 z m 352 285 l 352 285 q 362 288 353 285 l 362 288 q 352 285 356 286 z"},"I":{"ha":367,"x_min":-17,"x_max":428,"o":"m 422 676 l 422 676 q 358 479 387 567 q 304 317 328 391 q 258 181 279 243 q 219 61 237 118 l 219 61 q 154 -32 209 -5 l 154 -32 q 78 -47 122 -47 q 12 -37 34 -47 q -16 -10 -10 -28 q -16 34 -23 8 q 6 104 -10 59 q 47 224 22 148 q 98 378 71 300 l 98 378 q 204 648 165 573 l 204 648 q 234 686 219 676 q 263 700 249 695 q 289 710 277 704 q 311 740 301 716 q 346 773 320 764 q 394 775 371 782 q 428 743 416 767 q 422 676 439 718 z"},"J":{"ha":561,"x_min":-21,"x_max":665,"o":"m 146 101 l 146 101 l 145 77 q 147 53 145 71 l 147 53 q 166 48 156 42 l 166 48 q 202 76 174 53 l 202 76 q 278 212 248 145 l 278 212 q 376 480 347 369 l 376 480 q 394 545 385 513 q 411 611 402 577 q 430 680 419 644 l 430 680 l 430 684 q 517 776 447 743 l 517 776 q 632 786 584 809 l 632 786 q 665 749 655 775 q 663 677 675 722 l 663 677 q 617 532 640 608 q 568 380 594 456 q 510 230 542 303 q 436 96 478 157 l 436 96 q 216 -84 343 -40 l 216 -84 q 193 -91 202 -90 q 165 -94 183 -92 q 120 -95 147 -97 q 66 -86 92 -94 l 66 -86 q -8 -26 6 -69 l -8 -26 q -20 62 -24 34 q -9 106 -17 89 q 11 142 -1 123 l 11 142 l 12 142 q 41 171 21 159 q 82 187 60 183 q 122 183 103 190 q 146 156 140 176 l 146 156 q 147 128 147 145 q 146 101 147 111 z"},"K":{"ha":579,"x_min":-15,"x_max":636,"o":"m 180 710 l 180 710 q 234 743 199 756 l 234 743 q 252 771 244 765 q 267 781 259 777 q 284 788 275 784 q 312 795 293 792 q 354 799 331 798 q 401 796 377 799 q 440 783 424 793 l 440 783 q 457 709 479 760 l 457 709 q 456 707 459 710 l 456 707 l 447 690 l 440 681 q 409 620 435 676 l 409 620 q 366 541 388 580 l 366 541 q 322 455 330 474 l 322 455 q 403 510 357 474 l 403 510 q 514 590 490 577 q 548 606 538 603 q 566 608 557 609 q 585 602 575 606 l 585 602 l 610 592 q 636 534 634 584 l 636 534 q 616 460 637 485 l 616 460 q 411 302 525 342 l 411 302 q 339 280 376 289 l 339 280 q 440 210 392 274 l 440 210 q 497 103 479 158 q 524 22 514 48 q 533 -19 534 -5 q 516 -41 531 -34 q 463 -56 500 -49 l 463 -56 q 393 -16 446 -59 l 393 -16 q 344 26 370 3 q 292 68 318 48 l 292 68 q 208 117 232 115 l 208 117 q 200 119 206 117 l 200 119 l 182 74 q 154 5 168 41 q 119 -61 139 -32 l 119 -61 q 47 -78 88 -82 l 47 -78 q -15 -40 0 -73 l -15 -40 q 18 142 -25 -9 l 18 142 q 68 328 47 248 q 104 461 89 408 q 126 543 119 513 q 140 600 133 572 l 140 600 q 180 710 157 665 z"},"L":{"ha":467,"x_min":-15,"x_max":464,"o":"m 346 -48 q 306 -54 325 -54 q 268 -56 287 -55 q 214 -57 248 -57 q 112 -55 180 -57 l 112 -55 q 80 -56 96 -56 q 50 -50 64 -56 l 50 -50 q 8 10 19 -37 l 8 10 q -3 41 3 32 q -14 58 -10 50 l -14 58 q -12 111 -24 74 q 17 203 -1 148 q 58 318 35 257 l 58 318 q 155 548 112 463 l 155 548 q 185 614 172 586 q 207 663 197 642 q 217 684 217 683 l 217 684 q 294 748 227 722 l 294 748 q 412 762 359 775 l 412 762 q 464 684 471 747 l 464 684 q 423 560 450 622 q 360 430 395 498 q 284 286 325 362 q 203 121 243 210 l 203 121 q 207 114 202 117 l 207 114 q 244 122 220 115 q 293 135 267 129 q 343 140 318 140 q 385 127 368 140 l 385 127 q 394 99 384 109 q 414 78 404 88 l 414 78 q 418 9 439 52 l 418 9 q 346 -48 398 -33 l 346 -48 z"},"M":{"ha":691,"x_min":-28,"x_max":742,"o":"m 392 730 l 392 730 q 403 694 402 703 l 403 694 q 389 662 405 675 l 389 662 q 387 659 389 661 l 387 659 q 391 571 396 612 q 378 492 386 530 l 378 492 q 464 627 432 584 l 464 627 q 587 754 530 716 l 587 754 q 634 771 606 765 q 686 772 661 776 q 728 752 711 768 q 742 704 744 736 l 742 704 q 682 341 714 509 q 599 19 650 172 l 599 19 l 599 17 l 598 17 q 538 -34 586 -19 l 538 -34 q 454 -36 491 -48 l 454 -36 q 413 12 409 -23 l 413 12 l 414 35 l 414 37 q 419 70 418 61 q 420 82 419 78 l 420 82 q 429 131 422 108 q 438 167 435 153 q 444 194 441 181 q 448 213 447 206 l 448 213 q 394 150 410 161 l 394 150 q 301 124 354 122 l 301 124 q 263 139 268 126 l 263 139 q 249 172 253 167 l 249 172 q 239 199 243 180 l 239 199 q 188 36 213 84 l 188 36 q 168 2 178 17 l 168 2 q 104 -44 154 -31 l 104 -44 q 14 -42 57 -57 l 14 -42 q -28 8 -30 -28 q -13 99 -26 44 q 16 214 -1 153 l 16 214 q 89 465 67 407 q 125 556 110 523 l 125 556 q 189 668 161 633 l 189 668 q 292 744 220 731 l 292 744 q 392 730 349 755 z"},"N":{"ha":630,"x_min":-18,"x_max":704,"o":"m 68 388 l 68 388 q 101 492 88 455 q 125 557 113 528 q 153 613 137 586 q 187 663 168 640 q 226 698 205 685 q 270 711 247 711 q 318 693 293 711 l 318 693 q 367 559 358 593 l 367 559 q 389 418 379 509 l 389 418 q 410 467 398 441 q 432 518 421 492 l 432 518 q 471 618 463 584 l 471 618 q 562 723 493 688 l 562 723 q 674 742 622 753 l 674 742 q 704 725 695 738 q 704 698 712 712 q 698 672 695 684 q 702 642 700 659 l 702 642 q 686 561 705 596 q 647 473 667 525 q 607 361 627 420 q 565 241 586 302 q 524 130 544 180 l 524 130 q 452 3 480 15 l 452 3 q 396 -24 414 -20 l 396 -24 q 331 -24 373 -28 l 331 -24 q 286 43 305 -22 l 286 43 q 266 140 275 78 l 266 140 q 244 259 250 248 l 244 259 q 188 95 204 129 q 163 50 171 61 q 142 21 154 39 l 142 21 q 80 -32 129 -15 l 80 -32 q 4 -37 38 -48 l 4 -37 q -18 9 -33 -25 l -18 9 q 68 388 -7 129 z"},"O":{"ha":639,"x_min":30,"x_max":659,"o":"m 203 662 l 203 662 q 343 752 266 734 l 343 752 q 443 748 396 765 l 443 748 q 539 776 480 787 l 539 776 q 631 715 593 766 l 631 715 q 640 694 633 708 q 652 663 646 680 l 652 663 q 659 395 696 561 l 659 395 q 496 46 613 189 l 496 46 q 415 -27 460 2 l 415 -27 q 243 -76 343 -82 l 243 -76 q 139 -45 181 -73 l 139 -45 q 30 301 -28 38 l 30 301 q 203 662 78 517 z m 215 131 l 215 131 l 214 125 l 216 114 q 236 67 222 83 q 259 46 250 50 l 259 46 q 279 61 269 54 q 297 78 289 68 l 297 78 q 403 298 365 162 q 431 550 441 434 l 431 550 q 349 435 392 500 q 281 324 306 370 l 281 324 q 215 131 224 217 z"},"P":{"ha":606,"x_min":-30,"x_max":646,"o":"m 513 214 l 513 214 q 430 171 473 184 q 343 163 386 157 q 269 200 300 169 l 269 200 q 231 24 241 111 l 231 24 q 217 -5 227 8 l 217 -5 q 138 -76 199 -58 l 138 -76 q 26 -70 78 -93 l 26 -70 q -14 -38 2 -59 q -30 13 -30 -17 l -30 13 q 103 405 39 252 l 103 405 q 126 457 117 437 q 141 491 134 477 q 154 516 148 505 q 167 539 159 526 l 167 539 q 209 610 185 569 q 249 670 232 650 q 284 705 265 690 q 325 732 302 719 q 381 766 347 745 q 454 792 415 787 q 527 785 492 796 l 527 785 q 636 682 601 762 l 636 682 q 646 483 666 608 l 646 483 q 513 214 615 292 z m 304 303 l 304 303 q 418 410 386 321 l 418 410 q 429 580 445 485 l 429 580 q 388 499 406 541 q 354 424 369 457 l 354 424 q 304 303 321 350 z"},"Q":{"ha":724,"x_min":48,"x_max":767,"o":"m 554 93 l 565 80 q 561 24 574 46 q 524 -11 548 1 l 524 -11 q 531 -35 524 -16 q 541 -68 537 -55 l 541 -68 q 546 -117 550 -95 l 546 -117 q 490 -158 535 -155 l 490 -158 q 452 -153 471 -160 q 422 -131 433 -146 l 422 -131 q 411 -114 420 -135 q 391 -68 402 -94 l 391 -68 l 369 -24 q 281 -38 315 -41 l 281 -38 q 169 -9 228 -32 l 169 -9 q 56 105 87 23 q 48 306 25 187 l 48 306 q 115 562 59 446 l 115 562 q 280 739 181 699 l 280 739 q 448 782 381 790 l 448 782 l 466 788 q 513 825 481 814 q 580 834 544 836 q 651 819 616 832 q 706 784 685 806 l 706 784 q 767 547 781 711 l 767 547 q 621 171 751 346 l 621 171 q 554 93 590 129 l 554 93 z m 278 101 l 278 101 q 268 160 268 138 l 268 160 q 266 165 266 162 l 266 165 l 266 166 q 265 169 265 167 l 265 169 l 266 169 q 317 235 268 219 l 317 235 q 383 249 347 251 q 448 226 419 246 l 448 226 q 465 257 458 243 l 465 257 l 477 281 q 521 594 564 465 l 521 594 q 456 568 491 574 q 390 566 420 561 l 390 566 q 349 521 368 547 q 322 484 329 494 q 296 442 314 474 q 260 370 277 409 q 231 290 243 331 q 218 211 219 248 l 218 211 q 278 101 216 127 z"},"R":{"ha":582,"x_min":-23,"x_max":640,"o":"m 170 -3 l 175 -3 q 113 -52 166 -43 l 113 -52 q 20 -41 64 -61 l 20 -41 q -23 18 -29 -20 l -23 18 q 38 270 -29 76 l 38 270 q 238 686 138 561 l 238 686 q 283 728 264 718 q 325 745 301 737 q 375 760 349 753 l 375 760 q 474 780 427 774 q 557 769 520 785 q 615 720 594 752 q 640 645 635 688 q 637 554 645 601 q 608 458 629 506 q 555 367 587 409 l 555 367 q 391 248 485 275 l 391 248 l 401 231 q 433 187 414 211 q 470 138 451 163 q 503 88 488 113 q 525 41 518 63 l 525 41 q 500 -30 541 -8 l 500 -30 q 448 -40 467 -50 l 448 -40 q 432 -27 440 -35 q 410 -15 424 -20 l 410 -15 q 320 15 351 -32 l 320 15 q 291 70 301 45 q 274 112 281 95 l 274 112 q 233 176 256 149 l 233 176 q 208 107 222 149 l 208 107 q 170 -3 191 54 l 170 -3 z m 377 579 l 377 579 q 351 519 358 536 l 351 519 q 320 444 337 485 l 320 444 q 315 413 317 422 l 315 413 l 329 427 l 346 435 q 379 453 364 445 q 406 473 394 461 l 406 473 q 446 548 429 496 l 446 548 q 450 568 446 558 q 454 588 453 578 l 454 588 q 436 619 458 610 l 436 619 q 386 586 416 621 l 386 586 q 377 579 380 579 z"},"S":{"ha":552,"x_min":-30,"x_max":633,"o":"m 166 -58 l 166 -58 q 73 -45 115 -60 q 4 -6 30 -31 q -30 53 -23 19 q -18 121 -37 86 l -18 121 q 86 146 8 163 l 86 146 q 168 133 145 134 q 206 139 190 132 l 206 139 q 288 191 279 163 l 288 191 q 262 240 294 212 l 262 240 q 233 264 249 252 q 206 288 217 276 l 206 288 q 128 374 156 325 q 104 479 99 422 q 123 574 109 536 q 158 640 137 611 l 158 640 q 254 723 195 691 l 254 723 q 363 768 322 758 l 363 768 q 527 771 444 786 l 527 771 q 575 752 555 766 q 615 723 595 738 l 615 723 q 632 652 650 688 l 632 652 q 610 626 625 636 q 578 615 595 616 l 578 615 q 568 575 580 588 l 568 575 q 488 545 545 552 l 488 545 q 377 536 406 551 l 377 536 q 352 458 343 518 l 352 458 q 369 431 354 445 q 403 401 383 417 q 444 365 422 385 q 481 319 465 345 l 481 319 q 472 104 537 227 l 472 104 q 308 -34 424 12 l 308 -34 q 166 -58 248 -58 z"},"T":{"ha":502,"x_min":75,"x_max":627,"o":"m 349 257 q 293 106 321 178 q 247 -3 265 34 q 214 -55 228 -41 q 186 -74 200 -69 q 157 -78 171 -79 q 127 -76 142 -77 l 127 -76 q 75 45 43 -63 l 75 45 q 109 186 96 131 q 131 276 122 240 q 145 335 139 311 q 158 381 151 358 q 176 433 165 404 q 203 510 186 462 l 203 510 q 135 518 165 505 l 135 518 q 99 600 91 537 l 99 600 q 130 654 103 629 l 130 654 q 163 682 144 667 l 163 682 q 318 748 202 713 l 318 748 q 524 782 438 784 l 524 782 q 572 777 547 786 q 611 751 596 767 q 627 716 626 735 q 602 682 627 697 l 602 682 q 585 656 590 674 q 574 617 580 637 q 557 579 568 596 q 520 559 545 562 l 520 559 q 484 549 507 552 q 453 545 460 546 q 444 539 445 543 l 444 539 q 401 411 426 486 q 349 257 376 335 z m 213 520 l 213 521 q 211 521 211 521 q 213 520 211 520 l 213 520 z"},"U":{"ha":685,"x_min":45,"x_max":743,"o":"m 343 724 l 343 724 l 343 722 q 344 721 343 721 q 344 720 344 721 l 344 720 l 344 718 l 345 718 l 351 702 q 299 522 361 673 l 299 522 q 238 271 233 361 l 238 271 q 345 374 249 207 l 345 374 q 492 659 421 504 l 492 659 q 511 703 501 680 q 536 740 521 725 l 536 740 q 616 759 569 776 l 616 759 q 654 785 632 778 q 695 788 675 792 q 728 770 714 784 q 743 731 742 755 l 743 731 q 723 636 746 711 q 679 499 699 561 q 638 364 659 437 l 638 364 q 557 38 587 191 l 557 38 q 530 -15 556 6 q 471 -42 503 -36 q 409 -40 438 -49 l 409 -40 q 372 10 374 -30 l 372 10 q 371 32 372 21 l 371 32 q 322 -26 373 -2 l 322 -26 q 296 -39 308 -33 l 296 -39 q 149 -30 226 -60 l 149 -30 q 85 11 113 -15 q 45 71 56 36 l 45 71 q 58 365 10 183 l 58 365 q 107 517 78 443 q 150 624 136 591 q 169 670 163 657 q 182 694 175 682 l 182 694 q 211 740 199 728 l 211 740 l 223 751 q 227 754 225 753 q 232 756 229 754 l 232 756 q 249 763 240 761 l 249 763 l 263 766 l 269 766 q 319 754 298 770 l 319 754 q 321 753 319 753 l 321 753 l 329 746 l 332 743 l 335 739 q 336 738 335 738 q 336 737 336 738 l 336 737 l 337 736 l 337 734 q 338 733 338 734 l 338 733 l 338 732 q 340 731 339 731 l 340 731 l 340 730 q 341 729 340 729 q 341 729 341 729 q 342 727 341 728 l 342 727 l 342 726 q 343 724 342 725 z m 370 57 l 370 58 l 370 61 q 369 53 369 60 l 369 53 q 370 57 369 56 l 370 57 z"},"V":{"ha":515,"x_min":72,"x_max":657,"o":"m 79 33 l 79 33 l 72 679 q 92 721 72 703 q 136 745 111 738 q 183 747 161 752 q 211 721 205 742 l 211 721 q 237 616 230 683 l 237 616 q 250 400 250 491 l 250 400 q 275 385 260 384 l 275 385 q 370 587 318 490 q 437 712 422 684 q 473 750 452 739 q 518 764 494 761 l 518 764 q 616 746 570 770 l 616 746 q 657 705 651 734 l 657 705 q 626 599 680 659 l 626 599 q 499 378 563 499 l 499 378 q 344 91 377 145 q 296 15 311 37 q 262 -23 281 -8 l 262 -23 q 180 -45 228 -50 l 180 -45 q 82 8 96 -42 l 82 8 q 79 33 79 22 z"},"W":{"ha":773,"x_min":51,"x_max":894,"o":"m 488 422 l 488 422 q 624 729 590 729 l 624 729 q 633 728 628 729 l 633 728 q 669 741 649 727 l 669 741 q 730 775 695 763 q 797 784 764 787 l 797 784 q 894 703 874 777 l 894 703 l 894 700 q 884 677 889 686 l 884 677 l 888 677 q 840 597 863 646 q 805 520 817 547 q 771 450 793 492 q 721 347 749 408 q 661 226 692 286 l 661 226 q 514 0 587 82 l 514 0 q 414 -44 477 -45 l 414 -44 q 362 -30 387 -43 q 323 10 337 -17 l 323 10 l 302 73 q 272 45 289 62 q 236 10 255 28 l 236 10 q 168 -34 192 -32 q 127 -34 144 -36 q 95 -27 110 -33 l 95 -27 q 51 23 61 -14 l 51 23 q 68 460 34 194 l 68 460 q 84 588 77 525 l 84 588 q 148 716 101 677 l 148 716 q 226 736 188 750 l 226 736 q 252 716 243 730 q 258 682 261 702 l 258 682 q 257 591 260 621 l 257 591 q 254 516 253 540 q 254 477 255 492 q 252 448 252 461 q 253 426 251 434 q 260 422 254 417 l 260 422 q 299 493 283 471 q 333 539 315 515 l 333 539 q 382 558 361 564 l 382 558 q 405 551 393 556 q 437 541 417 545 l 437 541 q 454 517 450 530 l 454 517 q 460 512 457 514 q 465 506 463 509 q 470 490 466 502 q 477 465 473 478 q 484 439 481 451 q 488 422 487 426 z m 513 6 l 512 3 q 513 3 512 1 q 513 6 513 4 l 513 6 z"},"X":{"ha":600,"x_min":-23,"x_max":718,"o":"m 331 517 l 331 517 l 432 650 q 440 715 421 681 l 440 715 q 559 792 500 775 l 559 792 q 674 790 624 809 l 674 790 q 713 759 699 780 q 718 703 727 738 l 718 703 q 621 572 694 651 l 621 572 q 561 509 591 540 q 509 451 531 478 q 468 397 486 424 q 430 342 450 369 l 430 342 q 474 212 440 300 q 520 78 507 123 q 535 -11 533 32 l 535 -11 q 523 -30 531 -26 q 507 -35 515 -34 q 491 -35 498 -36 q 483 -41 484 -35 l 483 -41 q 482 -61 489 -52 q 461 -74 475 -70 l 461 -74 q 393 -71 428 -85 l 393 -71 q 324 20 358 -47 l 324 20 q 279 142 303 61 l 279 142 q 243 87 259 115 q 210 31 227 58 l 210 31 q 133 -58 172 -32 l 133 -58 q 0 -74 65 -92 l 0 -74 q -22 42 -56 -44 l -22 42 q 0 80 -11 72 l 0 80 q 6 85 5 85 q 7 86 6 85 q 10 92 7 87 q 22 110 12 96 l 22 110 q 101 226 57 164 l 101 226 l 122 250 q 154 288 137 268 l 154 288 q 206 349 194 337 l 206 349 q 156 480 165 445 l 156 480 q 138 647 142 542 l 138 647 q 158 711 127 673 l 158 711 q 224 756 186 745 l 224 756 q 279 732 266 768 l 279 732 q 309 627 298 679 q 331 517 319 574 z"},"Y":{"ha":491,"x_min":3,"x_max":596,"o":"m 120 379 l 120 379 q 106 615 103 524 l 106 615 q 141 697 104 658 l 141 697 q 214 738 176 734 l 214 738 q 268 691 256 741 l 268 691 q 288 626 276 663 q 311 548 300 589 l 311 548 q 346 601 322 563 q 391 669 370 639 l 391 669 q 481 771 442 742 l 481 771 q 547 780 519 786 q 587 759 574 773 q 596 718 599 745 l 596 718 q 500 520 594 655 l 500 520 q 456 448 478 489 q 404 357 433 407 q 347 256 374 306 l 347 256 q 250 41 285 143 l 250 41 q 258 37 251 43 q 271 18 265 30 l 271 18 q 268 -32 287 -12 l 268 -32 q 149 -88 220 -82 l 149 -88 q 37 -64 84 -93 l 37 -64 q 6 3 -10 -37 l 6 3 l 3 3 q 53 111 25 60 q 111 215 81 161 l 111 215 l 156 295 q 128 319 139 291 l 128 319 q 120 379 120 342 z"},"Z":{"ha":561,"x_min":2,"x_max":606,"o":"m 345 137 l 454 126 q 512 106 497 127 q 522 58 527 85 q 494 5 516 31 q 438 -32 471 -22 l 438 -32 q 280 -68 377 -59 l 280 -68 q 108 -66 193 -77 l 108 -66 q 37 -41 57 -59 l 37 -41 q 2 57 -3 -6 l 2 57 q 14 106 4 87 l 14 106 q 65 182 30 132 q 134 273 99 232 q 202 352 168 314 l 202 352 q 359 539 335 501 l 359 539 q 374 570 364 547 l 374 570 q 191 573 283 549 l 191 573 q 143 618 156 582 l 143 618 q 163 691 129 657 l 163 691 q 308 770 212 744 l 308 770 q 488 788 398 794 l 488 788 q 513 779 504 783 q 533 761 522 774 l 533 761 l 534 742 q 551 738 539 740 q 568 734 562 736 q 581 726 574 731 q 594 712 588 721 l 594 712 q 606 646 606 692 q 584 545 605 599 q 531 438 562 490 q 465 340 500 386 q 404 261 429 293 q 365 210 379 229 q 343 176 350 190 l 343 176 q 345 137 330 151 l 345 137 z m 457 124 l 466 124 l 457 124 z"},"[":{"ha":536,"x_min":-40,"x_max":579,"o":"m 491 721 l 491 721 q 414 712 414 713 q 413 711 414 711 l 413 711 l 413 709 l 397 691 l 377 678 q 335 565 351 621 l 335 565 l 326 519 q 308 439 318 481 q 288 354 298 397 l 288 354 q 257 188 262 234 q 239 90 252 141 q 214 -8 225 39 l 214 -8 q 303 -3 257 -2 q 381 -23 349 -4 q 422 -69 413 -43 q 413 -121 431 -95 q 339 -164 394 -148 l 339 -164 q 244 -163 292 -157 q 148 -175 195 -169 q 55 -181 100 -181 q -30 -163 10 -182 l -30 -163 q -31 -161 -30 -162 l -31 -161 q -39 -97 -51 -124 q 0 -57 -28 -71 l 0 -57 q 42 123 19 31 q 86 309 64 215 l 86 309 q 166 710 157 613 l 166 710 q 178 784 172 768 q 187 805 183 799 q 193 813 191 811 q 195 816 194 814 l 195 816 q 197 815 195 815 l 197 815 q 221 838 207 827 l 221 838 q 380 843 311 872 l 380 843 q 428 835 425 838 l 428 835 l 438 835 q 460 836 443 835 l 460 836 q 554 829 516 841 l 554 829 q 577 795 570 819 q 579 751 584 771 l 579 751 q 516 722 563 723 l 516 722 q 491 721 503 721 z"},"\\":{"ha":567,"x_min":10,"x_max":499,"o":"m 243 786 l 243 786 l 250 765 q 273 686 263 727 q 301 577 282 645 q 348 419 319 509 q 405 239 377 328 l 405 239 q 498 -130 470 34 l 498 -130 q 499 -199 511 -171 q 465 -241 487 -227 q 420 -253 443 -255 q 389 -234 397 -252 l 389 -234 q 252 130 330 -108 l 252 130 q 189 319 220 225 q 130 482 158 412 q 80 605 101 552 q 27 706 58 657 l 27 706 q 25 774 6 747 l 25 774 q 10 846 0 825 l 10 846 q 112 894 45 901 l 112 894 q 160 886 143 891 l 160 886 q 232 836 213 862 q 243 786 250 809 z"},"]":{"ha":545,"x_min":-5,"x_max":616,"o":"m 284 343 q 306 436 294 386 q 326 522 317 485 q 339 581 335 559 q 346 627 342 602 l 346 627 q 361 701 359 695 q 362 712 362 707 l 362 712 q 319 708 342 708 q 273 710 296 708 q 226 714 249 711 q 176 718 202 716 q 125 729 149 719 q 92 756 101 739 l 92 756 q 134 845 73 793 l 134 845 q 313 869 209 874 l 313 869 q 385 871 350 868 q 450 875 420 873 q 505 877 480 877 q 546 870 529 877 l 546 870 q 573 805 580 855 l 573 805 q 579 796 572 801 q 595 785 586 791 q 610 774 603 779 q 616 765 617 769 l 616 765 q 389 5 524 494 l 389 5 q 378 -52 383 -24 q 366 -104 373 -80 l 366 -104 q 326 -171 352 -159 l 326 -171 q 160 -196 279 -193 l 160 -196 q 36 -180 85 -198 l 36 -180 q 1 -154 12 -170 l 1 -154 q -4 -126 -9 -137 q 14 -103 0 -115 l 14 -103 q 85 -80 42 -87 q 145 -71 127 -74 q 165 -65 162 -69 l 165 -65 q 224 90 191 -26 l 224 90 q 243 165 232 121 q 264 254 254 208 q 284 343 274 299 z"},"^":{"ha":539,"x_min":30,"x_max":540,"o":"m 454 770 l 454 770 l 457 746 q 505 578 485 671 l 505 578 q 527 525 515 554 q 540 468 538 495 l 540 468 q 482 396 545 405 l 482 396 q 434 400 456 394 q 399 431 412 406 l 399 431 q 398 452 397 442 q 398 473 398 462 l 398 473 q 373 529 390 502 q 339 582 355 556 l 339 582 q 256 489 296 526 l 256 489 q 144 460 201 456 l 144 460 q 41 488 79 456 l 41 488 q 30 579 0 524 l 30 579 q 135 698 100 663 l 135 698 q 268 814 198 761 l 268 814 q 287 830 277 821 q 308 846 297 838 l 308 846 q 361 867 334 863 q 417 866 388 870 q 469 832 446 861 l 469 832 q 454 770 483 799 z"},"_":{"ha":833,"x_min":-61,"x_max":809,"o":"m 319 21 l 319 21 q 466 24 361 24 q 742 13 570 24 l 742 13 q 787 -16 768 6 q 809 -64 806 -38 q 795 -114 812 -90 q 731 -147 777 -138 l 731 -147 q 704 -152 716 -149 q 680 -158 692 -155 l 680 -158 q 625 -161 654 -164 l 625 -161 q 470 -161 533 -161 q 375 -161 407 -161 q 298 -163 342 -162 q 190 -167 253 -165 q 30 -173 126 -170 l 30 -173 q -41 -148 -20 -165 q -61 -110 -62 -131 q -38 -70 -60 -90 q 19 -35 -17 -50 l 19 -35 q 48 33 1 13 l 48 33 q 243 32 77 43 l 243 32 q 344 23 332 27 l 344 23 q 319 21 350 21 z"},"`":{"ha":282,"x_min":43,"x_max":255,"o":"m 43 798 l 44 799 q 78 872 35 848 l 78 872 q 163 885 116 892 l 163 885 q 218 870 192 884 q 255 830 244 856 l 255 830 q 248 776 247 804 l 248 776 q 249 698 250 716 q 237 671 248 680 q 212 660 226 662 l 212 660 q 157 670 182 656 l 157 670 q 148 684 152 680 l 148 684 q 142 690 144 685 l 142 690 q 116 723 138 701 l 116 723 l 80 759 q 61 772 65 766 l 61 772 q 44 793 53 781 l 44 793 l 43 798 z"},"a":{"ha":536,"x_min":8,"x_max":524,"o":"m 458 429 l 458 429 l 462 428 q 464 427 464 428 l 464 427 q 507 412 490 437 l 507 412 q 524 360 518 395 l 524 360 q 514 227 526 312 l 514 227 q 489 22 491 55 l 489 22 q 446 -26 491 -13 l 446 -26 q 368 -25 407 -38 l 368 -25 q 334 18 327 -11 l 334 18 q 318 -3 326 3 q 287 -21 310 -10 q 220 -40 263 -33 q 134 -44 177 -48 q 56 -23 91 -41 q 8 31 20 -6 l 8 31 q 14 214 -15 103 l 14 214 q 86 343 34 287 l 86 343 q 222 449 146 407 l 222 449 q 332 486 279 480 l 332 486 q 364 485 350 488 q 393 479 377 482 q 422 470 408 476 l 422 470 q 458 429 458 455 z m 273 164 l 273 164 q 285 199 280 178 q 297 245 289 220 l 297 245 q 173 164 216 212 l 173 164 q 179 91 126 111 l 179 91 q 246 106 225 79 l 246 106 q 262 136 255 118 q 279 173 269 154 l 279 173 q 273 164 276 168 z"},"b":{"ha":530,"x_min":3,"x_max":521,"o":"m 191 5 l 191 -3 l 166 -26 q 127 -43 146 -40 l 127 -43 l 128 -44 l 123 -48 q 18 -17 52 -54 l 18 -17 q 3 85 -17 22 l 3 85 q 126 547 47 334 l 126 547 q 228 740 179 691 l 228 740 q 276 755 254 765 l 276 755 q 297 793 282 779 q 330 809 312 806 q 365 803 348 811 q 392 772 382 794 q 400 730 401 750 q 391 690 398 709 q 373 651 383 670 q 353 613 362 632 l 353 613 q 262 385 289 459 l 262 385 l 271 391 q 412 430 337 435 l 412 430 q 472 413 445 427 q 511 369 498 398 q 521 295 523 340 q 503 201 518 249 q 463 106 488 152 q 406 26 437 60 l 406 26 q 271 -32 336 -51 l 271 -32 q 206 -6 243 -36 l 206 -6 q 191 5 198 1 l 191 5 z m 218 69 l 218 69 q 270 133 233 86 q 319 207 306 180 q 312 256 331 233 l 312 256 q 264 220 293 280 l 264 220 q 218 69 218 124 z"},"c":{"ha":445,"x_min":22,"x_max":473,"o":"m 410 491 l 410 491 q 463 464 449 486 q 473 416 476 441 q 455 370 470 390 q 420 348 439 349 l 420 348 q 398 319 413 327 q 365 308 383 311 q 328 302 347 305 q 291 284 308 298 q 263 257 274 270 q 244 230 251 243 l 244 230 q 223 176 232 208 l 223 176 q 244 135 221 154 l 244 135 q 303 117 271 114 q 355 114 335 119 q 384 98 374 108 l 384 98 q 380 45 406 75 l 380 45 q 212 -50 330 -35 l 212 -50 q 142 -52 177 -55 q 74 -26 107 -50 q 22 39 41 -2 l 22 39 q 29 258 -20 133 l 29 258 q 170 438 76 375 l 170 438 q 410 491 273 508 z"},"d":{"ha":542,"x_min":-6,"x_max":655,"o":"m 203 409 l 203 409 q 288 424 240 434 l 288 424 q 342 382 336 413 l 342 382 q 354 420 350 401 l 354 420 q 453 730 399 623 l 453 730 q 488 776 470 763 l 488 776 q 587 784 535 806 l 587 784 q 620 760 608 775 q 630 731 632 744 q 632 710 627 718 q 642 694 636 702 l 642 694 q 655 661 658 675 l 655 661 q 602 498 635 582 q 533 329 568 413 q 470 164 498 245 q 432 9 441 82 l 432 9 q 416 -25 432 -10 q 376 -50 400 -41 l 376 -50 q 270 -42 319 -70 l 270 -42 l 270 -36 q 256 -32 260 -33 q 249 -28 251 -31 l 249 -28 q 244 3 246 -23 l 244 3 q 205 -35 224 -28 q 166 -42 186 -42 l 166 -42 q 28 -7 69 -42 l 28 -7 q -6 91 -8 23 l -6 91 q 50 261 -4 167 l 50 261 q 203 409 112 368 z m 202 81 l 202 81 q 246 96 234 70 l 246 96 q 260 130 253 109 q 276 179 266 151 l 276 179 l 280 199 q 237 203 256 213 q 205 172 217 193 q 191 125 193 151 q 202 81 189 99 z"},"e":{"ha":482,"x_min":3,"x_max":470,"o":"m 349 148 l 349 148 q 312 134 330 139 q 270 124 294 129 l 270 124 q 179 109 207 111 l 179 109 q 209 85 182 99 l 209 85 q 249 91 227 82 q 294 107 270 99 q 340 115 317 114 q 382 98 362 116 l 382 98 q 395 77 390 80 q 404 74 400 74 q 413 71 408 74 q 428 48 418 68 q 423 10 437 28 q 378 -21 408 -8 q 308 -42 348 -34 q 228 -53 268 -50 l 228 -53 q 91 -39 138 -60 l 91 -39 q 3 52 23 -16 l 3 52 q 32 262 -23 142 l 32 262 q 111 382 57 318 l 111 382 q 216 463 158 438 l 216 463 q 356 490 283 492 l 356 490 q 464 422 434 488 l 464 422 q 470 324 479 387 l 470 324 q 428 208 454 242 l 428 208 q 349 148 402 175 z m 291 306 l 291 306 q 208 246 238 317 l 208 246 q 194 206 199 227 l 194 206 q 266 244 228 202 l 266 244 q 287 279 280 261 q 291 306 294 296 z"},"f":{"ha":436,"x_min":-13,"x_max":598,"o":"m 345 458 l 345 458 q 461 476 383 471 l 461 476 q 476 435 479 466 q 452 388 472 404 l 452 388 q 401 339 428 352 l 401 339 q 365 327 386 332 q 312 312 343 321 l 312 312 q 268 160 292 256 q 233 32 243 64 l 233 32 q 200 -45 210 -42 l 200 -45 q 150 -90 177 -81 q 99 -90 122 -99 q 64 -60 76 -82 q 58 -15 51 -39 l 58 -15 q 67 125 55 10 q 79 257 79 240 l 79 257 q 69 262 75 261 q 61 267 63 263 l 61 267 q 47 278 52 270 l 47 278 q 28 298 38 292 l 28 298 q -1 309 10 296 q -13 338 -13 321 q -1 373 -13 355 q 40 401 11 391 l 40 401 l 142 433 q 218 617 154 514 l 218 617 q 251 671 233 642 q 299 724 268 699 q 364 762 330 748 q 432 778 397 775 q 495 777 466 781 l 495 777 q 576 736 556 769 l 576 736 q 598 661 600 694 q 570 610 595 627 l 570 610 q 502 602 530 584 l 502 602 q 486 622 491 608 q 467 632 481 636 q 435 614 453 628 q 399 577 417 599 q 366 532 380 555 l 366 532 q 345 458 331 479 z"},"g":{"ha":542,"x_min":-39,"x_max":518,"o":"m 419 399 l 419 399 q 464 430 436 430 l 464 430 q 518 352 507 406 l 518 352 q 494 255 529 298 l 494 255 q 495 238 493 254 l 495 238 q 482 30 513 138 l 482 30 q 457 -37 471 -6 q 421 -115 442 -68 q 360 -208 399 -162 q 272 -281 321 -254 l 272 -281 q 42 -306 169 -339 l 42 -306 q -22 -264 -4 -288 l -22 -264 q -38 -202 -45 -235 l -38 -202 q 10 -157 -31 -161 l 10 -157 q 60 -172 30 -155 l 60 -172 q 115 -171 94 -179 q 149 -156 136 -163 q 180 -140 161 -150 l 180 -140 q 255 -62 213 -123 l 255 -62 q 301 24 278 -30 l 301 24 q 183 -22 264 -23 l 183 -22 q 132 -20 160 -21 q 80 -1 103 -19 q 43 46 57 17 q 25 113 29 75 q 24 189 20 150 l 24 189 q 138 404 40 325 l 138 404 q 282 463 205 459 l 282 463 q 352 455 319 465 l 352 455 q 419 399 392 440 z m 297 172 l 297 172 q 298 177 297 175 l 298 177 q 288 181 293 179 q 270 186 283 182 q 235 182 257 190 q 197 159 213 173 q 171 128 180 144 q 168 101 161 112 q 191 93 174 90 q 228 107 208 95 l 228 107 q 297 172 272 134 z"},"h":{"ha":591,"x_min":-16,"x_max":563,"o":"m 542 107 l 542 107 q 555 15 542 54 l 555 15 q 540 -30 555 -17 q 503 -44 525 -44 q 455 -35 480 -45 q 413 -12 430 -26 q 390 11 395 2 q 374 36 385 19 l 374 36 q 358 139 357 115 q 362 180 359 163 l 362 180 q 293 135 312 154 l 293 135 q 234 45 258 100 l 234 45 q 221 -1 226 1 q 208 -5 216 -4 q 191 -12 200 -6 q 174 -22 182 -18 q 158 -30 166 -26 l 158 -30 q 133 -41 139 -41 l 133 -41 q 24 -25 76 -59 l 24 -25 q -10 14 2 -10 q -16 64 -22 37 l -16 64 q 102 441 27 249 l 102 441 q 190 626 148 558 l 190 626 q 210 660 200 642 l 210 660 q 239 709 231 696 l 239 709 q 240 755 229 735 q 272 786 250 774 q 321 801 293 797 q 374 802 349 805 l 374 802 q 438 755 434 793 l 438 755 q 422 712 432 737 q 401 662 411 687 q 381 614 390 636 q 367 582 371 592 q 354 546 362 571 q 336 491 345 520 q 318 436 326 461 l 318 436 l 306 401 q 293 359 302 387 q 274 288 284 330 l 274 288 q 296 312 287 298 q 321 342 304 325 q 364 376 337 359 q 420 397 390 392 l 420 397 q 538 355 485 408 l 538 355 q 563 235 578 315 l 563 235 q 549 169 557 202 q 542 107 540 135 z"},"i":{"ha":321,"x_min":-9,"x_max":383,"o":"m 132 433 l 132 433 q 194 478 145 466 l 194 478 q 280 475 240 490 l 280 475 q 317 423 321 459 l 317 423 q 290 338 306 388 q 258 234 273 287 l 258 234 q 212 42 218 98 l 212 42 q 162 -55 197 -48 l 162 -55 q 143 -58 152 -57 l 143 -58 q 115 -70 121 -59 q 95 -86 109 -81 q 65 -91 81 -92 q 31 -83 48 -91 q 2 -62 14 -76 l 2 -62 q -9 29 -26 -28 l -9 29 q 72 306 7 138 l 72 306 q 132 433 103 389 z m 321 583 l 321 583 q 242 589 272 573 q 206 628 211 605 q 220 674 201 650 l 220 674 q 286 713 242 704 l 286 713 q 315 715 306 715 q 337 711 324 715 l 337 711 q 380 682 370 708 l 380 682 q 383 632 394 660 q 321 583 371 604 z"},"j":{"ha":358,"x_min":-217,"x_max":417,"o":"m 100 200 l 100 200 q 137 323 123 291 l 137 323 q 227 422 169 390 l 227 422 q 276 443 251 442 l 276 443 q 322 426 320 445 q 331 401 324 407 q 345 391 337 395 q 359 378 352 386 q 367 345 365 369 l 367 345 q 58 -261 224 -182 l 58 -261 q -103 -278 -19 -296 l -103 -278 q -216 -206 -183 -260 l -216 -206 q -197 -89 -252 -149 l -197 -89 q -124 -76 -170 -57 l -124 -76 q -103 -84 -112 -80 l -103 -84 q -81 -105 -86 -96 q -74 -121 -77 -114 q -66 -137 -72 -128 l -66 -137 q -48 -150 -59 -141 l -48 -150 q -40 -145 -42 -147 l -40 -145 l -18 -119 q 10 -61 -1 -88 q 33 -5 21 -35 q 55 52 45 24 q 72 103 65 80 q 84 147 78 125 q 100 200 90 168 z m 237 656 l 237 656 q 327 720 270 719 l 327 720 q 408 679 377 722 l 408 679 q 417 591 440 635 l 417 591 q 342 548 395 548 l 342 548 q 260 580 294 548 l 260 580 q 237 656 222 615 z"},"k":{"ha":476,"x_min":-19,"x_max":501,"o":"m 197 785 l 197 785 q 250 815 219 812 q 310 806 281 818 q 360 768 339 793 q 382 711 380 742 l 382 711 l 373 682 q 393 661 384 669 q 402 636 401 653 l 402 636 q 352 525 408 622 l 352 525 q 304 442 329 485 q 262 364 278 398 l 262 364 q 286 369 274 367 q 310 374 298 371 l 310 374 q 410 394 384 393 q 453 388 436 394 l 453 388 q 501 332 499 370 l 501 332 q 396 240 487 299 l 396 240 q 362 218 375 227 l 362 218 l 275 156 q 265 135 268 145 l 265 135 l 265 134 q 291 120 267 129 q 331 104 314 111 l 331 104 q 402 55 371 86 l 402 55 q 415 23 412 44 q 409 -17 418 1 q 375 -43 399 -35 q 308 -36 351 -51 l 308 -36 q 159 89 245 -8 l 159 89 q 140 21 149 54 q 119 -48 130 -13 l 119 -48 q 49 -80 104 -82 l 49 -80 q 10 -71 27 -80 q -11 -47 -8 -62 l -11 -47 q -19 -14 -19 -25 q -14 10 -19 -4 l -14 10 q 15 103 9 68 q 23 143 21 137 l 23 143 q -10 200 -5 161 l -10 200 q 8 268 -16 238 l 8 268 q 54 286 40 280 l 54 286 q 74 368 60 324 l 74 368 q 113 505 99 447 q 152 637 126 563 q 197 785 177 710 z"},"l":{"ha":294,"x_min":-12,"x_max":416,"o":"m 197 39 q 182 2 190 18 q 158 -28 174 -14 q 120 -54 142 -42 q 78 -72 98 -67 l 78 -72 q 30 -45 32 -82 l 30 -45 q 18 -33 27 -35 q 0 -28 8 -32 l 0 -28 q -12 21 -21 -19 l -12 21 q 23 155 4 76 q 72 327 42 233 l 72 327 q 248 738 143 555 l 248 738 q 264 762 255 747 q 287 788 273 776 l 287 788 q 373 803 322 820 l 373 803 q 379 780 372 790 q 395 758 386 769 l 395 758 q 416 711 418 732 l 416 711 q 225 150 310 460 l 225 150 q 209 87 215 114 q 197 39 203 60 z"},"m":{"ha":767,"x_min":-25,"x_max":756,"o":"m 139 435 l 139 435 q 163 466 141 454 q 212 478 185 478 q 265 466 239 478 q 299 423 290 453 l 299 423 q 454 480 384 497 l 454 480 q 495 452 478 475 l 495 452 q 608 516 546 501 l 608 516 q 720 480 686 519 l 720 480 q 730 469 725 475 l 730 469 q 746 449 744 454 l 746 449 q 756 320 764 421 l 756 320 q 706 57 745 189 l 706 57 q 668 -12 685 -10 l 668 -12 q 650 -12 658 -14 q 635 -9 641 -10 q 627 -21 628 -9 l 627 -21 q 566 -47 607 -47 l 566 -47 q 498 -22 526 -47 l 498 -22 q 477 40 467 4 q 498 113 486 75 q 524 190 510 150 l 524 190 q 577 336 548 260 l 577 336 q 520 246 556 312 q 475 166 484 179 l 475 166 q 447 113 458 132 q 418 82 436 93 q 384 67 399 70 q 354 66 368 64 l 354 66 q 307 94 321 71 l 307 94 q 301 110 304 102 q 296 132 298 118 l 296 132 q 304 233 293 163 l 304 233 l 302 230 q 310 236 314 242 l 310 236 q 262 163 270 179 q 245 128 254 147 q 224 83 236 108 q 205 37 212 57 q 188 -2 198 17 l 188 -2 q 30 -65 143 -80 l 30 -65 q -11 -53 6 -62 q -25 -28 -28 -45 l -25 -28 q 12 105 -17 12 l 12 105 q 80 342 69 289 l 80 342 q 93 379 87 360 q 104 412 98 398 l 104 412 q 139 435 116 445 z m 486 188 l 486 188 l 486 186 q 486 188 488 190 z"},"n":{"ha":652,"x_min":-12,"x_max":650,"o":"m 167 433 l 167 433 q 257 434 234 460 l 257 434 q 269 395 269 420 l 269 395 l 269 390 q 398 462 306 433 l 398 462 q 558 479 495 492 l 558 479 q 650 372 640 462 l 650 372 q 615 179 658 296 l 615 179 q 594 131 601 149 q 580 97 586 112 l 580 97 q 539 30 567 69 l 539 30 q 490 -16 523 0 q 424 -34 456 -32 q 370 -24 391 -37 q 358 15 349 -12 l 358 15 q 396 128 381 77 q 427 215 411 179 l 427 215 q 431 279 442 266 l 431 279 q 400 276 422 289 l 400 276 q 373 248 381 264 l 373 248 q 305 144 355 235 l 305 144 q 278 95 291 119 q 253 49 264 70 q 233 14 241 28 q 218 -4 224 0 q 207 -10 211 -9 q 199 -14 202 -12 q 194 -27 196 -16 l 194 -27 q 146 -61 190 -50 l 146 -61 q 18 -55 75 -79 l 18 -55 q -12 -33 -1 -47 l -12 -33 q 67 280 -35 13 l 67 280 q 114 392 103 374 l 114 392 q 147 435 139 430 q 167 433 154 440 z"},"o":{"ha":524,"x_min":11,"x_max":513,"o":"m 140 427 l 140 427 q 192 434 161 442 l 192 434 q 204 433 198 433 l 204 433 q 280 480 226 478 l 280 480 q 319 485 294 481 q 380 483 344 489 q 442 462 415 477 l 442 462 q 513 370 501 430 l 513 370 q 506 178 537 282 l 506 178 q 394 -6 473 63 l 394 -6 q 318 -46 358 -38 q 246 -56 278 -55 q 188 -56 214 -57 q 136 -51 161 -56 l 136 -51 q 47 0 82 -40 l 47 0 q 12 140 6 45 l 12 140 q 55 310 16 224 q 140 427 93 395 z m 316 226 l 316 226 q 269 219 291 218 l 269 219 q 250 196 258 208 q 227 173 241 183 q 213 164 213 162 l 213 164 q 185 115 196 140 q 185 63 174 89 l 185 63 q 244 65 225 59 q 280 88 263 71 q 305 128 296 105 l 305 128 q 316 226 323 171 z"},"p":{"ha":588,"x_min":-67,"x_max":578,"o":"m 222 414 l 241 409 q 380 499 291 484 l 380 499 q 452 506 409 504 q 525 487 494 508 q 570 433 555 466 l 570 433 q 578 288 596 374 l 578 288 q 554 185 568 241 q 512 73 540 128 q 439 -30 484 18 q 322 -106 394 -78 l 322 -106 q 247 -118 279 -123 q 198 -105 214 -114 q 176 -79 182 -96 l 176 -79 q 139 -194 156 -136 q 92 -306 121 -253 l 92 -306 q 43 -325 72 -319 q -14 -322 14 -332 q -54 -288 -42 -313 q -67 -235 -67 -264 l -67 -235 q -48 -140 -67 -196 l -48 -140 q -2 -12 -20 -57 q 20 47 15 33 q 30 75 25 60 l 30 75 q 63 170 52 133 q 82 233 73 206 l 82 233 l 82 234 q 114 328 92 278 q 143 388 135 377 l 143 388 q 178 409 160 405 q 219 414 196 413 l 219 414 l 222 414 z m 317 242 l 317 242 q 277 203 305 221 l 277 203 l 268 182 q 249 129 258 156 q 229 76 240 102 l 229 76 q 244 57 239 66 l 244 57 q 346 186 300 106 l 346 186 q 370 252 364 219 q 372 294 375 285 q 363 303 369 303 q 350 300 356 303 q 340 293 343 296 q 340 292 336 289 l 340 292 q 324 270 329 279 q 317 242 319 260 z"},"q":{"ha":576,"x_min":-17,"x_max":592,"o":"m 122 385 l 122 385 q 208 433 160 412 q 299 463 255 454 q 377 464 343 471 q 422 429 411 457 l 422 429 q 424 431 424 434 q 424 425 424 428 q 424 421 423 422 q 424 419 424 420 l 424 419 q 442 428 426 424 l 442 428 q 476 442 472 437 l 476 442 q 496 470 478 466 q 535 466 514 474 q 574 440 556 457 q 592 403 591 422 l 592 403 q 577 356 591 400 q 540 250 562 311 q 500 144 518 189 q 468 64 482 99 q 441 -8 453 28 l 441 -8 q 394 -188 413 -92 l 394 -188 q 389 -201 393 -206 q 381 -182 385 -196 l 381 -182 q 379 -133 369 -139 l 379 -133 q 504 -118 477 -83 l 504 -118 q 510 -160 515 -133 q 488 -215 504 -187 q 446 -270 471 -244 q 391 -309 420 -296 l 391 -309 q 277 -304 332 -329 l 277 -304 q 248 -291 262 -298 l 248 -291 q 188 -203 193 -265 l 188 -203 q 192 -122 184 -149 q 207 -77 199 -96 q 225 -32 215 -59 l 225 -32 q 130 -74 210 -69 l 130 -74 q 21 -50 52 -79 l 21 -50 q -17 9 -14 -15 l -17 9 q 4 224 -40 113 l 4 224 q 122 385 47 330 z m 265 154 l 265 154 q 277 181 270 166 q 285 209 284 195 q 288 235 286 222 l 288 235 l 286 235 q 208 216 226 227 q 178 189 189 204 q 161 160 167 173 q 152 139 154 146 q 148 123 149 132 l 148 123 q 153 93 144 99 q 170 87 161 87 q 187 88 178 87 l 187 88 q 265 154 241 98 z"},"r":{"ha":397,"x_min":-11,"x_max":436,"o":"m 104 414 q 144 469 118 450 q 193 492 169 487 q 232 486 216 496 q 242 455 247 476 l 242 455 q 297 490 261 474 q 354 512 333 506 q 390 518 375 518 l 390 518 q 409 482 423 516 l 409 482 q 434 460 426 479 q 436 418 442 441 q 409 373 430 395 q 353 343 388 351 q 294 307 317 335 q 252 236 270 278 l 252 236 q 198 35 222 165 l 198 35 q 133 -44 190 -12 l 133 -44 q 34 -62 79 -75 l 34 -62 q -11 13 -17 -48 l -11 13 q 15 128 -9 56 q 52 236 39 199 q 70 291 65 272 l 70 291 l 104 414 z"},"s":{"ha":506,"x_min":-36,"x_max":476,"o":"m 361 -24 l 361 -24 q 269 -72 322 -56 q 161 -90 215 -89 q 60 -77 107 -91 q -14 -33 13 -63 l -14 -33 q -36 35 -46 1 l -36 35 q -18 57 -31 49 q 12 61 -6 65 l 12 61 q 30 68 24 60 q 39 85 35 75 q 48 103 43 94 q 64 111 53 111 l 64 111 q 247 142 240 106 l 247 142 q 218 161 235 153 q 182 177 200 169 l 182 177 q 123 221 138 197 l 123 221 q 94 269 104 231 l 94 269 q 89 304 89 286 q 95 337 89 322 l 95 337 q 143 423 92 376 l 143 423 q 178 451 157 436 q 241 480 199 466 q 325 501 283 494 q 400 505 366 507 q 448 489 433 503 q 471 454 462 475 q 476 413 479 433 l 476 413 q 402 351 468 368 l 402 351 q 322 329 319 339 l 322 329 q 315 324 322 327 l 315 324 q 422 220 392 271 l 422 220 q 434 64 463 150 l 434 64 q 384 -6 439 36 l 384 -6 q 361 -24 371 -16 z"},"t":{"ha":436,"x_min":11,"x_max":514,"o":"m 271 748 l 271 748 l 272 752 l 281 761 q 305 792 292 787 l 305 792 q 323 797 312 794 q 352 812 334 800 l 352 812 q 381 825 359 826 q 425 811 403 823 q 460 776 446 798 q 466 731 473 754 q 455 696 459 707 q 446 674 450 684 q 435 652 441 664 q 418 618 428 639 l 418 618 l 385 549 q 377 534 380 536 q 370 527 373 532 l 370 527 q 385 530 379 529 q 397 532 391 531 l 397 532 q 429 536 411 534 l 429 536 q 448 534 440 534 l 448 534 l 462 534 q 491 528 474 534 q 513 505 508 521 q 514 473 518 489 q 498 442 510 456 q 467 427 486 428 l 467 427 q 343 401 380 403 l 343 401 l 337 394 l 337 393 q 316 333 327 369 q 291 254 304 296 q 263 166 277 211 q 234 78 249 120 l 234 78 q 164 -75 186 -63 l 164 -75 q 148 -80 156 -79 q 138 -83 139 -82 l 138 -83 q 80 -69 103 -81 q 49 -46 57 -57 q 45 -21 41 -35 l 45 -21 q 121 360 64 153 l 121 360 q 93 356 101 360 l 93 356 q 57 347 78 348 l 57 347 l 56 347 q 27 362 40 348 q 11 394 14 376 q 17 431 8 412 q 53 461 26 450 l 53 461 q 100 476 85 470 l 100 476 q 149 493 129 488 q 171 500 168 498 q 174 502 173 501 l 174 502 q 189 504 177 504 l 189 504 q 201 563 195 533 q 216 624 207 593 l 216 624 q 271 748 236 696 z"},"u":{"ha":606,"x_min":5,"x_max":657,"o":"m 130 439 l 130 439 q 193 471 158 466 q 254 463 227 475 q 293 425 280 451 q 289 364 305 398 l 289 364 q 235 256 255 314 q 198 139 215 198 l 198 139 q 352 312 290 197 l 352 312 q 391 381 370 346 l 391 381 l 406 409 l 436 457 q 457 482 442 476 q 490 487 472 487 q 525 487 507 487 q 558 496 543 486 q 594 504 573 506 q 631 490 614 501 q 656 464 647 479 q 657 433 664 448 l 657 433 q 542 98 615 343 l 542 98 q 510 6 525 43 l 510 6 q 447 -36 485 -25 q 376 -42 409 -47 q 322 -19 342 -38 q 313 27 302 -1 l 313 27 q 255 -15 285 4 q 183 -40 225 -34 q 101 -36 140 -46 q 35 0 62 -27 q 5 72 7 27 l 5 72 q 130 439 -1 230 z"},"v":{"ha":509,"x_min":32,"x_max":566,"o":"m 221 444 l 221 444 q 230 324 226 384 q 242 203 234 263 l 242 203 q 276 281 260 240 q 309 362 291 322 l 309 362 q 404 500 352 456 l 404 500 q 500 535 436 535 l 500 535 q 548 511 538 535 l 548 511 q 545 479 553 499 l 545 479 q 566 398 594 444 l 566 398 q 550 376 558 386 l 550 376 q 471 243 507 304 l 471 243 q 365 70 412 142 l 365 70 q 321 17 349 46 q 258 -34 292 -13 l 258 -34 q 131 -53 178 -86 l 131 -53 q 73 -33 100 -49 q 32 9 46 -17 l 32 9 q 42 261 11 64 l 42 261 q 51 327 49 305 q 56 367 53 349 q 61 401 59 385 q 65 434 63 417 q 74 464 67 450 l 74 464 q 136 499 91 496 l 136 499 l 148 499 q 182 490 166 495 l 182 490 q 218 452 209 480 l 218 452 q 221 444 219 449 z"},"w":{"ha":709,"x_min":1,"x_max":743,"o":"m 475 365 l 475 365 q 464 289 468 307 q 458 255 460 270 l 458 255 q 463 252 457 247 q 478 271 468 257 q 499 303 487 284 q 522 342 511 322 l 522 342 q 551 415 547 390 l 551 415 q 551 423 550 419 q 549 438 551 426 q 550 466 546 449 q 565 495 554 483 l 565 495 q 636 515 589 521 l 636 515 q 693 505 678 513 l 693 505 q 743 451 720 490 l 743 451 q 730 342 754 427 l 730 342 q 636 98 701 235 l 636 98 q 602 37 618 62 q 556 -5 586 12 q 492 -29 526 -22 l 492 -29 q 365 -15 417 -44 l 365 -15 q 349 -3 357 -8 q 330 16 341 2 l 330 16 q 290 147 295 63 l 290 147 q 254 66 275 96 l 254 66 q 176 -18 222 24 l 176 -18 q 64 -42 127 -47 l 64 -42 q 27 -33 43 -41 l 27 -33 q 7 -12 13 -21 q 1 22 1 -4 l 1 22 q 25 152 1 68 l 25 152 q 40 205 31 174 q 56 269 48 236 l 56 269 q 81 391 78 366 q 85 424 83 415 l 85 424 q 113 450 94 441 q 153 459 132 459 q 190 449 173 459 q 213 418 207 439 l 213 418 l 214 418 l 214 417 q 244 303 244 361 l 244 303 q 292 357 271 339 q 332 382 312 374 l 332 382 q 378 395 362 393 q 411 401 393 397 q 446 404 429 404 l 446 404 q 475 365 485 402 z"},"x":{"ha":467,"x_min":-17,"x_max":520,"o":"m 360 447 q 395 476 385 466 q 416 495 405 486 q 437 506 427 504 q 460 505 447 508 q 483 498 472 501 q 495 494 493 495 l 495 494 q 513 465 506 483 q 520 437 520 447 q 514 419 520 427 l 514 419 q 408 272 494 367 l 408 272 q 371 233 387 248 l 371 233 q 384 154 380 203 l 384 154 q 397 38 394 53 q 401 16 400 23 q 407 2 402 9 l 407 2 q 397 -25 411 -15 q 360 -40 382 -35 l 360 -40 q 282 -43 314 -51 l 282 -43 q 259 -13 266 -31 l 259 -13 q 228 74 249 8 l 228 74 q 207 50 217 62 q 187 26 197 38 l 187 26 l 173 7 q 162 -9 167 -1 q 149 -26 156 -17 l 149 -26 q 107 -59 135 -42 l 107 -59 q 57 -69 80 -70 l 57 -69 q 10 -46 14 -66 l 10 -46 q -17 -21 -13 -38 q -12 31 -21 -5 l -12 31 q 147 255 78 195 l 147 255 q 133 298 138 269 l 133 298 q 113 368 122 352 l 113 368 q 77 394 88 375 q 83 447 66 413 l 83 447 l 95 461 q 176 503 134 496 q 252 483 217 510 l 252 483 q 309 427 278 473 l 309 427 q 319 407 317 415 l 319 407 q 360 447 334 427 z"},"y":{"ha":570,"x_min":26,"x_max":594,"o":"m 37 306 q 30 373 37 347 q 31 417 23 399 q 55 441 38 434 q 94 446 71 448 q 138 432 116 443 l 138 432 q 212 364 191 408 l 212 364 q 209 310 217 342 q 189 243 200 277 q 168 176 178 208 q 160 121 158 143 l 160 121 q 206 169 186 137 q 242 238 225 201 q 273 310 258 274 q 301 367 287 346 q 322 401 314 388 q 338 423 330 413 l 338 423 q 372 456 351 440 l 372 456 q 409 455 378 461 q 454 446 439 448 q 473 447 468 443 l 473 447 l 487 457 q 553 456 515 471 l 553 456 q 592 407 590 440 l 592 407 q 591 403 591 406 l 591 403 l 594 402 l 587 396 q 577 379 580 383 q 562 365 573 374 l 562 365 q 406 94 494 292 l 406 94 q 366 6 384 45 l 366 6 q 407 -38 393 -11 q 407 -97 421 -65 l 407 -97 q 314 -221 324 -163 l 314 -221 q 302 -272 309 -257 q 278 -301 294 -287 l 278 -301 q 151 -281 224 -341 l 151 -281 q 146 -151 99 -229 l 146 -151 q 169 -107 158 -130 l 169 -107 q 220 -6 185 -73 l 220 -6 q 62 -4 134 -56 l 62 -4 q 26 173 11 35 l 26 173 q 37 306 36 265 z"},"z":{"ha":518,"x_min":2,"x_max":534,"o":"m 326 147 l 272 97 q 337 101 302 105 q 398 81 372 97 q 434 37 424 65 q 421 -30 443 9 l 421 -30 q 377 -37 410 -31 q 299 -50 343 -43 q 205 -63 254 -57 q 112 -70 155 -69 l 112 -70 q 2 -47 13 -74 l 2 -47 q 88 166 -37 40 l 88 166 q 149 225 121 198 q 195 270 177 251 q 207 298 212 289 l 207 298 q 184 304 188 302 l 184 304 q 150 313 177 309 q 108 332 122 316 q 96 368 93 347 q 116 410 98 388 q 163 447 133 431 q 228 474 193 463 q 298 492 262 485 l 298 492 q 440 510 358 505 l 440 510 q 456 503 451 510 q 464 487 460 495 q 475 472 468 478 q 501 468 481 465 q 530 451 521 470 q 534 402 538 431 q 515 343 530 373 q 476 294 500 312 l 476 294 q 326 147 356 174 l 326 147 z m 48 78 l 48 78 q 48 78 49 79 q 45 76 47 77 l 45 76 q 48 78 46 76 z"},"{":{"ha":506,"x_min":29,"x_max":558,"o":"m 428 831 l 428 831 l 467 830 q 486 826 469 830 q 527 808 503 821 q 558 778 550 794 l 558 778 q 507 705 574 741 l 507 705 q 466 695 498 702 l 466 695 q 482 699 472 696 l 482 699 q 453 651 458 677 q 447 597 447 624 q 445 541 446 569 q 429 486 444 513 q 399 438 413 458 q 370 402 385 417 l 370 402 q 291 358 345 377 l 291 358 q 296 339 303 351 q 284 317 288 326 q 282 290 279 308 q 280 246 285 271 q 266 198 274 221 q 251 152 258 174 q 244 108 243 129 l 244 108 q 298 30 245 62 l 298 30 q 368 -19 351 0 l 368 -19 q 389 -94 400 -55 l 389 -94 q 354 -127 376 -115 q 311 -143 331 -139 l 311 -143 q 222 -142 280 -149 l 222 -142 q 177 -127 192 -136 l 177 -127 q 98 -60 146 -113 l 98 -60 q 45 25 50 -8 q 52 91 39 58 q 75 145 65 123 q 99 190 85 166 q 124 240 113 214 l 124 240 q 118 322 150 305 l 118 322 q 111 324 117 322 q 96 328 105 326 l 96 328 q 65 341 81 333 l 65 341 q 30 358 35 348 l 30 358 q 46 397 19 377 l 46 397 q 100 409 75 411 l 100 409 q 264 474 216 430 l 264 474 q 285 510 283 491 q 283 545 286 528 l 283 545 q 281 538 286 531 l 281 538 q 250 636 260 576 l 250 636 q 276 752 239 703 l 276 752 q 316 795 304 788 q 339 805 328 801 l 339 805 q 410 830 364 822 l 410 830 q 428 831 419 831 z"},"|":{"ha":421,"x_min":19,"x_max":402,"o":"m 196 754 q 207 797 200 778 q 229 832 214 815 q 265 865 244 849 q 306 886 286 880 l 306 886 q 356 858 351 902 l 356 858 q 370 846 360 847 q 388 841 379 844 l 388 841 q 402 786 408 834 l 402 786 q 376 631 390 721 q 338 432 362 540 l 338 432 q 189 -47 280 162 l 189 -47 q 175 -75 183 -58 q 152 -108 166 -93 l 152 -108 q 68 -129 119 -145 l 68 -129 q 44 -79 68 -107 q 19 -27 19 -51 l 19 -27 q 142 460 92 216 l 142 460 q 185 686 178 642 q 196 754 191 730 z"},"}":{"ha":582,"x_min":34,"x_max":541,"o":"m 328 -38 q 313 -64 322 -51 q 293 -91 304 -78 q 273 -110 282 -105 q 253 -120 264 -115 l 253 -120 q 183 -148 229 -138 l 183 -148 q 155 -151 169 -151 l 155 -151 l 127 -151 q 75 -135 107 -151 q 34 -102 43 -119 l 34 -102 q 81 -28 15 -65 l 81 -28 q 101 -22 88 -26 q 121 -16 113 -19 l 121 -16 q 106 -21 116 -18 l 106 -21 q 130 28 128 2 q 127 82 131 54 q 119 137 122 109 q 128 190 115 164 l 128 190 q 213 282 159 251 q 332 329 267 312 l 332 329 q 292 484 263 370 l 292 484 q 305 532 298 508 q 318 578 312 555 l 318 578 q 314 610 312 593 q 315 636 316 627 q 304 655 313 644 l 304 655 q 282 672 293 663 q 258 688 270 680 l 258 688 q 162 738 179 691 l 162 738 q 161 776 156 755 l 161 776 q 232 828 187 818 q 326 832 277 837 l 326 832 q 349 828 340 829 q 372 819 357 826 q 404 799 387 812 q 436 770 421 786 l 436 770 q 476 700 470 732 l 476 700 q 495 615 494 656 q 487 555 495 574 q 471 521 478 535 q 456 490 464 507 q 442 455 448 473 q 432 421 435 437 l 432 421 q 451 373 427 384 l 451 373 q 468 369 454 373 q 490 363 481 365 q 505 357 499 360 l 505 357 q 541 341 535 350 l 541 341 q 527 301 552 323 l 527 301 q 473 287 499 287 l 473 287 q 363 250 397 268 l 363 250 q 294 174 296 214 l 294 174 q 297 142 292 161 l 297 142 q 299 150 294 154 l 299 150 q 334 52 318 121 l 334 52 q 337 0 340 26 q 328 -38 333 -26 z"},"~":{"ha":464,"x_min":3,"x_max":459,"o":"m 74 457 l 74 457 l 82 459 l 108 480 q 207 506 171 521 l 207 506 q 239 490 226 500 q 256 463 251 479 q 267 439 261 447 q 281 416 272 430 q 301 390 289 401 l 301 390 q 351 404 326 391 l 351 404 l 368 420 q 385 437 376 429 l 385 437 q 429 452 413 455 q 452 438 445 448 q 459 405 459 427 l 459 405 q 415 340 455 373 l 415 340 q 345 277 367 287 l 345 277 q 263 270 309 258 l 263 270 q 241 283 252 272 l 241 283 l 218 306 q 164 330 188 336 l 164 330 q 137 306 150 319 q 112 282 124 293 l 112 282 q 64 265 82 258 q 38 282 46 272 l 38 282 q 5 316 13 294 q 3 363 -3 338 l 3 363 q 74 457 16 418 z m 66 446 l 53 439 q 55 439 50 436 q 66 446 59 442 l 66 446 z"},"¡":{"ha":370,"x_min":32,"x_max":522,"o":"m 49 -55 l 49 -55 q 40 -38 45 -43 q 33 -32 35 -34 l 33 -32 q 38 -14 28 -27 l 38 -14 q 63 28 47 4 l 63 28 q 100 91 92 71 l 100 91 q 164 242 141 173 q 203 365 187 310 q 234 462 219 420 l 234 462 q 276 535 252 511 l 276 535 q 319 562 288 555 q 382 565 350 569 q 437 544 414 560 q 453 502 459 528 l 453 502 q 420 344 442 408 q 381 238 397 280 q 352 163 364 196 q 330 105 340 129 q 305 53 319 80 q 275 -3 291 25 q 241 -56 258 -32 l 241 -56 q 175 -121 202 -111 q 121 -134 148 -132 q 73 -128 93 -136 q 44 -102 52 -120 q 49 -55 36 -84 z m 288 699 l 288 699 q 334 760 299 740 q 407 782 368 781 q 480 767 446 784 q 521 716 513 751 q 511 658 530 682 q 464 626 491 633 q 401 615 437 618 q 334 619 364 612 q 288 645 304 626 q 288 699 272 664 z"},"¢":{"ha":491,"x_min":12,"x_max":459,"o":"m 397 485 l 397 485 q 458 435 446 474 l 458 435 q 454 369 470 398 l 454 369 q 409 348 436 338 l 409 348 q 387 310 402 321 q 353 293 372 298 q 314 284 334 288 q 277 265 294 279 q 249 241 260 251 q 232 221 238 230 l 232 221 q 212 176 220 205 l 212 176 q 234 135 210 155 l 234 135 q 293 117 260 114 q 345 114 325 119 q 374 98 364 108 l 374 98 q 370 45 396 75 l 370 45 q 202 -50 320 -35 l 202 -50 q 132 -52 167 -55 q 64 -26 97 -50 q 12 39 31 -2 l 12 39 q 18 258 -31 133 l 18 258 q 162 442 65 377 l 162 442 q 397 485 267 514 z m 232 524 q 247 553 239 540 q 271 584 254 565 q 305 623 287 602 q 351 645 322 643 l 351 645 q 380 635 364 637 q 410 629 396 633 q 431 616 423 625 q 436 585 439 607 l 436 585 q 317 422 371 499 q 231 267 263 344 q 194 111 199 190 q 221 -58 188 31 l 221 -58 q 206 -83 216 -66 q 180 -116 195 -100 l 180 -116 q 103 -145 140 -157 l 103 -145 q 75 -152 83 -157 q 65 -133 67 -147 q 64 -102 62 -119 q 68 -44 66 -85 q 82 63 70 -4 q 112 193 94 129 l 112 193 q 174 378 140 292 q 217 486 208 464 q 232 524 225 507 z"},"£":{"ha":579,"x_min":-36,"x_max":714,"o":"m 532 466 l 532 466 q 568 402 581 437 q 492 340 555 367 l 492 340 q 482 337 487 338 q 472 333 477 335 l 472 333 q 426 277 488 291 l 426 277 q 300 270 396 270 l 300 270 l 288 270 q 281 236 287 269 q 268 176 274 202 l 268 176 q 234 75 255 120 l 234 75 l 299 71 q 514 57 444 86 l 514 57 q 554 -9 567 25 l 554 -9 q 484 -56 541 -41 l 484 -56 q 378 -57 433 -46 q 265 -82 322 -68 q 152 -105 208 -96 q 44 -99 96 -114 l 44 -99 q -29 -27 -31 -76 l -29 -27 q -36 4 -41 -13 q -21 29 -31 20 q 0 42 -12 37 l 0 42 q 54 58 18 51 l 54 58 q 90 67 70 64 l 90 67 q 119 115 108 77 l 119 115 q 144 262 137 177 l 144 262 q 95 260 119 260 q 46 262 71 260 l 46 262 q -10 288 5 269 l -10 288 q 6 338 -29 310 l 6 338 q 155 391 52 359 l 155 391 q 192 580 166 488 q 277 752 218 672 l 277 752 q 357 824 314 800 q 451 854 400 847 q 551 851 502 860 q 641 814 600 841 q 699 748 681 787 q 714 683 716 708 q 697 642 711 658 q 660 619 682 626 q 612 613 637 611 l 612 613 q 529 658 556 618 l 529 658 q 508 674 529 664 l 508 674 q 466 696 466 692 l 466 696 q 379 586 409 648 q 328 454 348 523 l 328 454 q 418 481 387 475 q 477 481 449 487 q 532 466 505 475 z"},"¥":{"ha":491,"x_min":-87,"x_max":596,"o":"m 120 379 l 120 379 q 106 615 103 524 l 106 615 q 141 697 104 658 l 141 697 q 214 738 176 734 l 214 738 q 268 691 256 741 l 268 691 q 288 626 276 663 q 311 548 300 589 l 311 548 q 346 601 322 563 q 391 669 370 639 l 391 669 q 481 771 442 742 l 481 771 q 547 780 519 786 q 587 759 574 773 q 596 718 599 745 l 596 718 q 500 520 594 655 l 500 520 q 456 448 478 489 q 404 357 433 407 q 347 256 374 306 l 347 256 q 250 41 285 143 l 250 41 q 258 37 251 43 q 271 18 265 30 l 271 18 q 268 -32 287 -12 l 268 -32 q 149 -88 220 -82 l 149 -88 q 37 -64 84 -93 l 37 -64 q 6 3 -10 -37 l 6 3 l 3 3 q 53 111 25 60 q 111 215 81 161 l 111 215 l 156 295 q 128 319 139 291 l 128 319 q 120 379 120 342 z m 183 131 q 108 127 146 129 q 22 121 70 124 q -52 130 -26 118 q -86 158 -79 141 q -81 193 -94 175 q -27 222 -69 210 q 67 239 14 233 q 175 246 120 244 q 285 248 230 247 q 385 254 340 248 q 455 255 430 259 q 491 240 479 250 q 502 215 503 229 q 486 186 501 200 l 486 186 q 376 141 451 152 l 376 141 q 263 136 307 138 q 183 131 219 133 z m 441 433 l 441 433 q 533 411 504 428 q 557 375 561 394 q 518 340 553 355 q 418 325 482 325 l 418 325 q 398 326 410 326 l 398 326 l 379 326 q 381 327 373 326 q 421 327 388 327 l 421 327 q 413 328 432 327 l 413 328 q 369 327 380 330 l 369 327 l 356 326 q 165 286 319 284 l 165 286 q 100 289 127 287 l 100 289 q 26 318 48 297 l 26 318 q 15 337 15 327 q 28 357 15 347 l 28 357 q 83 386 35 376 l 83 386 q 137 398 108 394 q 210 408 166 401 l 210 408 q 441 433 351 430 z"},"¨":{"ha":500,"x_min":75,"x_max":475,"o":"m 252 662 q 222 626 242 641 q 180 604 202 610 q 150 597 158 597 q 120 601 142 597 l 120 601 l 119 601 l 117 603 q 75 643 81 619 q 82 690 69 667 q 119 731 94 713 q 161 753 143 749 q 185 757 178 756 q 197 756 191 757 q 209 754 202 755 q 224 750 215 752 l 224 750 l 227 747 q 252 662 276 710 l 252 662 z m 475 681 q 445 639 465 657 q 404 613 424 620 q 377 605 383 605 q 343 610 371 605 l 343 610 l 342 610 q 339 612 341 610 l 339 612 q 297 660 303 631 q 304 715 291 688 q 341 764 316 742 q 383 789 365 785 q 407 793 400 792 q 419 792 413 793 l 419 792 q 447 785 426 792 l 447 785 q 475 681 497 735 l 475 681 z"},"©":{"ha":867,"x_min":33,"x_max":843,"o":"m 830 350 l 830 350 q 655 53 808 133 l 655 53 q 355 0 539 -8 l 355 0 q 178 50 269 -2 l 178 50 q 56 161 90 100 l 56 161 q 34 270 35 224 l 34 270 q 85 551 28 434 l 85 551 q 170 654 121 626 l 170 654 q 371 747 292 727 l 371 747 q 450 755 407 756 q 537 750 493 753 q 622 735 581 746 l 622 735 q 777 646 708 712 l 777 646 q 842 428 858 570 l 842 428 q 830 350 838 387 z m 404 126 l 404 126 q 492 138 447 124 q 574 176 536 151 q 642 233 611 200 q 694 300 673 265 l 694 300 q 739 436 739 374 l 739 436 q 688 593 739 530 l 688 593 q 657 622 671 615 q 640 630 643 628 q 633 634 637 632 l 633 634 q 602 607 625 614 q 531 598 578 599 l 531 598 q 432 602 464 605 q 355 571 400 598 q 274 504 310 544 q 214 414 237 464 q 189 313 190 364 l 189 313 q 250 178 175 232 l 250 178 q 404 126 314 132 z m 524 372 l 524 372 q 488 384 518 372 l 488 384 q 456 339 461 362 l 456 339 q 446 325 454 330 l 446 325 l 445 324 q 460 273 436 284 l 460 273 q 500 266 476 266 l 500 266 l 501 266 q 506 271 504 268 l 506 271 q 544 282 516 278 l 544 282 q 602 257 589 282 l 602 257 q 602 234 606 248 l 602 234 q 555 198 586 208 l 555 198 q 381 182 470 149 l 381 182 q 288 263 313 206 l 288 263 q 310 398 265 318 l 310 398 q 357 458 329 432 l 357 458 q 464 526 403 508 l 464 526 q 582 520 526 543 l 582 520 q 635 502 613 515 q 652 463 656 489 l 652 463 l 655 461 q 640 402 656 423 q 600 372 624 380 l 600 372 q 524 372 565 350 z m 590 227 l 588 223 l 591 227 l 590 227 z m 505 267 l 505 267 l 504 267 q 505 267 505 268 z"},"«":{"ha":733,"x_min":3,"x_max":710,"o":"m 260 567 l 260 567 q 281 573 274 571 q 299 572 287 575 q 322 559 311 568 q 340 538 333 550 l 340 538 q 346 476 358 509 l 346 476 q 336 447 348 458 q 296 410 324 435 l 296 410 q 150 297 213 336 l 150 297 q 161 273 148 287 q 194 242 174 259 l 194 242 q 276 157 252 189 l 276 157 q 252 115 281 123 l 252 115 q 239 113 245 113 l 239 113 q 188 111 224 103 q 126 129 152 118 q 76 158 100 140 l 76 158 q 3 269 19 201 l 3 269 q 9 294 3 280 q 7 325 15 307 l 7 325 q 48 398 7 359 l 48 398 q 65 415 58 407 l 65 415 q 160 499 114 457 q 260 567 206 541 z m 608 606 l 608 606 q 632 613 624 610 q 655 612 640 615 q 682 598 669 608 q 704 572 695 587 l 704 572 q 710 499 723 536 l 710 499 q 676 415 714 451 l 676 415 q 578 346 628 374 q 478 286 528 318 l 478 286 q 491 258 476 274 q 530 220 506 241 l 530 220 q 627 121 600 157 l 627 121 q 620 67 632 89 q 593 42 608 44 l 593 42 q 558 54 581 48 q 507 69 535 60 q 447 91 478 78 q 387 126 415 104 l 387 126 q 303 253 322 175 l 303 253 q 306 267 303 259 q 311 282 308 274 q 313 299 313 290 q 308 319 313 308 l 308 319 q 358 406 308 356 l 358 406 q 377 426 369 417 l 377 426 q 434 477 406 451 q 490 526 461 502 l 490 526 q 608 606 560 583 z"},"®":{"ha":973,"x_min":16,"x_max":939,"o":"m 123 504 l 123 504 q 186 578 159 548 q 234 625 213 608 q 277 657 255 641 l 277 657 q 305 691 291 680 l 305 691 q 397 743 359 721 q 471 778 435 765 l 471 778 q 644 783 540 803 l 644 783 q 770 726 710 771 q 871 616 829 681 q 933 472 913 551 q 939 310 952 392 l 939 310 q 878 146 925 213 l 878 146 q 826 84 855 114 q 761 17 797 54 l 761 17 q 594 -55 722 -22 l 594 -55 q 242 -78 385 -109 l 242 -78 q 166 -47 193 -68 q 115 -12 138 -27 q 76 26 91 3 l 76 26 q 55 65 65 46 q 33 105 44 84 q 21 152 22 125 q 17 203 19 179 q 18 254 14 227 q 30 306 22 280 l 30 306 q 123 504 70 437 z m 647 585 l 647 585 q 625 581 627 581 l 625 581 q 511 579 564 583 q 404 550 458 574 l 404 550 l 403 550 q 371 534 398 550 q 315 494 344 517 q 252 424 286 471 q 199 323 218 377 l 199 323 q 214 110 155 197 l 214 110 q 238 86 224 96 q 272 60 251 75 q 327 37 292 44 q 400 32 362 30 l 400 32 q 547 59 473 34 l 547 59 q 571 66 556 62 q 600 76 585 70 l 600 76 q 649 103 637 89 l 649 103 q 694 153 674 132 q 728 196 714 174 l 728 196 q 765 311 758 241 l 765 311 q 740 469 774 390 l 740 469 q 647 585 708 544 z m 662 302 l 662 302 q 615 262 637 274 l 615 262 q 550 236 579 244 l 550 236 q 562 223 556 229 q 574 209 567 216 q 591 193 581 201 q 608 174 600 184 l 608 174 q 617 124 626 148 l 617 124 q 584 103 604 111 l 584 103 q 527 121 552 96 l 527 121 q 523 126 523 124 q 519 130 522 128 l 519 130 l 522 128 q 489 164 504 146 l 489 164 l 475 179 q 444 144 465 156 l 444 144 q 360 112 416 108 l 360 112 q 317 126 337 113 q 289 162 297 138 l 289 162 q 295 237 286 198 l 295 237 q 296 275 292 250 q 299 305 299 300 q 306 330 299 310 l 306 330 q 374 441 327 392 l 374 441 q 429 488 403 471 q 476 515 455 505 l 476 515 q 518 532 502 528 l 518 532 q 556 545 544 544 q 577 543 568 545 q 597 540 586 541 q 615 539 608 539 q 634 534 621 539 l 634 534 q 698 450 692 502 l 698 450 q 662 302 724 382 z m 563 439 l 563 439 q 483 326 510 389 l 483 326 q 530 350 507 333 q 564 380 552 366 l 564 380 q 575 434 592 413 l 575 434 q 563 439 569 438 z m 317 -20 l 317 -20 q 529 -4 408 -34 l 529 -4 q 317 -20 420 -29 z m 513 137 l 511 140 l 513 137 z m 511 140 l 511 140 l 507 144 q 511 140 508 141 z"},"°":{"ha":464,"x_min":-7,"x_max":448,"o":"m 165 860 l 165 860 q 228 878 197 873 l 228 878 q 289 876 257 876 q 357 859 321 876 q 418 811 393 842 q 448 743 443 779 l 448 743 q 382 600 457 665 l 382 600 q 284 559 349 573 l 284 559 q 184 551 233 548 q 113 558 135 554 q 83 566 91 561 q 65 577 74 571 q 48 586 56 582 l 48 586 q -7 697 -12 623 l -7 697 q 39 806 -3 760 l 39 806 q 67 827 54 823 q 108 844 79 831 q 165 860 136 856 z m 265 708 l 265 708 q 216 701 248 704 l 216 701 q 198 703 209 703 q 177 704 187 703 l 177 704 q 163 654 154 677 l 163 654 q 177 640 166 646 q 206 637 188 634 q 238 648 223 639 l 238 648 q 266 703 272 669 l 266 703 q 265 708 265 704 z"},"´":{"ha":321,"x_min":67,"x_max":291,"o":"m 200 870 l 203 870 q 290 840 262 866 l 290 840 q 286 782 322 812 l 286 782 q 274 758 283 771 l 274 758 q 170 674 212 696 l 170 674 q 80 658 113 645 l 80 658 q 67 717 46 671 l 67 717 l 73 724 q 122 825 76 762 l 122 825 q 141 846 133 840 l 141 846 q 200 870 168 862 l 200 870 z"},"·":{"ha":235,"x_min":1,"x_max":212,"o":"m 212 260 q 177 218 200 236 q 130 192 153 199 q 98 184 106 184 q 57 189 90 184 l 57 189 l 56 189 q 53 191 55 189 l 53 191 q 1 256 1 215 l 1 256 q 38 328 1 292 l 38 328 q 146 372 88 376 l 146 372 q 179 364 153 371 l 179 364 q 183 361 182 361 l 183 361 q 212 260 240 317 l 212 260 z"},"¸":{"ha":403,"x_min":-13,"x_max":375,"o":"m 127 -162 l 127 -162 q 144 -161 137 -160 l 144 -161 l 145 -161 q 250 -142 221 -157 q 253 -113 278 -127 l 253 -113 q 201 -112 229 -113 q 150 -102 172 -111 l 150 -102 q 123 -17 98 -80 l 123 -17 q 146 17 135 4 l 146 17 q 171 48 154 30 l 171 48 q 222 64 197 69 l 222 64 q 235 19 248 58 l 235 19 l 230 13 q 227 3 232 14 q 216 -19 221 -8 l 216 -19 q 249 -27 231 -21 q 281 -36 266 -33 l 281 -36 q 318 -49 301 -43 q 348 -64 335 -55 l 348 -64 q 375 -128 373 -84 l 375 -128 q 341 -210 380 -168 l 341 -210 q 261 -269 321 -231 l 261 -269 q 92 -304 197 -305 l 92 -304 q 42 -297 63 -303 l 42 -297 q 3 -276 20 -295 q -13 -215 -15 -257 l -13 -215 q 5 -167 -2 -176 l 5 -167 q 50 -139 19 -148 l 50 -139 q 89 -135 78 -130 q 108 -147 100 -141 q 127 -162 115 -154 z"},"º":{"ha":323,"x_min":43,"x_max":336,"o":"m 196 846 l 196 846 q 240 866 222 860 l 240 866 q 277 866 257 865 q 309 855 296 866 l 309 855 q 336 734 351 815 l 336 734 q 255 583 321 653 l 255 583 q 183 537 230 554 l 183 537 q 115 525 150 525 l 115 525 q 92 529 104 527 q 73 532 80 530 q 62 538 66 533 q 54 548 58 543 q 47 558 50 553 q 43 564 44 563 l 43 564 q 45 671 22 600 l 45 671 q 115 798 72 755 l 115 798 q 129 808 122 804 q 153 825 135 812 q 196 846 171 837 z m 214 691 l 214 691 q 182 682 210 689 l 182 682 q 172 684 179 684 q 159 684 165 683 l 159 684 q 140 620 127 633 l 140 620 q 180 628 152 604 l 180 628 q 214 686 208 652 l 214 686 q 214 691 212 688 z"},"»":{"ha":770,"x_min":-12,"x_max":746,"o":"m 230 302 l 259 314 l 234 339 q 172 397 204 370 q 111 457 140 423 l 111 457 q 107 539 87 498 l 107 539 q 142 597 116 567 l 142 597 q 156 607 149 602 l 156 607 q 228 624 199 638 q 277 583 257 609 l 277 583 q 296 562 282 577 q 328 524 310 546 q 364 477 345 502 q 398 428 383 452 l 398 428 q 423 346 432 370 l 423 346 q 410 318 419 336 l 410 318 q 407 252 414 290 l 407 252 q 394 224 400 233 q 374 204 387 215 l 374 204 q 297 177 346 189 q 211 151 248 165 q 135 122 173 136 l 135 122 q -4 81 36 84 l -4 81 q -11 110 -6 92 q -11 137 -17 127 q -2 156 -6 147 q 11 181 2 165 q 51 217 20 196 q 117 254 82 237 q 183 284 151 271 q 230 302 215 296 l 230 302 z m 579 297 l 604 307 l 582 329 q 529 379 556 355 q 476 431 501 402 l 476 431 q 473 502 454 466 l 473 502 q 503 552 480 527 l 503 552 q 515 560 509 556 l 515 560 q 577 575 551 587 q 619 540 602 563 l 619 540 q 636 522 623 535 q 663 489 648 508 q 695 449 678 470 q 724 406 711 427 l 724 406 q 746 335 753 357 l 746 335 q 740 323 744 331 q 734 311 736 314 l 734 311 q 732 254 738 288 l 732 254 q 720 230 726 237 q 703 212 714 222 l 703 212 q 638 189 680 199 q 567 164 595 179 q 515 137 539 149 q 472 119 491 124 q 442 127 453 114 l 442 127 q 429 142 441 133 q 412 155 416 150 q 410 166 407 159 l 410 166 q 424 194 417 177 l 424 194 q 544 282 453 240 l 544 282 q 579 297 565 291 l 579 297 z"},"¿":{"ha":570,"x_min":-3,"x_max":569,"o":"m -3 130 l -3 130 q 146 347 -15 232 l 146 347 q 225 402 188 377 q 289 448 262 427 q 318 483 315 468 l 318 483 q 341 523 320 507 q 388 546 362 539 q 440 550 414 552 q 478 536 466 548 l 478 536 q 446 392 506 476 l 446 392 q 383 318 419 355 q 313 245 347 280 q 251 177 278 209 l 251 177 q 213 107 220 139 l 213 107 l 216 107 q 230 122 223 113 q 257 141 236 130 q 295 159 278 152 q 326 173 311 166 q 344 181 340 179 q 351 185 347 183 q 360 189 354 187 l 360 189 l 376 195 q 500 171 463 216 l 500 171 q 524 127 513 155 l 524 127 q 502 33 535 87 l 502 33 q 432 -38 474 -14 q 327 -79 390 -63 q 201 -96 263 -96 q 87 -77 139 -96 q 9 -16 35 -58 l 9 -16 q 3 25 -1 3 q 11 60 7 47 q 14 82 14 72 q 6 105 13 92 q -3 130 -1 117 z m 379 687 l 379 687 q 434 748 400 729 q 500 768 468 768 q 552 751 531 769 q 569 698 573 733 l 569 698 q 520 631 567 649 l 520 631 q 407 631 460 607 l 407 631 q 379 687 358 653 z"},"À":{"ha":564,"x_min":-23,"x_max":603,"o":"m 553 678 l 553 678 q 596 625 587 660 l 596 625 q 560 403 576 513 q 529 218 544 292 q 509 106 514 143 q 496 32 503 69 l 496 32 l 490 11 q 486 -9 488 0 q 482 -30 484 -19 l 482 -30 q 406 -62 454 -62 l 406 -62 q 325 -36 355 -62 l 325 -36 q 319 23 307 -22 l 319 23 q 326 70 324 41 q 329 117 327 98 l 329 117 l 329 119 q 275 91 299 108 q 245 69 251 73 q 229 62 239 64 q 211 58 219 59 l 211 58 q 185 52 192 57 l 185 52 q 81 -64 127 -52 l 81 -64 q 23 -68 52 -73 q -23 -34 -6 -64 l -23 -34 q -7 130 -55 -4 l -7 130 q 68 301 19 201 q 161 474 116 400 l 161 474 q 374 742 258 633 l 374 742 q 415 761 393 750 q 459 772 437 771 q 503 767 480 773 q 542 749 526 761 l 542 749 q 553 678 579 721 z m 377 472 l 339 415 q 297 305 318 355 q 261 216 276 254 l 261 216 l 340 219 q 358 346 348 283 q 377 472 368 409 l 377 472 z m 312 215 l 312 215 q 340 217 326 215 l 340 217 l 340 218 q 316 216 327 217 q 312 215 305 215 z m 391 959 l 392 960 q 426 1033 383 1009 l 426 1033 q 511 1046 464 1053 l 511 1046 q 566 1031 540 1045 q 603 991 592 1017 l 603 991 q 596 937 595 965 l 596 937 q 597 859 598 877 q 585 832 596 841 q 560 821 574 823 l 560 821 q 505 831 530 817 l 505 831 q 496 845 500 841 l 496 845 q 490 851 492 846 l 490 851 q 464 884 486 862 l 464 884 l 428 920 q 409 933 413 927 l 409 933 q 392 954 401 942 l 392 954 l 391 959 z"},"Á":{"ha":564,"x_min":-23,"x_max":654,"o":"m 553 678 l 553 678 q 596 625 587 660 l 596 625 q 560 403 576 513 q 529 218 544 292 q 509 106 514 143 q 496 32 503 69 l 496 32 l 490 11 q 486 -9 488 0 q 482 -30 484 -19 l 482 -30 q 406 -62 454 -62 l 406 -62 q 325 -36 355 -62 l 325 -36 q 319 23 307 -22 l 319 23 q 326 70 324 41 q 329 117 327 98 l 329 117 l 329 119 q 275 91 299 108 q 245 69 251 73 q 229 62 239 64 q 211 58 219 59 l 211 58 q 185 52 192 57 l 185 52 q 81 -64 127 -52 l 81 -64 q 23 -68 52 -73 q -23 -34 -6 -64 l -23 -34 q -7 130 -55 -4 l -7 130 q 68 301 19 201 q 161 474 116 400 l 161 474 q 374 742 258 633 l 374 742 q 415 761 393 750 q 459 772 437 771 q 503 767 480 773 q 542 749 526 761 l 542 749 q 553 678 579 721 z m 377 472 l 339 415 q 297 305 318 355 q 261 216 276 254 l 261 216 l 340 219 q 358 346 348 283 q 377 472 368 409 l 377 472 z m 312 215 l 312 215 q 340 217 326 215 l 340 217 l 340 218 q 316 216 327 217 q 312 215 305 215 z m 563 1073 l 566 1073 q 653 1043 625 1069 l 653 1043 q 649 985 685 1015 l 649 985 q 637 961 646 974 l 637 961 q 533 877 575 899 l 533 877 q 443 861 476 848 l 443 861 q 430 920 409 874 l 430 920 l 436 927 q 485 1028 439 965 l 485 1028 q 504 1049 496 1043 l 504 1049 q 563 1073 531 1065 l 563 1073 z"},"Â":{"ha":564,"x_min":-23,"x_max":685,"o":"m 553 678 l 553 678 q 596 625 587 660 l 596 625 q 560 403 576 513 q 529 218 544 292 q 509 106 514 143 q 496 32 503 69 l 496 32 l 490 11 q 486 -9 488 0 q 482 -30 484 -19 l 482 -30 q 406 -62 454 -62 l 406 -62 q 325 -36 355 -62 l 325 -36 q 319 23 307 -22 l 319 23 q 326 70 324 41 q 329 117 327 98 l 329 117 l 329 119 q 275 91 299 108 q 245 69 251 73 q 229 62 239 64 q 211 58 219 59 l 211 58 q 185 52 192 57 l 185 52 q 81 -64 127 -52 l 81 -64 q 23 -68 52 -73 q -23 -34 -6 -64 l -23 -34 q -7 130 -55 -4 l -7 130 q 68 301 19 201 q 161 474 116 400 l 161 474 q 374 742 258 633 l 374 742 q 415 761 393 750 q 459 772 437 771 q 503 767 480 773 q 542 749 526 761 l 542 749 q 553 678 579 721 z m 377 472 l 339 415 q 297 305 318 355 q 261 216 276 254 l 261 216 l 340 219 q 358 346 348 283 q 377 472 368 409 l 377 472 z m 312 215 l 312 215 q 340 217 326 215 l 340 217 l 340 218 q 316 216 327 217 q 312 215 305 215 z m 580 810 l 580 810 q 585 839 580 822 l 585 839 q 575 874 583 859 q 558 904 566 889 l 558 904 q 487 822 511 846 l 487 822 q 405 779 447 790 l 405 779 q 337 778 359 761 l 337 778 q 326 801 326 785 q 341 840 326 816 l 341 840 q 469 985 429 945 q 532 1046 509 1025 q 572 1083 554 1066 q 610 1108 589 1099 l 610 1108 q 683 1107 663 1131 l 683 1107 q 663 1059 689 1085 l 663 1059 l 663 1044 q 674 936 674 996 l 674 936 q 683 903 678 921 q 685 866 687 885 l 685 866 q 634 803 680 823 l 634 803 q 601 796 615 796 q 580 810 586 796 z"},"Ã":{"ha":564,"x_min":-23,"x_max":704,"o":"m 553 678 l 553 678 q 596 625 587 660 l 596 625 q 560 403 576 513 q 529 218 544 292 q 509 106 514 143 q 496 32 503 69 l 496 32 l 490 11 q 486 -9 488 0 q 482 -30 484 -19 l 482 -30 q 406 -62 454 -62 l 406 -62 q 325 -36 355 -62 l 325 -36 q 319 23 307 -22 l 319 23 q 326 70 324 41 q 329 117 327 98 l 329 117 l 329 119 q 275 91 299 108 q 245 69 251 73 q 229 62 239 64 q 211 58 219 59 l 211 58 q 185 52 192 57 l 185 52 q 81 -64 127 -52 l 81 -64 q 23 -68 52 -73 q -23 -34 -6 -64 l -23 -34 q -7 130 -55 -4 l -7 130 q 68 301 19 201 q 161 474 116 400 l 161 474 q 374 742 258 633 l 374 742 q 415 761 393 750 q 459 772 437 771 q 503 767 480 773 q 542 749 526 761 l 542 749 q 553 678 579 721 z m 377 472 l 339 415 q 297 305 318 355 q 261 216 276 254 l 261 216 l 340 219 q 358 346 348 283 q 377 472 368 409 l 377 472 z m 312 215 l 312 215 q 340 217 326 215 l 340 217 l 340 218 q 316 216 327 217 q 312 215 305 215 z m 338 869 l 338 869 q 370 913 347 889 q 417 948 392 937 l 417 948 l 440 965 q 523 987 495 999 l 523 987 q 546 974 537 982 q 556 946 554 966 l 556 946 q 557 935 553 942 q 566 917 561 928 q 577 896 570 905 l 577 896 q 619 908 598 899 l 619 908 q 635 922 627 915 q 653 936 643 929 q 673 946 662 942 q 692 948 684 949 l 692 948 q 704 912 711 944 l 704 912 q 659 859 695 886 l 659 859 q 599 812 616 818 l 599 812 q 538 810 574 802 l 538 810 q 522 819 530 811 q 503 834 513 826 l 503 834 q 460 846 479 852 l 460 846 q 435 827 448 837 q 410 807 422 816 l 410 807 q 368 793 383 786 l 368 793 q 351 805 359 797 l 351 805 q 338 869 317 822 z m 402 937 l 391 931 q 392 931 388 928 q 402 937 395 933 l 402 937 z"},"Ä":{"ha":564,"x_min":-23,"x_max":708,"o":"m 553 678 l 553 678 q 596 625 587 660 l 596 625 q 560 403 576 513 q 529 218 544 292 q 509 106 514 143 q 496 32 503 69 l 496 32 l 490 11 q 486 -9 488 0 q 482 -30 484 -19 l 482 -30 q 406 -62 454 -62 l 406 -62 q 325 -36 355 -62 l 325 -36 q 319 23 307 -22 l 319 23 q 326 70 324 41 q 329 117 327 98 l 329 117 l 329 119 q 275 91 299 108 q 245 69 251 73 q 229 62 239 64 q 211 58 219 59 l 211 58 q 185 52 192 57 l 185 52 q 81 -64 127 -52 l 81 -64 q 23 -68 52 -73 q -23 -34 -6 -64 l -23 -34 q -7 130 -55 -4 l -7 130 q 68 301 19 201 q 161 474 116 400 l 161 474 q 374 742 258 633 l 374 742 q 415 761 393 750 q 459 772 437 771 q 503 767 480 773 q 542 749 526 761 l 542 749 q 553 678 579 721 z m 377 472 l 339 415 q 297 305 318 355 q 261 216 276 254 l 261 216 l 340 219 q 358 346 348 283 q 377 472 368 409 l 377 472 z m 312 215 l 312 215 q 340 217 326 215 l 340 217 l 340 218 q 316 216 327 217 q 312 215 305 215 z m 485 859 q 455 823 475 838 q 413 801 435 807 q 383 794 391 794 q 353 798 375 794 l 353 798 l 352 798 l 350 800 q 308 840 314 816 q 315 887 302 864 q 352 928 327 910 q 394 950 376 946 q 418 954 411 953 q 430 953 424 954 q 442 951 435 952 q 457 947 448 949 l 457 947 l 460 944 q 485 859 509 907 l 485 859 z m 708 878 q 678 836 698 854 q 637 810 657 817 q 610 802 616 802 q 576 807 604 802 l 576 807 l 575 807 q 572 809 574 807 l 572 809 q 530 857 536 828 q 537 912 524 885 q 574 961 549 939 q 616 986 598 982 q 640 990 633 989 q 652 989 646 990 l 652 989 q 680 982 659 989 l 680 982 q 708 878 730 932 l 708 878 z"},"Å":{"ha":564,"x_min":-23,"x_max":710,"o":"m 553 678 l 553 678 q 596 625 587 660 l 596 625 q 560 403 576 513 q 529 218 544 292 q 509 106 514 143 q 496 32 503 69 l 496 32 l 490 11 q 486 -9 488 0 q 482 -30 484 -19 l 482 -30 q 406 -62 454 -62 l 406 -62 q 325 -36 355 -62 l 325 -36 q 319 23 307 -22 l 319 23 q 326 70 324 41 q 329 117 327 98 l 329 117 l 329 119 q 275 91 299 108 q 245 69 251 73 q 229 62 239 64 q 211 58 219 59 l 211 58 q 185 52 192 57 l 185 52 q 81 -64 127 -52 l 81 -64 q 23 -68 52 -73 q -23 -34 -6 -64 l -23 -34 q -7 130 -55 -4 l -7 130 q 68 301 19 201 q 161 474 116 400 l 161 474 q 374 742 258 633 l 374 742 q 415 761 393 750 q 459 772 437 771 q 503 767 480 773 q 542 749 526 761 l 542 749 q 553 678 579 721 z m 377 472 l 339 415 q 297 305 318 355 q 261 216 276 254 l 261 216 l 340 219 q 358 346 348 283 q 377 472 368 409 l 377 472 z m 312 215 l 312 215 q 340 217 326 215 l 340 217 l 340 218 q 316 216 327 217 q 312 215 305 215 z m 427 994 l 427 994 q 490 1012 459 1007 l 490 1012 q 551 1010 519 1010 q 619 993 583 1010 q 680 945 655 976 q 710 877 705 913 l 710 877 q 644 734 719 799 l 644 734 q 546 693 611 707 l 546 693 q 446 685 495 682 q 375 692 397 688 q 345 700 353 695 q 327 711 336 705 q 310 720 318 716 l 310 720 q 255 831 250 757 l 255 831 q 301 940 259 894 l 301 940 q 329 961 316 957 q 370 978 341 965 q 427 994 398 990 z m 527 842 l 527 842 q 478 835 510 838 l 478 835 q 460 837 471 837 q 439 838 449 837 l 439 838 q 425 788 416 811 l 425 788 q 439 774 428 780 q 468 771 450 768 q 500 782 485 773 l 500 782 q 528 837 534 803 l 528 837 q 527 842 527 838 z"},"Æ":{"ha":845,"x_min":-23,"x_max":928,"o":"m 553 678 l 553 678 q 596 625 587 660 l 596 625 q 560 403 576 513 q 529 218 544 292 q 509 106 514 143 q 496 32 503 69 l 496 32 l 490 11 q 486 -9 488 0 q 482 -30 484 -19 l 482 -30 q 406 -62 454 -62 l 406 -62 q 325 -36 355 -62 l 325 -36 q 319 23 307 -22 l 319 23 q 326 70 324 41 q 329 117 327 98 l 329 117 l 329 119 q 275 91 299 108 q 245 69 251 73 q 229 62 239 64 q 211 58 219 59 l 211 58 q 185 52 192 57 l 185 52 q 81 -64 127 -52 l 81 -64 q 23 -68 52 -73 q -23 -34 -6 -64 l -23 -34 q -7 130 -55 -4 l -7 130 q 68 301 19 201 q 161 474 116 400 l 161 474 q 374 742 258 633 l 374 742 q 415 761 393 750 q 459 772 437 771 q 503 767 480 773 q 542 749 526 761 l 542 749 q 553 678 579 721 z m 377 472 l 339 415 q 297 305 318 355 q 261 216 276 254 l 261 216 l 340 219 q 358 346 348 283 q 377 472 368 409 l 377 472 z m 312 215 l 312 215 q 340 217 326 215 l 340 217 l 340 218 q 316 216 327 217 q 312 215 305 215 z m 560 141 l 560 141 q 647 135 618 135 q 733 143 675 135 l 733 143 q 754 128 751 137 q 756 110 757 119 q 757 91 755 100 q 776 76 759 82 l 776 76 q 782 59 785 73 q 765 27 778 44 l 765 27 q 687 -33 732 -16 l 687 -33 q 574 -54 615 -51 l 574 -54 q 426 -49 506 -59 l 426 -49 q 341 24 338 -33 l 341 24 q 433 446 341 234 l 433 446 q 501 591 463 515 l 501 591 q 511 627 509 607 q 513 666 512 647 q 519 700 514 685 q 540 721 524 715 l 540 721 q 869 785 748 804 l 869 785 q 925 757 911 784 q 928 695 938 729 q 887 631 917 661 q 810 594 856 601 l 810 594 q 738 571 751 577 l 738 571 q 702 539 713 559 l 702 539 q 676 497 688 517 q 659 454 664 477 l 659 454 l 655 432 q 702 427 674 423 q 753 434 729 430 q 791 434 776 437 q 797 405 805 431 q 766 345 788 378 q 702 297 743 312 l 702 297 q 667 290 676 292 q 652 286 657 287 l 652 286 q 612 283 645 285 l 612 283 q 555 159 565 203 l 555 159 q 560 141 551 141 z"},"Ç":{"ha":573,"x_min":16,"x_max":650,"o":"m 449 498 l 449 498 q 428 528 449 528 l 428 528 q 409 524 420 528 q 388 517 398 520 l 388 517 q 331 474 351 497 q 289 421 310 450 q 253 359 268 392 q 230 297 238 326 l 230 297 q 252 153 201 190 l 252 153 q 297 139 273 138 q 335 148 320 139 q 363 165 349 157 q 396 177 377 173 q 442 172 414 180 q 471 149 469 163 q 471 120 473 135 q 471 93 469 105 q 492 78 472 81 l 492 78 q 468 20 511 54 l 468 20 q 447 3 457 11 l 447 3 q 264 -58 361 -52 l 264 -58 q 134 -36 203 -62 l 134 -36 q 18 139 31 3 l 18 139 q 50 400 1 265 l 50 400 q 174 611 91 514 l 174 611 q 322 727 249 700 l 322 727 q 510 762 409 772 l 510 762 q 650 671 617 748 l 650 671 q 639 486 683 594 l 639 486 q 582 426 624 448 l 582 426 q 504 406 546 406 q 450 433 462 406 q 449 498 438 459 z m 156 -223 l 156 -223 q 173 -222 166 -221 l 173 -222 l 174 -222 q 279 -203 250 -218 q 282 -174 307 -188 l 282 -174 q 230 -173 258 -174 q 179 -163 201 -172 l 179 -163 q 152 -78 127 -141 l 152 -78 q 175 -44 164 -57 l 175 -44 q 200 -13 183 -31 l 200 -13 q 251 3 226 8 l 251 3 q 264 -42 277 -3 l 264 -42 l 259 -48 q 256 -58 261 -47 q 245 -80 250 -69 l 245 -80 q 278 -88 260 -82 q 310 -97 295 -94 l 310 -97 q 347 -110 330 -104 q 377 -125 364 -116 l 377 -125 q 404 -189 402 -145 l 404 -189 q 370 -271 409 -229 l 370 -271 q 290 -330 350 -292 l 290 -330 q 121 -365 226 -366 l 121 -365 q 71 -358 92 -364 l 71 -358 q 32 -337 49 -356 q 16 -276 14 -318 l 16 -276 q 34 -228 27 -237 l 34 -228 q 79 -200 48 -209 l 79 -200 q 118 -196 107 -191 q 137 -208 129 -202 q 156 -223 144 -215 z"},"È":{"ha":524,"x_min":7,"x_max":594,"o":"m 226 126 l 226 126 q 313 120 284 120 q 399 128 341 120 l 399 128 q 420 113 417 122 q 422 95 423 104 q 423 76 421 85 q 442 61 425 67 l 442 61 q 448 44 451 58 q 431 12 444 29 l 431 12 q 353 -48 398 -31 l 353 -48 q 240 -69 281 -66 l 240 -69 q 92 -64 172 -74 l 92 -64 q 7 9 4 -48 l 7 9 q 99 431 7 219 l 99 431 q 167 576 129 500 l 167 576 q 177 612 175 592 q 179 651 178 632 q 185 685 180 670 q 206 706 190 700 l 206 706 q 535 770 414 789 l 535 770 q 591 742 577 769 q 594 680 604 714 q 553 616 583 646 q 476 579 522 586 l 476 579 q 404 556 417 562 l 404 556 q 368 524 379 544 l 368 524 q 342 482 354 502 q 325 439 330 462 l 325 439 l 321 417 q 368 412 340 408 q 419 419 395 415 q 457 419 442 422 q 463 390 471 416 q 432 330 454 363 q 368 282 409 297 l 368 282 q 333 275 342 277 q 318 271 323 272 l 318 271 q 278 268 311 270 l 278 268 q 221 144 231 188 l 221 144 q 226 126 217 126 z m 310 962 l 311 963 q 345 1036 302 1012 l 345 1036 q 430 1049 383 1056 l 430 1049 q 485 1034 459 1048 q 522 994 511 1020 l 522 994 q 515 940 514 968 l 515 940 q 516 862 517 880 q 504 835 515 844 q 479 824 493 826 l 479 824 q 424 834 449 820 l 424 834 q 415 848 419 844 l 415 848 q 409 854 411 849 l 409 854 q 383 887 405 865 l 383 887 l 347 923 q 328 936 332 930 l 328 936 q 311 957 320 945 l 311 957 l 310 962 z"},"É":{"ha":524,"x_min":7,"x_max":594,"o":"m 226 126 l 226 126 q 313 120 284 120 q 399 128 341 120 l 399 128 q 420 113 417 122 q 422 95 423 104 q 423 76 421 85 q 442 61 425 67 l 442 61 q 448 44 451 58 q 431 12 444 29 l 431 12 q 353 -48 398 -31 l 353 -48 q 240 -69 281 -66 l 240 -69 q 92 -64 172 -74 l 92 -64 q 7 9 4 -48 l 7 9 q 99 431 7 219 l 99 431 q 167 576 129 500 l 167 576 q 177 612 175 592 q 179 651 178 632 q 185 685 180 670 q 206 706 190 700 l 206 706 q 535 770 414 789 l 535 770 q 591 742 577 769 q 594 680 604 714 q 553 616 583 646 q 476 579 522 586 l 476 579 q 404 556 417 562 l 404 556 q 368 524 379 544 l 368 524 q 342 482 354 502 q 325 439 330 462 l 325 439 l 321 417 q 368 412 340 408 q 419 419 395 415 q 457 419 442 422 q 463 390 471 416 q 432 330 454 363 q 368 282 409 297 l 368 282 q 333 275 342 277 q 318 271 323 272 l 318 271 q 278 268 311 270 l 278 268 q 221 144 231 188 l 221 144 q 226 126 217 126 z m 482 1058 l 485 1058 q 572 1028 544 1054 l 572 1028 q 568 970 604 1000 l 568 970 q 556 946 565 959 l 556 946 q 452 862 494 884 l 452 862 q 362 846 395 833 l 362 846 q 349 905 328 859 l 349 905 l 355 912 q 404 1013 358 950 l 404 1013 q 423 1034 415 1028 l 423 1034 q 482 1058 450 1050 l 482 1058 z"},"Ê":{"ha":524,"x_min":7,"x_max":628,"o":"m 226 126 l 226 126 q 313 120 284 120 q 399 128 341 120 l 399 128 q 420 113 417 122 q 422 95 423 104 q 423 76 421 85 q 442 61 425 67 l 442 61 q 448 44 451 58 q 431 12 444 29 l 431 12 q 353 -48 398 -31 l 353 -48 q 240 -69 281 -66 l 240 -69 q 92 -64 172 -74 l 92 -64 q 7 9 4 -48 l 7 9 q 99 431 7 219 l 99 431 q 167 576 129 500 l 167 576 q 177 612 175 592 q 179 651 178 632 q 185 685 180 670 q 206 706 190 700 l 206 706 q 535 770 414 789 l 535 770 q 591 742 577 769 q 594 680 604 714 q 553 616 583 646 q 476 579 522 586 l 476 579 q 404 556 417 562 l 404 556 q 368 524 379 544 l 368 524 q 342 482 354 502 q 325 439 330 462 l 325 439 l 321 417 q 368 412 340 408 q 419 419 395 415 q 457 419 442 422 q 463 390 471 416 q 432 330 454 363 q 368 282 409 297 l 368 282 q 333 275 342 277 q 318 271 323 272 l 318 271 q 278 268 311 270 l 278 268 q 221 144 231 188 l 221 144 q 226 126 217 126 z m 523 821 l 523 821 q 528 850 523 833 l 528 850 q 518 885 526 870 q 501 915 509 900 l 501 915 q 430 833 454 857 l 430 833 q 348 790 390 801 l 348 790 q 280 789 302 772 l 280 789 q 269 812 269 796 q 284 851 269 827 l 284 851 q 412 996 372 956 q 475 1057 452 1036 q 515 1094 497 1077 q 553 1119 532 1110 l 553 1119 q 626 1118 606 1142 l 626 1118 q 606 1070 632 1096 l 606 1070 l 606 1055 q 617 947 617 1007 l 617 947 q 626 914 621 932 q 628 877 630 896 l 628 877 q 577 814 623 834 l 577 814 q 544 807 558 807 q 523 821 529 807 z"},"Ë":{"ha":524,"x_min":7,"x_max":658,"o":"m 226 126 l 226 126 q 313 120 284 120 q 399 128 341 120 l 399 128 q 420 113 417 122 q 422 95 423 104 q 423 76 421 85 q 442 61 425 67 l 442 61 q 448 44 451 58 q 431 12 444 29 l 431 12 q 353 -48 398 -31 l 353 -48 q 240 -69 281 -66 l 240 -69 q 92 -64 172 -74 l 92 -64 q 7 9 4 -48 l 7 9 q 99 431 7 219 l 99 431 q 167 576 129 500 l 167 576 q 177 612 175 592 q 179 651 178 632 q 185 685 180 670 q 206 706 190 700 l 206 706 q 535 770 414 789 l 535 770 q 591 742 577 769 q 594 680 604 714 q 553 616 583 646 q 476 579 522 586 l 476 579 q 404 556 417 562 l 404 556 q 368 524 379 544 l 368 524 q 342 482 354 502 q 325 439 330 462 l 325 439 l 321 417 q 368 412 340 408 q 419 419 395 415 q 457 419 442 422 q 463 390 471 416 q 432 330 454 363 q 368 282 409 297 l 368 282 q 333 275 342 277 q 318 271 323 272 l 318 271 q 278 268 311 270 l 278 268 q 221 144 231 188 l 221 144 q 226 126 217 126 z m 435 855 q 405 819 425 834 q 363 797 385 803 q 333 790 341 790 q 303 794 325 790 l 303 794 l 302 794 l 300 796 q 258 836 264 812 q 265 883 252 860 q 302 924 277 906 q 344 946 326 942 q 368 950 361 949 q 380 949 374 950 q 392 947 385 948 q 407 943 398 945 l 407 943 l 410 940 q 435 855 459 903 l 435 855 z m 658 874 q 628 832 648 850 q 587 806 607 813 q 560 798 566 798 q 526 803 554 798 l 526 803 l 525 803 q 522 805 524 803 l 522 805 q 480 853 486 824 q 487 908 474 881 q 524 957 499 935 q 566 982 548 978 q 590 986 583 985 q 602 985 596 986 l 602 985 q 630 978 609 985 l 630 978 q 658 874 680 928 l 658 874 z"},"Ì":{"ha":339,"x_min":-17,"x_max":490,"o":"m 422 676 l 422 676 q 358 479 387 567 q 304 317 328 391 q 258 181 279 243 q 219 61 237 118 l 219 61 q 154 -32 209 -5 l 154 -32 q 78 -47 122 -47 q 12 -37 34 -47 q -16 -10 -10 -28 q -16 34 -23 8 q 6 104 -10 59 q 47 224 22 148 q 98 378 71 300 l 98 378 q 204 648 165 573 l 204 648 q 234 686 219 676 q 263 700 249 695 q 289 710 277 704 q 311 740 301 716 q 346 773 320 764 q 394 775 371 782 q 428 743 416 767 q 422 676 439 718 z m 278 973 l 279 974 q 313 1047 270 1023 l 313 1047 q 398 1060 351 1067 l 398 1060 q 453 1045 427 1059 q 490 1005 479 1031 l 490 1005 q 483 951 482 979 l 483 951 q 484 873 485 891 q 472 846 483 855 q 447 835 461 837 l 447 835 q 392 845 417 831 l 392 845 q 383 859 387 855 l 383 859 q 377 865 379 860 l 377 865 q 351 898 373 876 l 351 898 l 315 934 q 296 947 300 941 l 296 947 q 279 968 288 956 l 279 968 l 278 973 z"},"Í":{"ha":339,"x_min":-17,"x_max":548,"o":"m 422 676 l 422 676 q 358 479 387 567 q 304 317 328 391 q 258 181 279 243 q 219 61 237 118 l 219 61 q 154 -32 209 -5 l 154 -32 q 78 -47 122 -47 q 12 -37 34 -47 q -16 -10 -10 -28 q -16 34 -23 8 q 6 104 -10 59 q 47 224 22 148 q 98 378 71 300 l 98 378 q 204 648 165 573 l 204 648 q 234 686 219 676 q 263 700 249 695 q 289 710 277 704 q 311 740 301 716 q 346 773 320 764 q 394 775 371 782 q 428 743 416 767 q 422 676 439 718 z m 457 1067 l 460 1067 q 547 1037 519 1063 l 547 1037 q 543 979 579 1009 l 543 979 q 531 955 540 968 l 531 955 q 427 871 469 893 l 427 871 q 337 855 370 842 l 337 855 q 324 914 303 868 l 324 914 l 330 921 q 379 1022 333 959 l 379 1022 q 398 1043 390 1037 l 398 1043 q 457 1067 425 1059 l 457 1067 z"},"Î":{"ha":339,"x_min":-17,"x_max":543,"o":"m 422 676 l 422 676 q 358 479 387 567 q 304 317 328 391 q 258 181 279 243 q 219 61 237 118 l 219 61 q 154 -32 209 -5 l 154 -32 q 78 -47 122 -47 q 12 -37 34 -47 q -16 -10 -10 -28 q -16 34 -23 8 q 6 104 -10 59 q 47 224 22 148 q 98 378 71 300 l 98 378 q 204 648 165 573 l 204 648 q 234 686 219 676 q 263 700 249 695 q 289 710 277 704 q 311 740 301 716 q 346 773 320 764 q 394 775 371 782 q 428 743 416 767 q 422 676 439 718 z m 438 794 l 438 794 q 443 823 438 806 l 443 823 q 433 858 441 843 q 416 888 424 873 l 416 888 q 345 806 369 830 l 345 806 q 263 763 305 774 l 263 763 q 195 762 217 745 l 195 762 q 184 785 184 769 q 199 824 184 800 l 199 824 q 327 969 287 929 q 390 1030 367 1009 q 430 1067 412 1050 q 468 1092 447 1083 l 468 1092 q 541 1091 521 1115 l 541 1091 q 521 1043 547 1069 l 521 1043 l 521 1028 q 532 920 532 980 l 532 920 q 541 887 536 905 q 543 850 545 869 l 543 850 q 492 787 538 807 l 492 787 q 459 780 473 780 q 438 794 444 780 z"},"Ï":{"ha":339,"x_min":-17,"x_max":586,"o":"m 422 676 l 422 676 q 358 479 387 567 q 304 317 328 391 q 258 181 279 243 q 219 61 237 118 l 219 61 q 154 -32 209 -5 l 154 -32 q 78 -47 122 -47 q 12 -37 34 -47 q -16 -10 -10 -28 q -16 34 -23 8 q 6 104 -10 59 q 47 224 22 148 q 98 378 71 300 l 98 378 q 204 648 165 573 l 204 648 q 234 686 219 676 q 263 700 249 695 q 289 710 277 704 q 311 740 301 716 q 346 773 320 764 q 394 775 371 782 q 428 743 416 767 q 422 676 439 718 z m 363 856 q 333 820 353 835 q 291 798 313 804 q 261 791 269 791 q 231 795 253 791 l 231 795 l 230 795 l 228 797 q 186 837 192 813 q 193 884 180 861 q 230 925 205 907 q 272 947 254 943 q 296 951 289 950 q 308 950 302 951 q 320 948 313 949 q 335 944 326 946 l 335 944 l 338 941 q 363 856 387 904 l 363 856 z m 586 875 q 556 833 576 851 q 515 807 535 814 q 488 799 494 799 q 454 804 482 799 l 454 804 l 453 804 q 450 806 452 804 l 450 806 q 408 854 414 825 q 415 909 402 882 q 452 958 427 936 q 494 983 476 979 q 518 987 511 986 q 530 986 524 987 l 530 986 q 558 979 537 986 l 558 979 q 586 875 608 929 l 586 875 z"},"Ð":{"ha":667,"x_min":-105,"x_max":680,"o":"m 680 406 l 680 406 q 664 318 675 363 q 631 230 652 273 q 580 147 609 187 q 514 73 550 107 q 438 16 478 39 l 438 16 q 267 -21 349 -36 l 267 -21 q 214 -70 249 -60 q 144 -70 178 -81 q 83 -31 109 -60 q 57 49 57 -2 q 64 152 57 99 q 82 254 71 205 l 82 254 q 130 406 102 335 l 130 406 q 206 632 196 567 l 206 632 q 254 740 218 719 l 254 740 q 363 769 311 774 q 458 744 415 764 l 458 744 q 606 633 526 711 l 606 633 q 680 406 694 548 z m 290 144 l 286 106 q 369 160 337 132 q 428 210 400 187 l 428 210 q 491 312 471 253 l 491 312 q 435 509 535 442 l 435 509 q 390 539 420 520 l 390 539 q 370 472 376 507 q 352 404 363 437 l 352 404 l 325 316 l 303 221 q 297 183 301 201 q 290 144 293 164 l 290 144 z m 163 234 l 163 234 l -8 237 q -12 236 -10 236 q -17 235 -14 236 l -17 235 l -18 237 q -73 247 -50 237 q -104 271 -97 256 q -100 303 -112 286 q -51 334 -89 320 l -51 334 l -33 336 q 8 385 -26 362 q 106 416 41 408 l 106 416 l 164 418 l 209 418 q 257 417 233 418 l 257 417 q 366 414 310 430 l 366 414 q 430 342 434 393 l 430 342 q 396 285 428 316 l 396 285 q 363 271 379 279 q 319 252 347 262 l 319 252 q 163 234 264 234 z"},"Ñ":{"ha":630,"x_min":-18,"x_max":704,"o":"m 68 388 l 68 388 q 101 492 88 455 q 125 557 113 528 q 153 613 137 586 q 187 663 168 640 q 226 698 205 685 q 270 711 247 711 q 318 693 293 711 l 318 693 q 367 559 358 593 l 367 559 q 389 418 379 509 l 389 418 q 410 467 398 441 q 432 518 421 492 l 432 518 q 471 618 463 584 l 471 618 q 562 723 493 688 l 562 723 q 674 742 622 753 l 674 742 q 704 725 695 738 q 704 698 712 712 q 698 672 695 684 q 702 642 700 659 l 702 642 q 686 561 705 596 q 647 473 667 525 q 607 361 627 420 q 565 241 586 302 q 524 130 544 180 l 524 130 q 452 3 480 15 l 452 3 q 396 -24 414 -20 l 396 -24 q 331 -24 373 -28 l 331 -24 q 286 43 305 -22 l 286 43 q 266 140 275 78 l 266 140 q 244 259 250 248 l 244 259 q 188 95 204 129 q 163 50 171 61 q 142 21 154 39 l 142 21 q 80 -32 129 -15 l 80 -32 q 4 -37 38 -48 l 4 -37 q -18 9 -33 -25 l -18 9 q 68 388 -7 129 z m 298 836 l 298 836 q 330 880 307 856 q 377 915 352 904 l 377 915 l 400 932 q 483 954 455 966 l 483 954 q 506 941 497 949 q 516 913 514 933 l 516 913 q 517 902 513 909 q 526 884 521 895 q 537 863 530 872 l 537 863 q 579 875 558 866 l 579 875 q 595 889 587 882 q 613 903 603 896 q 633 913 622 909 q 652 915 644 916 l 652 915 q 664 879 671 911 l 664 879 q 619 826 655 853 l 619 826 q 559 779 576 785 l 559 779 q 498 777 534 769 l 498 777 q 482 786 490 778 q 463 801 473 793 l 463 801 q 420 813 439 819 l 420 813 q 395 794 408 804 q 370 774 382 783 l 370 774 q 328 760 343 753 l 328 760 q 311 772 319 764 l 311 772 q 298 836 277 789 z m 362 904 l 351 898 q 352 898 348 895 q 362 904 355 900 l 362 904 z"},"Ò":{"ha":639,"x_min":30,"x_max":659,"o":"m 203 662 l 203 662 q 343 752 266 734 l 343 752 q 443 748 396 765 l 443 748 q 539 776 480 787 l 539 776 q 631 715 593 766 l 631 715 q 640 694 633 708 q 652 663 646 680 l 652 663 q 659 395 696 561 l 659 395 q 496 46 613 189 l 496 46 q 415 -27 460 2 l 415 -27 q 243 -76 343 -82 l 243 -76 q 139 -45 181 -73 l 139 -45 q 30 301 -28 38 l 30 301 q 203 662 78 517 z m 215 131 l 215 131 l 214 125 l 216 114 q 236 67 222 83 q 259 46 250 50 l 259 46 q 279 61 269 54 q 297 78 289 68 l 297 78 q 403 298 365 162 q 431 550 441 434 l 431 550 q 349 435 392 500 q 281 324 306 370 l 281 324 q 215 131 224 217 z m 428 959 l 429 960 q 463 1033 420 1009 l 463 1033 q 548 1046 501 1053 l 548 1046 q 603 1031 577 1045 q 640 991 629 1017 l 640 991 q 633 937 632 965 l 633 937 q 634 859 635 877 q 622 832 633 841 q 597 821 611 823 l 597 821 q 542 831 567 817 l 542 831 q 533 845 537 841 l 533 845 q 527 851 529 846 l 527 851 q 501 884 523 862 l 501 884 l 465 920 q 446 933 450 927 l 446 933 q 429 954 438 942 l 429 954 l 428 959 z"},"Ó":{"ha":639,"x_min":30,"x_max":708,"o":"m 203 662 l 203 662 q 343 752 266 734 l 343 752 q 443 748 396 765 l 443 748 q 539 776 480 787 l 539 776 q 631 715 593 766 l 631 715 q 640 694 633 708 q 652 663 646 680 l 652 663 q 659 395 696 561 l 659 395 q 496 46 613 189 l 496 46 q 415 -27 460 2 l 415 -27 q 243 -76 343 -82 l 243 -76 q 139 -45 181 -73 l 139 -45 q 30 301 -28 38 l 30 301 q 203 662 78 517 z m 215 131 l 215 131 l 214 125 l 216 114 q 236 67 222 83 q 259 46 250 50 l 259 46 q 279 61 269 54 q 297 78 289 68 l 297 78 q 403 298 365 162 q 431 550 441 434 l 431 550 q 349 435 392 500 q 281 324 306 370 l 281 324 q 215 131 224 217 z m 617 1066 l 620 1066 q 707 1036 679 1062 l 707 1036 q 703 978 739 1008 l 703 978 q 691 954 700 967 l 691 954 q 587 870 629 892 l 587 870 q 497 854 530 841 l 497 854 q 484 913 463 867 l 484 913 l 490 920 q 539 1021 493 958 l 539 1021 q 558 1042 550 1036 l 558 1042 q 617 1066 585 1058 l 617 1066 z"},"Ô":{"ha":639,"x_min":30,"x_max":683,"o":"m 203 662 l 203 662 q 343 752 266 734 l 343 752 q 443 748 396 765 l 443 748 q 539 776 480 787 l 539 776 q 631 715 593 766 l 631 715 q 640 694 633 708 q 652 663 646 680 l 652 663 q 659 395 696 561 l 659 395 q 496 46 613 189 l 496 46 q 415 -27 460 2 l 415 -27 q 243 -76 343 -82 l 243 -76 q 139 -45 181 -73 l 139 -45 q 30 301 -28 38 l 30 301 q 203 662 78 517 z m 215 131 l 215 131 l 214 125 l 216 114 q 236 67 222 83 q 259 46 250 50 l 259 46 q 279 61 269 54 q 297 78 289 68 l 297 78 q 403 298 365 162 q 431 550 441 434 l 431 550 q 349 435 392 500 q 281 324 306 370 l 281 324 q 215 131 224 217 z m 578 812 l 578 812 q 583 841 578 824 l 583 841 q 573 876 581 861 q 556 906 564 891 l 556 906 q 485 824 509 848 l 485 824 q 403 781 445 792 l 403 781 q 335 780 357 763 l 335 780 q 324 803 324 787 q 339 842 324 818 l 339 842 q 467 987 427 947 q 530 1048 507 1027 q 570 1085 552 1068 q 608 1110 587 1101 l 608 1110 q 681 1109 661 1133 l 681 1109 q 661 1061 687 1087 l 661 1061 l 661 1046 q 672 938 672 998 l 672 938 q 681 905 676 923 q 683 868 685 887 l 683 868 q 632 805 678 825 l 632 805 q 599 798 613 798 q 578 812 584 798 z"},"Õ":{"ha":639,"x_min":30,"x_max":708,"o":"m 203 662 l 203 662 q 343 752 266 734 l 343 752 q 443 748 396 765 l 443 748 q 539 776 480 787 l 539 776 q 631 715 593 766 l 631 715 q 640 694 633 708 q 652 663 646 680 l 652 663 q 659 395 696 561 l 659 395 q 496 46 613 189 l 496 46 q 415 -27 460 2 l 415 -27 q 243 -76 343 -82 l 243 -76 q 139 -45 181 -73 l 139 -45 q 30 301 -28 38 l 30 301 q 203 662 78 517 z m 215 131 l 215 131 l 214 125 l 216 114 q 236 67 222 83 q 259 46 250 50 l 259 46 q 279 61 269 54 q 297 78 289 68 l 297 78 q 403 298 365 162 q 431 550 441 434 l 431 550 q 349 435 392 500 q 281 324 306 370 l 281 324 q 215 131 224 217 z m 342 875 l 342 875 q 374 919 351 895 q 421 954 396 943 l 421 954 l 444 971 q 527 993 499 1005 l 527 993 q 550 980 541 988 q 560 952 558 972 l 560 952 q 561 941 557 948 q 570 923 565 934 q 581 902 574 911 l 581 902 q 623 914 602 905 l 623 914 q 639 928 631 921 q 657 942 647 935 q 677 952 666 948 q 696 954 688 955 l 696 954 q 708 918 715 950 l 708 918 q 663 865 699 892 l 663 865 q 603 818 620 824 l 603 818 q 542 816 578 808 l 542 816 q 526 825 534 817 q 507 840 517 832 l 507 840 q 464 852 483 858 l 464 852 q 439 833 452 843 q 414 813 426 822 l 414 813 q 372 799 387 792 l 372 799 q 355 811 363 803 l 355 811 q 342 875 321 828 z m 406 943 l 395 937 q 396 937 392 934 q 406 943 399 939 l 406 943 z"},"Ö":{"ha":639,"x_min":30,"x_max":724,"o":"m 203 662 l 203 662 q 343 752 266 734 l 343 752 q 443 748 396 765 l 443 748 q 539 776 480 787 l 539 776 q 631 715 593 766 l 631 715 q 640 694 633 708 q 652 663 646 680 l 652 663 q 659 395 696 561 l 659 395 q 496 46 613 189 l 496 46 q 415 -27 460 2 l 415 -27 q 243 -76 343 -82 l 243 -76 q 139 -45 181 -73 l 139 -45 q 30 301 -28 38 l 30 301 q 203 662 78 517 z m 215 131 l 215 131 l 214 125 l 216 114 q 236 67 222 83 q 259 46 250 50 l 259 46 q 279 61 269 54 q 297 78 289 68 l 297 78 q 403 298 365 162 q 431 550 441 434 l 431 550 q 349 435 392 500 q 281 324 306 370 l 281 324 q 215 131 224 217 z m 501 871 q 471 835 491 850 q 429 813 451 819 q 399 806 407 806 q 369 810 391 806 l 369 810 l 368 810 l 366 812 q 324 852 330 828 q 331 899 318 876 q 368 940 343 922 q 410 962 392 958 q 434 966 427 965 q 446 965 440 966 q 458 963 451 964 q 473 959 464 961 l 473 959 l 476 956 q 501 871 525 919 l 501 871 z m 724 890 q 694 848 714 866 q 653 822 673 829 q 626 814 632 814 q 592 819 620 814 l 592 819 l 591 819 q 588 821 590 819 l 588 821 q 546 869 552 840 q 553 924 540 897 q 590 973 565 951 q 632 998 614 994 q 656 1002 649 1001 q 668 1001 662 1002 l 668 1001 q 696 994 675 1001 l 696 994 q 724 890 746 944 l 724 890 z"},"×":{"ha":627,"x_min":-13,"x_max":672,"o":"m 640 620 l 640 620 q 672 572 672 593 l 672 572 q 664 556 672 563 l 664 556 q 603 489 649 529 l 603 489 q 482 396 530 426 l 482 396 q 503 303 495 365 q 515 229 511 240 q 521 211 519 217 q 528 199 522 204 l 528 199 q 515 176 534 184 q 468 162 496 167 l 468 162 q 368 160 406 152 l 368 160 q 339 185 349 171 l 339 185 q 299 260 325 206 l 299 260 q 247 219 276 244 l 247 219 l 229 203 q 215 189 221 196 q 199 175 208 182 l 199 175 q 145 146 177 158 l 145 146 q 81 138 111 137 l 81 138 q 21 158 27 141 l 21 158 q -13 178 -8 164 q -7 223 -18 192 l -7 223 q 196 415 109 364 l 196 415 q 178 452 185 427 l 178 452 l 166 489 q 153 512 162 502 l 153 512 q 107 535 121 518 q 114 580 92 551 l 114 580 l 130 592 q 233 627 180 621 q 330 610 285 633 l 330 610 q 370 590 347 607 l 370 590 q 415 545 408 562 l 415 545 q 451 569 424 553 q 489 591 478 585 q 513 605 500 596 q 540 621 526 613 q 566 630 553 628 q 595 629 579 632 q 637 621 610 626 l 637 621 l 638 621 q 639 621 639 621 q 640 620 639 620 z"},"Ø":{"ha":639,"x_min":24,"x_max":743,"o":"m 203 662 l 203 662 q 343 752 266 734 l 343 752 q 443 748 396 765 l 443 748 q 539 776 480 787 l 539 776 q 631 715 593 766 l 631 715 q 640 694 633 708 q 652 663 646 680 l 652 663 q 659 395 696 561 l 659 395 q 496 46 613 189 l 496 46 q 415 -27 460 2 l 415 -27 q 243 -76 343 -82 l 243 -76 q 139 -45 181 -73 l 139 -45 q 30 301 -28 38 l 30 301 q 203 662 78 517 z m 215 131 l 215 131 l 214 125 l 216 114 q 236 67 222 83 q 259 46 250 50 l 259 46 q 279 61 269 54 q 297 78 289 68 l 297 78 q 403 298 365 162 q 431 550 441 434 l 431 550 q 349 435 392 500 q 281 324 306 370 l 281 324 q 215 131 224 217 z m 398 645 q 451 745 432 707 q 481 802 469 782 q 497 826 493 821 q 503 835 501 830 l 503 835 q 526 880 501 858 q 607 912 550 901 l 607 912 l 614 912 q 689 900 668 910 l 689 900 q 743 838 728 882 l 743 838 q 735 802 746 819 q 711 771 723 785 l 711 771 q 694 705 723 739 l 694 705 q 619 620 652 665 q 542 513 586 574 q 445 367 497 451 q 339 198 392 283 l 339 198 q 119 -122 205 -16 l 119 -122 q 70 -129 102 -143 l 70 -129 q 25 -80 37 -115 l 25 -80 q 37 5 9 -39 l 37 5 q 215 342 105 160 l 215 342 q 314 503 264 422 q 398 645 363 583 z"},"Ù":{"ha":639,"x_min":45,"x_max":743,"o":"m 343 724 l 343 724 l 343 722 q 344 721 343 721 q 344 720 344 721 l 344 720 l 344 718 l 345 718 l 351 702 q 299 522 361 673 l 299 522 q 238 271 233 361 l 238 271 q 345 374 249 207 l 345 374 q 492 659 421 504 l 492 659 q 511 703 501 680 q 536 740 521 725 l 536 740 q 616 759 569 776 l 616 759 q 654 785 632 778 q 695 788 675 792 q 728 770 714 784 q 743 731 742 755 l 743 731 q 723 636 746 711 q 679 499 699 561 q 638 364 659 437 l 638 364 q 557 38 587 191 l 557 38 q 530 -15 556 6 q 471 -42 503 -36 q 409 -40 438 -49 l 409 -40 q 372 10 374 -30 l 372 10 q 371 32 372 21 l 371 32 q 322 -26 373 -2 l 322 -26 q 296 -39 308 -33 l 296 -39 q 149 -30 226 -60 l 149 -30 q 85 11 113 -15 q 45 71 56 36 l 45 71 q 58 365 10 183 l 58 365 q 107 517 78 443 q 150 624 136 591 q 169 670 163 657 q 182 694 175 682 l 182 694 q 211 740 199 728 l 211 740 l 223 751 q 227 754 225 753 q 232 756 229 754 l 232 756 q 249 763 240 761 l 249 763 l 263 766 l 269 766 q 319 754 298 770 l 319 754 q 321 753 319 753 l 321 753 l 329 746 l 332 743 l 335 739 q 336 738 335 738 q 336 737 336 738 l 336 737 l 337 736 l 337 734 q 338 733 338 734 l 338 733 l 338 732 q 340 731 339 731 l 340 731 l 340 730 q 341 729 340 729 q 341 729 341 729 q 342 727 341 728 l 342 727 l 342 726 q 343 724 342 725 z m 370 57 l 370 58 l 370 61 q 369 53 369 60 l 369 53 q 370 57 369 56 l 370 57 z m 368 940 l 369 941 q 403 1014 360 990 l 403 1014 q 488 1027 441 1034 l 488 1027 q 543 1012 517 1026 q 580 972 569 998 l 580 972 q 573 918 572 946 l 573 918 q 574 840 575 858 q 562 813 573 822 q 537 802 551 804 l 537 802 q 482 812 507 798 l 482 812 q 473 826 477 822 l 473 826 q 467 832 469 827 l 467 832 q 441 865 463 843 l 441 865 l 405 901 q 386 914 390 908 l 386 914 q 369 935 378 923 l 369 935 l 368 940 z"},"Ú":{"ha":639,"x_min":45,"x_max":743,"o":"m 343 724 l 343 724 l 343 722 q 344 721 343 721 q 344 720 344 721 l 344 720 l 344 718 l 345 718 l 351 702 q 299 522 361 673 l 299 522 q 238 271 233 361 l 238 271 q 345 374 249 207 l 345 374 q 492 659 421 504 l 492 659 q 511 703 501 680 q 536 740 521 725 l 536 740 q 616 759 569 776 l 616 759 q 654 785 632 778 q 695 788 675 792 q 728 770 714 784 q 743 731 742 755 l 743 731 q 723 636 746 711 q 679 499 699 561 q 638 364 659 437 l 638 364 q 557 38 587 191 l 557 38 q 530 -15 556 6 q 471 -42 503 -36 q 409 -40 438 -49 l 409 -40 q 372 10 374 -30 l 372 10 q 371 32 372 21 l 371 32 q 322 -26 373 -2 l 322 -26 q 296 -39 308 -33 l 296 -39 q 149 -30 226 -60 l 149 -30 q 85 11 113 -15 q 45 71 56 36 l 45 71 q 58 365 10 183 l 58 365 q 107 517 78 443 q 150 624 136 591 q 169 670 163 657 q 182 694 175 682 l 182 694 q 211 740 199 728 l 211 740 l 223 751 q 227 754 225 753 q 232 756 229 754 l 232 756 q 249 763 240 761 l 249 763 l 263 766 l 269 766 q 319 754 298 770 l 319 754 q 321 753 319 753 l 321 753 l 329 746 l 332 743 l 335 739 q 336 738 335 738 q 336 737 336 738 l 336 737 l 337 736 l 337 734 q 338 733 338 734 l 338 733 l 338 732 q 340 731 339 731 l 340 731 l 340 730 q 341 729 340 729 q 341 729 341 729 q 342 727 341 728 l 342 727 l 342 726 q 343 724 342 725 z m 370 57 l 370 58 l 370 61 q 369 53 369 60 l 369 53 q 370 57 369 56 l 370 57 z m 534 1012 l 537 1012 q 624 982 596 1008 l 624 982 q 620 924 656 954 l 620 924 q 608 900 617 913 l 608 900 q 504 816 546 838 l 504 816 q 414 800 447 787 l 414 800 q 401 859 380 813 l 401 859 l 407 866 q 456 967 410 904 l 456 967 q 475 988 467 982 l 475 988 q 534 1012 502 1004 l 534 1012 z"},"Û":{"ha":639,"x_min":45,"x_max":743,"o":"m 343 724 l 343 724 l 343 722 q 344 721 343 721 q 344 720 344 721 l 344 720 l 344 718 l 345 718 l 351 702 q 299 522 361 673 l 299 522 q 238 271 233 361 l 238 271 q 345 374 249 207 l 345 374 q 492 659 421 504 l 492 659 q 511 703 501 680 q 536 740 521 725 l 536 740 q 616 759 569 776 l 616 759 q 654 785 632 778 q 695 788 675 792 q 728 770 714 784 q 743 731 742 755 l 743 731 q 723 636 746 711 q 679 499 699 561 q 638 364 659 437 l 638 364 q 557 38 587 191 l 557 38 q 530 -15 556 6 q 471 -42 503 -36 q 409 -40 438 -49 l 409 -40 q 372 10 374 -30 l 372 10 q 371 32 372 21 l 371 32 q 322 -26 373 -2 l 322 -26 q 296 -39 308 -33 l 296 -39 q 149 -30 226 -60 l 149 -30 q 85 11 113 -15 q 45 71 56 36 l 45 71 q 58 365 10 183 l 58 365 q 107 517 78 443 q 150 624 136 591 q 169 670 163 657 q 182 694 175 682 l 182 694 q 211 740 199 728 l 211 740 l 223 751 q 227 754 225 753 q 232 756 229 754 l 232 756 q 249 763 240 761 l 249 763 l 263 766 l 269 766 q 319 754 298 770 l 319 754 q 321 753 319 753 l 321 753 l 329 746 l 332 743 l 335 739 q 336 738 335 738 q 336 737 336 738 l 336 737 l 337 736 l 337 734 q 338 733 338 734 l 338 733 l 338 732 q 340 731 339 731 l 340 731 l 340 730 q 341 729 340 729 q 341 729 341 729 q 342 727 341 728 l 342 727 l 342 726 q 343 724 342 725 z m 370 57 l 370 58 l 370 61 q 369 53 369 60 l 369 53 q 370 57 369 56 l 370 57 z m 591 821 l 591 821 q 596 850 591 833 l 596 850 q 586 885 594 870 q 569 915 577 900 l 569 915 q 498 833 522 857 l 498 833 q 416 790 458 801 l 416 790 q 348 789 370 772 l 348 789 q 337 812 337 796 q 352 851 337 827 l 352 851 q 480 996 440 956 q 543 1057 520 1036 q 583 1094 565 1077 q 621 1119 600 1110 l 621 1119 q 694 1118 674 1142 l 694 1118 q 674 1070 700 1096 l 674 1070 l 674 1055 q 685 947 685 1007 l 685 947 q 694 914 689 932 q 696 877 698 896 l 696 877 q 645 814 691 834 l 645 814 q 612 807 626 807 q 591 821 597 807 z"},"Ü":{"ha":639,"x_min":45,"x_max":743,"o":"m 343 724 l 343 724 l 343 722 q 344 721 343 721 q 344 720 344 721 l 344 720 l 344 718 l 345 718 l 351 702 q 299 522 361 673 l 299 522 q 238 271 233 361 l 238 271 q 345 374 249 207 l 345 374 q 492 659 421 504 l 492 659 q 511 703 501 680 q 536 740 521 725 l 536 740 q 616 759 569 776 l 616 759 q 654 785 632 778 q 695 788 675 792 q 728 770 714 784 q 743 731 742 755 l 743 731 q 723 636 746 711 q 679 499 699 561 q 638 364 659 437 l 638 364 q 557 38 587 191 l 557 38 q 530 -15 556 6 q 471 -42 503 -36 q 409 -40 438 -49 l 409 -40 q 372 10 374 -30 l 372 10 q 371 32 372 21 l 371 32 q 322 -26 373 -2 l 322 -26 q 296 -39 308 -33 l 296 -39 q 149 -30 226 -60 l 149 -30 q 85 11 113 -15 q 45 71 56 36 l 45 71 q 58 365 10 183 l 58 365 q 107 517 78 443 q 150 624 136 591 q 169 670 163 657 q 182 694 175 682 l 182 694 q 211 740 199 728 l 211 740 l 223 751 q 227 754 225 753 q 232 756 229 754 l 232 756 q 249 763 240 761 l 249 763 l 263 766 l 269 766 q 319 754 298 770 l 319 754 q 321 753 319 753 l 321 753 l 329 746 l 332 743 l 335 739 q 336 738 335 738 q 336 737 336 738 l 336 737 l 337 736 l 337 734 q 338 733 338 734 l 338 733 l 338 732 q 340 731 339 731 l 340 731 l 340 730 q 341 729 340 729 q 341 729 341 729 q 342 727 341 728 l 342 727 l 342 726 q 343 724 342 725 z m 370 57 l 370 58 l 370 61 q 369 53 369 60 l 369 53 q 370 57 369 56 l 370 57 z m 489 880 q 459 844 479 859 q 417 822 439 828 q 387 815 395 815 q 357 819 379 815 l 357 819 l 356 819 l 354 821 q 312 861 318 837 q 319 908 306 885 q 356 949 331 931 q 398 971 380 967 q 422 975 415 974 q 434 974 428 975 q 446 972 439 973 q 461 968 452 970 l 461 968 l 464 965 q 489 880 513 928 l 489 880 z m 712 899 q 682 857 702 875 q 641 831 661 838 q 614 823 620 823 q 580 828 608 823 l 580 828 l 579 828 q 576 830 578 828 l 576 830 q 534 878 540 849 q 541 933 528 906 q 578 982 553 960 q 620 1007 602 1003 q 644 1011 637 1010 q 656 1010 650 1011 l 656 1010 q 684 1003 663 1010 l 684 1003 q 712 899 734 953 l 712 899 z"},"Ý":{"ha":491,"x_min":3,"x_max":596,"o":"m 120 379 l 120 379 q 106 615 103 524 l 106 615 q 141 697 104 658 l 141 697 q 214 738 176 734 l 214 738 q 268 691 256 741 l 268 691 q 288 626 276 663 q 311 548 300 589 l 311 548 q 346 601 322 563 q 391 669 370 639 l 391 669 q 481 771 442 742 l 481 771 q 547 780 519 786 q 587 759 574 773 q 596 718 599 745 l 596 718 q 500 520 594 655 l 500 520 q 456 448 478 489 q 404 357 433 407 q 347 256 374 306 l 347 256 q 250 41 285 143 l 250 41 q 258 37 251 43 q 271 18 265 30 l 271 18 q 268 -32 287 -12 l 268 -32 q 149 -88 220 -82 l 149 -88 q 37 -64 84 -93 l 37 -64 q 6 3 -10 -37 l 6 3 l 3 3 q 53 111 25 60 q 111 215 81 161 l 111 215 l 156 295 q 128 319 139 291 l 128 319 q 120 379 120 342 z m 420 1012 l 423 1012 q 510 982 482 1008 l 510 982 q 506 924 542 954 l 506 924 q 494 900 503 913 l 494 900 q 390 816 432 838 l 390 816 q 300 800 333 787 l 300 800 q 287 859 266 813 l 287 859 l 293 866 q 342 967 296 904 l 342 967 q 361 988 353 982 l 361 988 q 420 1012 388 1004 l 420 1012 z"},"Þ":{"ha":833,"x_min":0,"x_max":0,"o":""},"ß":{"ha":712,"x_min":-3,"x_max":689,"o":"m 441 472 l 441 472 l 445 473 q 504 522 487 498 l 504 522 q 540 640 533 563 l 540 640 q 538 661 541 652 l 538 661 q 506 670 523 668 q 468 654 489 671 q 426 612 446 637 l 426 612 q 354 499 386 562 l 354 499 l 346 482 q 339 449 342 465 q 334 423 336 433 q 328 403 331 412 l 328 403 q 310 314 326 379 q 289 225 294 249 q 276 162 284 201 q 258 83 268 122 l 258 83 q 211 -66 236 -9 l 211 -66 q 123 -116 177 -108 l 123 -116 q 32 -94 69 -123 l 32 -94 q -3 4 -9 -61 l -3 4 q 53 138 30 63 q 87 256 75 212 q 116 362 98 300 q 161 501 134 423 q 212 656 187 578 l 212 656 q 270 704 231 692 l 270 704 q 340 696 305 715 l 340 696 q 403 758 380 744 q 447 778 426 771 l 447 778 q 518 787 492 793 q 561 778 544 781 q 594 770 578 775 l 594 770 q 688 609 694 735 l 688 609 q 658 478 686 538 l 658 478 q 615 419 646 453 l 615 419 l 610 413 q 672 184 695 331 l 672 184 q 642 79 665 135 q 576 -26 618 22 l 576 -26 q 431 -108 509 -101 l 431 -108 q 380 -108 404 -111 q 335 -95 355 -106 q 300 -64 314 -84 l 300 -64 q 280 50 269 -19 l 280 50 q 351 111 309 102 l 351 111 q 383 116 365 114 l 383 116 l 395 117 q 433 106 420 112 l 433 106 q 486 213 472 153 l 486 213 q 477 328 502 277 l 477 328 l 470 333 l 455 336 q 410 363 428 345 q 387 400 391 380 q 394 439 382 419 q 441 472 406 458 z m 361 550 l 366 563 q 368 571 369 573 q 361 550 366 569 l 361 550 z m 318 366 l 319 371 l 318 366 z m 360 543 l 360 543 q 359 540 359 542 l 359 540 q 360 543 359 542 z"},"à":{"ha":536,"x_min":8,"x_max":524,"o":"m 458 429 l 458 429 l 462 428 q 464 427 464 428 l 464 427 q 507 412 490 437 l 507 412 q 524 360 518 395 l 524 360 q 514 227 526 312 l 514 227 q 489 22 491 55 l 489 22 q 446 -26 491 -13 l 446 -26 q 368 -25 407 -38 l 368 -25 q 334 18 327 -11 l 334 18 q 318 -3 326 3 q 287 -21 310 -10 q 220 -40 263 -33 q 134 -44 177 -48 q 56 -23 91 -41 q 8 31 20 -6 l 8 31 q 14 214 -15 103 l 14 214 q 86 343 34 287 l 86 343 q 222 449 146 407 l 222 449 q 332 486 279 480 l 332 486 q 364 485 350 488 q 393 479 377 482 q 422 470 408 476 l 422 470 q 458 429 458 455 z m 273 164 l 273 164 q 285 199 280 178 q 297 245 289 220 l 297 245 q 173 164 216 212 l 173 164 q 179 91 126 111 l 179 91 q 246 106 225 79 l 246 106 q 262 136 255 118 q 279 173 269 154 l 279 173 q 273 164 276 168 z m 271 663 l 272 664 q 306 737 263 713 l 306 737 q 391 750 344 757 l 391 750 q 446 735 420 749 q 483 695 472 721 l 483 695 q 476 641 475 669 l 476 641 q 477 563 478 581 q 465 536 476 545 q 440 525 454 527 l 440 525 q 385 535 410 521 l 385 535 q 376 549 380 545 l 376 549 q 370 555 372 550 l 370 555 q 344 588 366 566 l 344 588 l 308 624 q 289 637 293 631 l 289 637 q 272 658 281 646 l 272 658 l 271 663 z"},"á":{"ha":536,"x_min":8,"x_max":545,"o":"m 458 429 l 458 429 l 462 428 q 464 427 464 428 l 464 427 q 507 412 490 437 l 507 412 q 524 360 518 395 l 524 360 q 514 227 526 312 l 514 227 q 489 22 491 55 l 489 22 q 446 -26 491 -13 l 446 -26 q 368 -25 407 -38 l 368 -25 q 334 18 327 -11 l 334 18 q 318 -3 326 3 q 287 -21 310 -10 q 220 -40 263 -33 q 134 -44 177 -48 q 56 -23 91 -41 q 8 31 20 -6 l 8 31 q 14 214 -15 103 l 14 214 q 86 343 34 287 l 86 343 q 222 449 146 407 l 222 449 q 332 486 279 480 l 332 486 q 364 485 350 488 q 393 479 377 482 q 422 470 408 476 l 422 470 q 458 429 458 455 z m 273 164 l 273 164 q 285 199 280 178 q 297 245 289 220 l 297 245 q 173 164 216 212 l 173 164 q 179 91 126 111 l 179 91 q 246 106 225 79 l 246 106 q 262 136 255 118 q 279 173 269 154 l 279 173 q 273 164 276 168 z m 454 753 l 457 753 q 544 723 516 749 l 544 723 q 540 665 576 695 l 540 665 q 528 641 537 654 l 528 641 q 424 557 466 579 l 424 557 q 334 541 367 528 l 334 541 q 321 600 300 554 l 321 600 l 327 607 q 376 708 330 645 l 376 708 q 395 729 387 723 l 395 729 q 454 753 422 745 l 454 753 z"},"â":{"ha":561,"x_min":8,"x_max":557,"o":"m 458 429 l 458 429 l 462 428 q 464 427 464 428 l 464 427 q 507 412 490 437 l 507 412 q 524 360 518 395 l 524 360 q 514 227 526 312 l 514 227 q 489 22 491 55 l 489 22 q 446 -26 491 -13 l 446 -26 q 368 -25 407 -38 l 368 -25 q 334 18 327 -11 l 334 18 q 318 -3 326 3 q 287 -21 310 -10 q 220 -40 263 -33 q 134 -44 177 -48 q 56 -23 91 -41 q 8 31 20 -6 l 8 31 q 14 214 -15 103 l 14 214 q 86 343 34 287 l 86 343 q 222 449 146 407 l 222 449 q 332 486 279 480 l 332 486 q 364 485 350 488 q 393 479 377 482 q 422 470 408 476 l 422 470 q 458 429 458 455 z m 273 164 l 273 164 q 285 199 280 178 q 297 245 289 220 l 297 245 q 173 164 216 212 l 173 164 q 179 91 126 111 l 179 91 q 246 106 225 79 l 246 106 q 262 136 255 118 q 279 173 269 154 l 279 173 q 273 164 276 168 z m 452 546 l 452 546 q 457 575 452 558 l 457 575 q 447 610 455 595 q 430 640 438 625 l 430 640 q 359 558 383 582 l 359 558 q 277 515 319 526 l 277 515 q 209 514 231 497 l 209 514 q 198 537 198 521 q 213 576 198 552 l 213 576 q 341 721 301 681 q 404 782 381 761 q 444 819 426 802 q 482 844 461 835 l 482 844 q 555 843 535 867 l 555 843 q 535 795 561 821 l 535 795 l 535 780 q 546 672 546 732 l 546 672 q 555 639 550 657 q 557 602 559 621 l 557 602 q 506 539 552 559 l 506 539 q 473 532 487 532 q 452 546 458 532 z"},"ã":{"ha":542,"x_min":8,"x_max":585,"o":"m 458 429 l 458 429 l 462 428 q 464 427 464 428 l 464 427 q 507 412 490 437 l 507 412 q 524 360 518 395 l 524 360 q 514 227 526 312 l 514 227 q 489 22 491 55 l 489 22 q 446 -26 491 -13 l 446 -26 q 368 -25 407 -38 l 368 -25 q 334 18 327 -11 l 334 18 q 318 -3 326 3 q 287 -21 310 -10 q 220 -40 263 -33 q 134 -44 177 -48 q 56 -23 91 -41 q 8 31 20 -6 l 8 31 q 14 214 -15 103 l 14 214 q 86 343 34 287 l 86 343 q 222 449 146 407 l 222 449 q 332 486 279 480 l 332 486 q 364 485 350 488 q 393 479 377 482 q 422 470 408 476 l 422 470 q 458 429 458 455 z m 273 164 l 273 164 q 285 199 280 178 q 297 245 289 220 l 297 245 q 173 164 216 212 l 173 164 q 179 91 126 111 l 179 91 q 246 106 225 79 l 246 106 q 262 136 255 118 q 279 173 269 154 l 279 173 q 273 164 276 168 z m 219 652 l 219 652 q 251 696 228 672 q 298 731 273 720 l 298 731 l 321 748 q 404 770 376 782 l 404 770 q 427 757 418 765 q 437 729 435 749 l 437 729 q 438 718 434 725 q 447 700 442 711 q 458 679 451 688 l 458 679 q 500 691 479 682 l 500 691 q 516 705 508 698 q 534 719 524 712 q 554 729 543 725 q 573 731 565 732 l 573 731 q 585 695 592 727 l 585 695 q 540 642 576 669 l 540 642 q 480 595 497 601 l 480 595 q 419 593 455 585 l 419 593 q 403 602 411 594 q 384 617 394 609 l 384 617 q 341 629 360 635 l 341 629 q 316 610 329 620 q 291 590 303 599 l 291 590 q 249 576 264 569 l 249 576 q 232 588 240 580 l 232 588 q 219 652 198 605 z m 283 720 l 272 714 q 273 714 269 711 q 283 720 276 716 l 283 720 z"},"ä":{"ha":536,"x_min":8,"x_max":573,"o":"m 458 429 l 458 429 l 462 428 q 464 427 464 428 l 464 427 q 507 412 490 437 l 507 412 q 524 360 518 395 l 524 360 q 514 227 526 312 l 514 227 q 489 22 491 55 l 489 22 q 446 -26 491 -13 l 446 -26 q 368 -25 407 -38 l 368 -25 q 334 18 327 -11 l 334 18 q 318 -3 326 3 q 287 -21 310 -10 q 220 -40 263 -33 q 134 -44 177 -48 q 56 -23 91 -41 q 8 31 20 -6 l 8 31 q 14 214 -15 103 l 14 214 q 86 343 34 287 l 86 343 q 222 449 146 407 l 222 449 q 332 486 279 480 l 332 486 q 364 485 350 488 q 393 479 377 482 q 422 470 408 476 l 422 470 q 458 429 458 455 z m 273 164 l 273 164 q 285 199 280 178 q 297 245 289 220 l 297 245 q 173 164 216 212 l 173 164 q 179 91 126 111 l 179 91 q 246 106 225 79 l 246 106 q 262 136 255 118 q 279 173 269 154 l 279 173 q 273 164 276 168 z m 350 603 q 320 567 340 582 q 278 545 300 551 q 248 538 256 538 q 218 542 240 538 l 218 542 l 217 542 l 215 544 q 173 584 179 560 q 180 631 167 608 q 217 672 192 654 q 259 694 241 690 q 283 698 276 697 q 295 697 289 698 q 307 695 300 696 q 322 691 313 693 l 322 691 l 325 688 q 350 603 374 651 l 350 603 z m 573 622 q 543 580 563 598 q 502 554 522 561 q 475 546 481 546 q 441 551 469 546 l 441 551 l 440 551 q 437 553 439 551 l 437 553 q 395 601 401 572 q 402 656 389 629 q 439 705 414 683 q 481 730 463 726 q 505 734 498 733 q 517 733 511 734 l 517 733 q 545 726 524 733 l 545 726 q 573 622 595 676 l 573 622 z"},"å":{"ha":518,"x_min":8,"x_max":633,"o":"m 458 429 l 458 429 l 462 428 q 464 427 464 428 l 464 427 q 507 412 490 437 l 507 412 q 524 360 518 395 l 524 360 q 514 227 526 312 l 514 227 q 489 22 491 55 l 489 22 q 446 -26 491 -13 l 446 -26 q 368 -25 407 -38 l 368 -25 q 334 18 327 -11 l 334 18 q 318 -3 326 3 q 287 -21 310 -10 q 220 -40 263 -33 q 134 -44 177 -48 q 56 -23 91 -41 q 8 31 20 -6 l 8 31 q 14 214 -15 103 l 14 214 q 86 343 34 287 l 86 343 q 222 449 146 407 l 222 449 q 332 486 279 480 l 332 486 q 364 485 350 488 q 393 479 377 482 q 422 470 408 476 l 422 470 q 458 429 458 455 z m 273 164 l 273 164 q 285 199 280 178 q 297 245 289 220 l 297 245 q 173 164 216 212 l 173 164 q 179 91 126 111 l 179 91 q 246 106 225 79 l 246 106 q 262 136 255 118 q 279 173 269 154 l 279 173 q 273 164 276 168 z m 350 833 l 350 833 q 413 851 382 846 l 413 851 q 474 849 442 849 q 542 832 506 849 q 603 784 578 815 q 633 716 628 752 l 633 716 q 567 573 642 638 l 567 573 q 469 532 534 546 l 469 532 q 369 524 418 521 q 298 531 320 527 q 268 539 276 534 q 250 550 259 544 q 233 559 241 555 l 233 559 q 178 670 173 596 l 178 670 q 224 779 182 733 l 224 779 q 252 800 239 796 q 293 817 264 804 q 350 833 321 829 z m 450 681 l 450 681 q 401 674 433 677 l 401 674 q 383 676 394 676 q 362 677 372 676 l 362 677 q 348 627 339 650 l 348 627 q 362 613 351 619 q 391 610 373 607 q 423 621 408 612 l 423 621 q 451 676 457 642 l 451 676 q 450 681 450 677 z"},"æ":{"ha":806,"x_min":8,"x_max":782,"o":"m 458 429 l 458 429 l 462 428 q 464 427 464 428 l 464 427 q 507 412 490 437 l 507 412 q 524 360 518 395 l 524 360 q 514 227 526 312 l 514 227 q 489 22 491 55 l 489 22 q 446 -26 491 -13 l 446 -26 q 368 -25 407 -38 l 368 -25 q 334 18 327 -11 l 334 18 q 318 -3 326 3 q 287 -21 310 -10 q 220 -40 263 -33 q 134 -44 177 -48 q 56 -23 91 -41 q 8 31 20 -6 l 8 31 q 14 214 -15 103 l 14 214 q 86 343 34 287 l 86 343 q 222 449 146 407 l 222 449 q 332 486 279 480 l 332 486 q 364 485 350 488 q 393 479 377 482 q 422 470 408 476 l 422 470 q 458 429 458 455 z m 273 164 l 273 164 q 285 199 280 178 q 297 245 289 220 l 297 245 q 173 164 216 212 l 173 164 q 179 91 126 111 l 179 91 q 246 106 225 79 l 246 106 q 262 136 255 118 q 279 173 269 154 l 279 173 q 273 164 276 168 z m 661 133 l 661 133 q 624 119 642 124 q 582 109 606 114 l 582 109 q 491 94 519 96 l 491 94 q 521 70 494 84 l 521 70 q 561 76 539 67 q 606 92 582 84 q 652 100 629 99 q 694 83 674 101 l 694 83 q 707 62 702 65 q 716 59 712 59 q 725 56 720 59 q 740 33 730 53 q 735 -5 749 13 q 690 -36 720 -23 q 620 -57 660 -49 q 540 -68 580 -65 l 540 -68 q 403 -54 450 -75 l 403 -54 q 315 37 335 -31 l 315 37 q 344 247 289 127 l 344 247 q 423 367 369 303 l 423 367 q 528 448 470 423 l 528 448 q 668 475 595 477 l 668 475 q 776 407 746 473 l 776 407 q 782 309 791 372 l 782 309 q 740 193 766 227 l 740 193 q 661 133 714 160 z m 603 291 l 603 291 q 520 231 550 302 l 520 231 q 506 191 511 212 l 506 191 q 578 229 540 187 l 578 229 q 599 264 592 246 q 603 291 606 281 z"},"ç":{"ha":430,"x_min":-25,"x_max":473,"o":"m 410 491 l 410 491 q 463 464 449 486 q 473 416 476 441 q 455 370 470 390 q 420 348 439 349 l 420 348 q 398 319 413 327 q 365 308 383 311 q 328 302 347 305 q 291 284 308 298 q 263 257 274 270 q 244 230 251 243 l 244 230 q 223 176 232 208 l 223 176 q 244 135 221 154 l 244 135 q 303 117 271 114 q 355 114 335 119 q 384 98 374 108 l 384 98 q 380 45 406 75 l 380 45 q 212 -50 330 -35 l 212 -50 q 142 -52 177 -55 q 74 -26 107 -50 q 22 39 41 -2 l 22 39 q 29 258 -20 133 l 29 258 q 170 438 76 375 l 170 438 q 410 491 273 508 z m 98 -192 l 98 -192 q 113 -191 107 -191 l 113 -191 l 114 -191 q 206 -175 181 -188 q 209 -149 231 -162 l 209 -149 q 163 -148 188 -149 q 119 -140 138 -148 l 119 -140 q 95 -65 73 -120 l 95 -65 q 115 -35 105 -46 l 115 -35 q 137 -8 122 -24 l 137 -8 q 182 6 160 11 l 182 6 q 193 -33 205 1 l 193 -33 l 189 -39 q 186 -47 191 -38 q 177 -67 181 -57 l 177 -67 q 205 -74 190 -68 q 234 -82 220 -79 l 234 -82 q 266 -93 251 -88 q 292 -106 281 -98 l 292 -106 q 316 -162 314 -124 l 316 -162 q 286 -235 320 -198 l 286 -235 q 216 -286 269 -253 l 216 -286 q 68 -317 160 -318 l 68 -317 q 24 -311 42 -316 l 24 -311 q -11 -293 5 -309 q -24 -239 -26 -276 l -24 -239 q -9 -197 -15 -205 l -9 -197 q 31 -172 4 -180 l 31 -172 q 65 -169 55 -164 q 81 -180 75 -174 q 98 -192 88 -185 z"},"è":{"ha":458,"x_min":3,"x_max":470,"o":"m 349 148 l 349 148 q 312 134 330 139 q 270 124 294 129 l 270 124 q 179 109 207 111 l 179 109 q 209 85 182 99 l 209 85 q 249 91 227 82 q 294 107 270 99 q 340 115 317 114 q 382 98 362 116 l 382 98 q 395 77 390 80 q 404 74 400 74 q 413 71 408 74 q 428 48 418 68 q 423 10 437 28 q 378 -21 408 -8 q 308 -42 348 -34 q 228 -53 268 -50 l 228 -53 q 91 -39 138 -60 l 91 -39 q 3 52 23 -16 l 3 52 q 32 262 -23 142 l 32 262 q 111 382 57 318 l 111 382 q 216 463 158 438 l 216 463 q 356 490 283 492 l 356 490 q 464 422 434 488 l 464 422 q 470 324 479 387 l 470 324 q 428 208 454 242 l 428 208 q 349 148 402 175 z m 291 306 l 291 306 q 208 246 238 317 l 208 246 q 194 206 199 227 l 194 206 q 266 244 228 202 l 266 244 q 287 279 280 261 q 291 306 294 296 z m 247 711 l 248 712 q 282 785 239 761 l 282 785 q 367 798 320 805 l 367 798 q 422 783 396 797 q 459 743 448 769 l 459 743 q 452 689 451 717 l 452 689 q 453 611 454 629 q 441 584 452 593 q 416 573 430 575 l 416 573 q 361 583 386 569 l 361 583 q 352 597 356 593 l 352 597 q 346 603 348 598 l 346 603 q 320 636 342 614 l 320 636 l 284 672 q 265 685 269 679 l 265 685 q 248 706 257 694 l 248 706 l 247 711 z"},"é":{"ha":458,"x_min":3,"x_max":507,"o":"m 349 148 l 349 148 q 312 134 330 139 q 270 124 294 129 l 270 124 q 179 109 207 111 l 179 109 q 209 85 182 99 l 209 85 q 249 91 227 82 q 294 107 270 99 q 340 115 317 114 q 382 98 362 116 l 382 98 q 395 77 390 80 q 404 74 400 74 q 413 71 408 74 q 428 48 418 68 q 423 10 437 28 q 378 -21 408 -8 q 308 -42 348 -34 q 228 -53 268 -50 l 228 -53 q 91 -39 138 -60 l 91 -39 q 3 52 23 -16 l 3 52 q 32 262 -23 142 l 32 262 q 111 382 57 318 l 111 382 q 216 463 158 438 l 216 463 q 356 490 283 492 l 356 490 q 464 422 434 488 l 464 422 q 470 324 479 387 l 470 324 q 428 208 454 242 l 428 208 q 349 148 402 175 z m 291 306 l 291 306 q 208 246 238 317 l 208 246 q 194 206 199 227 l 194 206 q 266 244 228 202 l 266 244 q 287 279 280 261 q 291 306 294 296 z m 416 780 l 419 780 q 506 750 478 776 l 506 750 q 502 692 538 722 l 502 692 q 490 668 499 681 l 490 668 q 386 584 428 606 l 386 584 q 296 568 329 555 l 296 568 q 283 627 262 581 l 283 627 l 289 634 q 338 735 292 672 l 338 735 q 357 756 349 750 l 357 756 q 416 780 384 772 l 416 780 z"},"ê":{"ha":458,"x_min":3,"x_max":535,"o":"m 349 148 l 349 148 q 312 134 330 139 q 270 124 294 129 l 270 124 q 179 109 207 111 l 179 109 q 209 85 182 99 l 209 85 q 249 91 227 82 q 294 107 270 99 q 340 115 317 114 q 382 98 362 116 l 382 98 q 395 77 390 80 q 404 74 400 74 q 413 71 408 74 q 428 48 418 68 q 423 10 437 28 q 378 -21 408 -8 q 308 -42 348 -34 q 228 -53 268 -50 l 228 -53 q 91 -39 138 -60 l 91 -39 q 3 52 23 -16 l 3 52 q 32 262 -23 142 l 32 262 q 111 382 57 318 l 111 382 q 216 463 158 438 l 216 463 q 356 490 283 492 l 356 490 q 464 422 434 488 l 464 422 q 470 324 479 387 l 470 324 q 428 208 454 242 l 428 208 q 349 148 402 175 z m 291 306 l 291 306 q 208 246 238 317 l 208 246 q 194 206 199 227 l 194 206 q 266 244 228 202 l 266 244 q 287 279 280 261 q 291 306 294 296 z m 430 536 l 430 536 q 435 565 430 548 l 435 565 q 425 600 433 585 q 408 630 416 615 l 408 630 q 337 548 361 572 l 337 548 q 255 505 297 516 l 255 505 q 187 504 209 487 l 187 504 q 176 527 176 511 q 191 566 176 542 l 191 566 q 319 711 279 671 q 382 772 359 751 q 422 809 404 792 q 460 834 439 825 l 460 834 q 533 833 513 857 l 533 833 q 513 785 539 811 l 513 785 l 513 770 q 524 662 524 722 l 524 662 q 533 629 528 647 q 535 592 537 611 l 535 592 q 484 529 530 549 l 484 529 q 451 522 465 522 q 430 536 436 522 z"},"ë":{"ha":458,"x_min":3,"x_max":561,"o":"m 349 148 l 349 148 q 312 134 330 139 q 270 124 294 129 l 270 124 q 179 109 207 111 l 179 109 q 209 85 182 99 l 209 85 q 249 91 227 82 q 294 107 270 99 q 340 115 317 114 q 382 98 362 116 l 382 98 q 395 77 390 80 q 404 74 400 74 q 413 71 408 74 q 428 48 418 68 q 423 10 437 28 q 378 -21 408 -8 q 308 -42 348 -34 q 228 -53 268 -50 l 228 -53 q 91 -39 138 -60 l 91 -39 q 3 52 23 -16 l 3 52 q 32 262 -23 142 l 32 262 q 111 382 57 318 l 111 382 q 216 463 158 438 l 216 463 q 356 490 283 492 l 356 490 q 464 422 434 488 l 464 422 q 470 324 479 387 l 470 324 q 428 208 454 242 l 428 208 q 349 148 402 175 z m 291 306 l 291 306 q 208 246 238 317 l 208 246 q 194 206 199 227 l 194 206 q 266 244 228 202 l 266 244 q 287 279 280 261 q 291 306 294 296 z m 338 602 q 308 566 328 581 q 266 544 288 550 q 236 537 244 537 q 206 541 228 537 l 206 541 l 205 541 l 203 543 q 161 583 167 559 q 168 630 155 607 q 205 671 180 653 q 247 693 229 689 q 271 697 264 696 q 283 696 277 697 q 295 694 288 695 q 310 690 301 692 l 310 690 l 313 687 q 338 602 362 650 l 338 602 z m 561 621 q 531 579 551 597 q 490 553 510 560 q 463 545 469 545 q 429 550 457 545 l 429 550 l 428 550 q 425 552 427 550 l 425 552 q 383 600 389 571 q 390 655 377 628 q 427 704 402 682 q 469 729 451 725 q 493 733 486 732 q 505 732 499 733 l 505 732 q 533 725 512 732 l 533 725 q 561 621 583 675 l 561 621 z"},"ì":{"ha":291,"x_min":4,"x_max":403,"o":"m 142 433 l 142 433 q 204 478 155 466 l 204 478 q 290 475 250 490 l 290 475 q 327 423 331 459 l 327 423 q 300 339 316 388 q 268 238 283 290 l 268 238 q 222 52 228 108 l 222 52 q 188 -42 222 -36 l 188 -42 q 170 -44 179 -43 l 170 -44 q 139 -64 146 -47 l 139 -64 q 86 -86 135 -92 l 86 -86 q 8 -46 37 -80 l 8 -46 q 4 40 -25 -8 l 4 40 q 82 303 30 162 l 82 303 q 142 433 116 393 z m 191 701 l 192 702 q 226 775 183 751 l 226 775 q 311 788 264 795 l 311 788 q 366 773 340 787 q 403 733 392 759 l 403 733 q 396 679 395 707 l 396 679 q 397 601 398 619 q 385 574 396 583 q 360 563 374 565 l 360 563 q 305 573 330 559 l 305 573 q 296 587 300 583 l 296 587 q 290 594 292 588 l 290 594 q 264 626 286 604 l 264 626 l 228 662 q 208 675 213 670 l 208 675 q 192 696 201 684 l 192 696 l 191 701 z"},"í":{"ha":291,"x_min":4,"x_max":433,"o":"m 142 433 l 142 433 q 204 478 155 466 l 204 478 q 290 475 250 490 l 290 475 q 327 423 331 459 l 327 423 q 300 339 316 388 q 268 238 283 290 l 268 238 q 222 52 228 108 l 222 52 q 188 -42 222 -36 l 188 -42 q 170 -44 179 -43 l 170 -44 q 139 -64 146 -47 l 139 -64 q 86 -86 135 -92 l 86 -86 q 8 -46 37 -80 l 8 -46 q 4 40 -25 -8 l 4 40 q 82 303 30 162 l 82 303 q 142 433 116 393 z m 342 761 l 345 761 q 432 731 404 757 l 432 731 q 428 673 464 703 l 428 673 q 416 649 425 662 l 416 649 q 312 566 354 587 l 312 566 q 222 548 255 536 l 222 548 q 209 608 188 562 l 209 608 l 215 615 q 264 716 218 653 l 264 716 q 283 737 275 731 l 283 737 q 342 761 310 753 l 342 761 z"},"î":{"ha":291,"x_min":4,"x_max":450,"o":"m 142 433 l 142 433 q 204 478 155 466 l 204 478 q 290 475 250 490 l 290 475 q 327 423 331 459 l 327 423 q 300 339 316 388 q 268 238 283 290 l 268 238 q 222 52 228 108 l 222 52 q 188 -42 222 -36 l 188 -42 q 170 -44 179 -43 l 170 -44 q 139 -64 146 -47 l 139 -64 q 86 -86 135 -92 l 86 -86 q 8 -46 37 -80 l 8 -46 q 4 40 -25 -8 l 4 40 q 82 303 30 162 l 82 303 q 142 433 116 393 z m 345 543 l 345 543 q 350 572 345 554 l 350 572 q 340 607 348 592 q 323 637 331 622 l 323 637 q 252 555 276 579 l 252 555 q 170 512 212 523 l 170 512 q 102 510 124 494 l 102 510 q 91 534 91 518 q 106 573 91 549 l 106 573 q 234 718 194 678 q 297 779 274 758 q 337 816 319 799 q 375 841 354 832 l 375 841 q 448 840 428 864 l 448 840 q 428 792 454 818 l 428 792 l 428 777 q 439 669 439 729 l 439 669 q 448 636 443 654 q 450 600 452 618 l 450 600 q 399 536 445 556 l 399 536 q 366 529 380 529 q 345 543 351 529 z"},"ï":{"ha":291,"x_min":4,"x_max":496,"o":"m 142 433 l 142 433 q 204 478 155 466 l 204 478 q 290 475 250 490 l 290 475 q 327 423 331 459 l 327 423 q 300 339 316 388 q 268 238 283 290 l 268 238 q 222 52 228 108 l 222 52 q 188 -42 222 -36 l 188 -42 q 170 -44 179 -43 l 170 -44 q 139 -64 146 -47 l 139 -64 q 86 -86 135 -92 l 86 -86 q 8 -46 37 -80 l 8 -46 q 4 40 -25 -8 l 4 40 q 82 303 30 162 l 82 303 q 142 433 116 393 z m 273 628 q 243 592 263 607 q 201 570 223 576 q 171 563 179 563 q 141 567 163 563 l 141 567 l 140 567 l 138 569 q 96 609 102 585 q 103 656 90 633 q 140 697 115 679 q 182 719 164 715 q 206 723 199 722 q 218 722 212 723 q 230 720 223 721 q 245 716 236 718 l 245 716 l 248 713 q 273 628 297 676 l 273 628 z m 496 647 q 466 605 486 623 q 425 579 445 586 q 398 571 404 571 q 364 576 392 571 l 364 576 l 363 576 q 360 578 362 576 l 360 578 q 318 626 324 597 q 325 681 312 654 q 362 730 337 708 q 404 755 386 751 q 428 759 421 758 q 440 758 434 759 l 440 758 q 468 751 447 758 l 468 751 q 496 647 518 701 l 496 647 z"},"ð":{"ha":667,"x_min":19,"x_max":655,"o":"m 306 558 l 306 558 q 209 666 184 625 l 209 666 q 254 689 218 680 l 254 689 q 362 659 287 689 l 362 659 q 395 648 379 652 l 395 648 q 395 647 396 648 q 394 645 393 645 l 394 645 q 447 682 421 664 q 498 709 472 700 l 498 709 q 602 688 554 729 l 602 688 q 644 618 651 659 l 644 618 q 622 579 640 598 q 570 547 604 560 l 570 547 q 564 547 568 545 l 564 547 q 617 449 606 494 l 617 449 q 654 230 648 348 l 654 230 q 602 12 663 76 l 602 12 q 415 -98 539 -54 l 415 -98 q 207 -140 304 -138 l 207 -140 q 199 -139 198 -140 q 202 -137 199 -139 q 204 -134 204 -136 q 195 -132 204 -133 l 195 -132 q 114 -71 135 -110 l 114 -71 q 39 -6 76 -53 l 39 -6 q 19 200 -29 88 l 19 200 q 81 292 40 250 q 160 352 121 333 q 219 379 199 370 q 256 393 238 387 l 256 393 q 321 407 280 401 l 321 407 q 416 420 390 419 l 416 420 q 360 489 388 464 l 360 489 q 293 458 327 472 q 232 444 259 443 l 232 444 q 220 454 220 445 q 228 474 220 462 l 228 474 q 279 533 243 495 l 279 533 q 289 542 281 538 l 289 542 q 297 550 293 546 q 306 558 301 553 z m 162 24 l 169 18 q 240 29 194 27 l 240 29 q 267 28 261 26 q 281 32 272 29 l 281 32 l 308 39 q 371 96 348 65 l 371 96 q 448 314 457 197 l 448 314 q 415 313 432 315 q 375 308 398 311 q 314 292 351 304 q 241 262 277 280 q 175 219 205 243 q 129 165 144 195 l 129 165 q 162 24 95 98 l 162 24 z m 260 450 l 260 450 q 258 450 258 450 l 258 450 q 260 450 259 450 z"},"ñ":{"ha":642,"x_min":-12,"x_max":650,"o":"m 167 433 l 167 433 q 257 434 234 460 l 257 434 q 269 395 269 420 l 269 395 l 269 390 q 398 462 306 433 l 398 462 q 558 479 495 492 l 558 479 q 650 372 640 462 l 650 372 q 615 179 658 296 l 615 179 q 594 131 601 149 q 580 97 586 112 l 580 97 q 539 30 567 69 l 539 30 q 490 -16 523 0 q 424 -34 456 -32 q 370 -24 391 -37 q 358 15 349 -12 l 358 15 q 396 128 381 77 q 427 215 411 179 l 427 215 q 431 279 442 266 l 431 279 q 400 276 422 289 l 400 276 q 373 248 381 264 l 373 248 q 305 144 355 235 l 305 144 q 278 95 291 119 q 253 49 264 70 q 233 14 241 28 q 218 -4 224 0 q 207 -10 211 -9 q 199 -14 202 -12 q 194 -27 196 -16 l 194 -27 q 146 -61 190 -50 l 146 -61 q 18 -55 75 -79 l 18 -55 q -12 -33 -1 -47 l -12 -33 q 67 280 -35 13 l 67 280 q 114 392 103 374 l 114 392 q 147 435 139 430 q 167 433 154 440 z m 208 613 l 208 613 q 240 657 217 633 q 287 692 262 681 l 287 692 l 310 709 q 393 731 365 743 l 393 731 q 416 718 407 726 q 426 690 424 710 l 426 690 q 427 679 423 686 q 436 661 431 672 q 447 640 440 649 l 447 640 q 489 652 468 643 l 489 652 q 505 666 497 659 q 523 680 513 673 q 543 690 532 686 q 562 692 554 693 l 562 692 q 574 656 581 688 l 574 656 q 529 603 565 630 l 529 603 q 469 556 486 562 l 469 556 q 408 554 444 546 l 408 554 q 392 563 400 555 q 373 578 383 570 l 373 578 q 330 590 349 596 l 330 590 q 305 571 318 581 q 280 551 292 560 l 280 551 q 238 537 253 530 l 238 537 q 221 549 229 541 l 221 549 q 208 613 187 566 z m 272 681 l 261 675 q 262 675 258 672 q 272 681 265 677 l 272 681 z"},"ò":{"ha":512,"x_min":11,"x_max":513,"o":"m 140 427 l 140 427 q 192 434 161 442 l 192 434 q 204 433 198 433 l 204 433 q 280 480 226 478 l 280 480 q 319 485 294 481 q 380 483 344 489 q 442 462 415 477 l 442 462 q 513 370 501 430 l 513 370 q 506 178 537 282 l 506 178 q 394 -6 473 63 l 394 -6 q 318 -46 358 -38 q 246 -56 278 -55 q 188 -56 214 -57 q 136 -51 161 -56 l 136 -51 q 47 0 82 -40 l 47 0 q 12 140 6 45 l 12 140 q 55 310 16 224 q 140 427 93 395 z m 316 226 l 316 226 q 269 219 291 218 l 269 219 q 250 196 258 208 q 227 173 241 183 q 213 164 213 162 l 213 164 q 185 115 196 140 q 185 63 174 89 l 185 63 q 244 65 225 59 q 280 88 263 71 q 305 128 296 105 l 305 128 q 316 226 323 171 z m 268 696 l 269 697 q 303 770 260 746 l 303 770 q 388 783 341 790 l 388 783 q 443 768 417 782 q 480 728 469 754 l 480 728 q 473 674 472 702 l 473 674 q 474 596 475 614 q 462 569 473 578 q 437 558 451 560 l 437 558 q 382 568 407 554 l 382 568 q 373 582 377 578 l 373 582 q 367 588 369 583 l 367 588 q 341 621 363 599 l 341 621 l 305 657 q 286 670 290 664 l 286 670 q 269 691 278 679 l 269 691 l 268 696 z"},"ó":{"ha":512,"x_min":11,"x_max":513,"o":"m 140 427 l 140 427 q 192 434 161 442 l 192 434 q 204 433 198 433 l 204 433 q 280 480 226 478 l 280 480 q 319 485 294 481 q 380 483 344 489 q 442 462 415 477 l 442 462 q 513 370 501 430 l 513 370 q 506 178 537 282 l 506 178 q 394 -6 473 63 l 394 -6 q 318 -46 358 -38 q 246 -56 278 -55 q 188 -56 214 -57 q 136 -51 161 -56 l 136 -51 q 47 0 82 -40 l 47 0 q 12 140 6 45 l 12 140 q 55 310 16 224 q 140 427 93 395 z m 316 226 l 316 226 q 269 219 291 218 l 269 219 q 250 196 258 208 q 227 173 241 183 q 213 164 213 162 l 213 164 q 185 115 196 140 q 185 63 174 89 l 185 63 q 244 65 225 59 q 280 88 263 71 q 305 128 296 105 l 305 128 q 316 226 323 171 z m 421 771 l 424 771 q 511 741 483 767 l 511 741 q 507 683 543 713 l 507 683 q 495 659 504 672 l 495 659 q 391 575 433 597 l 391 575 q 301 559 334 546 l 301 559 q 288 618 267 572 l 288 618 l 294 625 q 343 726 297 663 l 343 726 q 362 747 354 741 l 362 747 q 421 771 389 763 l 421 771 z"},"ô":{"ha":512,"x_min":11,"x_max":529,"o":"m 140 427 l 140 427 q 192 434 161 442 l 192 434 q 204 433 198 433 l 204 433 q 280 480 226 478 l 280 480 q 319 485 294 481 q 380 483 344 489 q 442 462 415 477 l 442 462 q 513 370 501 430 l 513 370 q 506 178 537 282 l 506 178 q 394 -6 473 63 l 394 -6 q 318 -46 358 -38 q 246 -56 278 -55 q 188 -56 214 -57 q 136 -51 161 -56 l 136 -51 q 47 0 82 -40 l 47 0 q 12 140 6 45 l 12 140 q 55 310 16 224 q 140 427 93 395 z m 316 226 l 316 226 q 269 219 291 218 l 269 219 q 250 196 258 208 q 227 173 241 183 q 213 164 213 162 l 213 164 q 185 115 196 140 q 185 63 174 89 l 185 63 q 244 65 225 59 q 280 88 263 71 q 305 128 296 105 l 305 128 q 316 226 323 171 z m 424 549 l 424 549 q 429 578 424 561 l 429 578 q 419 613 427 598 q 402 643 410 628 l 402 643 q 331 561 355 585 l 331 561 q 249 518 291 529 l 249 518 q 181 517 203 500 l 181 517 q 170 540 170 524 q 185 579 170 555 l 185 579 q 313 724 273 684 q 376 785 353 764 q 416 822 398 805 q 454 847 433 838 l 454 847 q 527 846 507 870 l 527 846 q 507 798 533 824 l 507 798 l 507 783 q 518 675 518 735 l 518 675 q 527 642 522 660 q 529 605 531 624 l 529 605 q 478 542 524 562 l 478 542 q 445 535 459 535 q 424 549 430 535 z"},"õ":{"ha":512,"x_min":11,"x_max":560,"o":"m 140 427 l 140 427 q 192 434 161 442 l 192 434 q 204 433 198 433 l 204 433 q 280 480 226 478 l 280 480 q 319 485 294 481 q 380 483 344 489 q 442 462 415 477 l 442 462 q 513 370 501 430 l 513 370 q 506 178 537 282 l 506 178 q 394 -6 473 63 l 394 -6 q 318 -46 358 -38 q 246 -56 278 -55 q 188 -56 214 -57 q 136 -51 161 -56 l 136 -51 q 47 0 82 -40 l 47 0 q 12 140 6 45 l 12 140 q 55 310 16 224 q 140 427 93 395 z m 316 226 l 316 226 q 269 219 291 218 l 269 219 q 250 196 258 208 q 227 173 241 183 q 213 164 213 162 l 213 164 q 185 115 196 140 q 185 63 174 89 l 185 63 q 244 65 225 59 q 280 88 263 71 q 305 128 296 105 l 305 128 q 316 226 323 171 z m 194 631 l 194 631 q 226 675 203 651 q 273 710 248 699 l 273 710 l 296 727 q 379 749 351 761 l 379 749 q 402 736 393 744 q 412 708 410 728 l 412 708 q 413 697 409 704 q 422 679 417 690 q 433 658 426 667 l 433 658 q 475 670 454 661 l 475 670 q 491 684 483 677 q 509 698 499 691 q 529 708 518 704 q 548 710 540 711 l 548 710 q 560 674 567 706 l 560 674 q 515 621 551 648 l 515 621 q 455 574 472 580 l 455 574 q 394 572 430 564 l 394 572 q 378 581 386 573 q 359 596 369 588 l 359 596 q 316 608 335 614 l 316 608 q 291 589 304 599 q 266 569 278 578 l 266 569 q 224 555 239 548 l 224 555 q 207 567 215 559 l 207 567 q 194 631 173 584 z m 258 699 l 247 693 q 248 693 244 690 q 258 699 251 695 l 258 699 z"},"ö":{"ha":512,"x_min":11,"x_max":579,"o":"m 140 427 l 140 427 q 192 434 161 442 l 192 434 q 204 433 198 433 l 204 433 q 280 480 226 478 l 280 480 q 319 485 294 481 q 380 483 344 489 q 442 462 415 477 l 442 462 q 513 370 501 430 l 513 370 q 506 178 537 282 l 506 178 q 394 -6 473 63 l 394 -6 q 318 -46 358 -38 q 246 -56 278 -55 q 188 -56 214 -57 q 136 -51 161 -56 l 136 -51 q 47 0 82 -40 l 47 0 q 12 140 6 45 l 12 140 q 55 310 16 224 q 140 427 93 395 z m 316 226 l 316 226 q 269 219 291 218 l 269 219 q 250 196 258 208 q 227 173 241 183 q 213 164 213 162 l 213 164 q 185 115 196 140 q 185 63 174 89 l 185 63 q 244 65 225 59 q 280 88 263 71 q 305 128 296 105 l 305 128 q 316 226 323 171 z m 356 623 q 326 587 346 602 q 284 565 306 571 q 254 558 262 558 q 224 562 246 558 l 224 562 l 223 562 l 221 564 q 179 604 185 580 q 186 651 173 628 q 223 692 198 674 q 265 714 247 710 q 289 718 282 717 q 301 717 295 718 q 313 715 306 716 q 328 711 319 713 l 328 711 l 331 708 q 356 623 380 671 l 356 623 z m 579 642 q 549 600 569 618 q 508 574 528 581 q 481 566 487 566 q 447 571 475 566 l 447 571 l 446 571 q 443 573 445 571 l 443 573 q 401 621 407 592 q 408 676 395 649 q 445 725 420 703 q 487 750 469 746 q 511 754 504 753 q 523 753 517 754 l 523 753 q 551 746 530 753 l 551 746 q 579 642 601 696 l 579 642 z"},"ø":{"ha":512,"x_min":-10,"x_max":536,"o":"m 140 427 l 140 427 q 192 434 161 442 l 192 434 q 204 433 198 433 l 204 433 q 280 480 226 478 l 280 480 q 319 485 294 481 q 380 483 344 489 q 442 462 415 477 l 442 462 q 513 370 501 430 l 513 370 q 506 178 537 282 l 506 178 q 394 -6 473 63 l 394 -6 q 318 -46 358 -38 q 246 -56 278 -55 q 188 -56 214 -57 q 136 -51 161 -56 l 136 -51 q 47 0 82 -40 l 47 0 q 12 140 6 45 l 12 140 q 55 310 16 224 q 140 427 93 395 z m 316 226 l 316 226 q 269 219 291 218 l 269 219 q 250 196 258 208 q 227 173 241 183 q 213 164 213 162 l 213 164 q 185 115 196 140 q 185 63 174 89 l 185 63 q 244 65 225 59 q 280 88 263 71 q 305 128 296 105 l 305 128 q 316 226 323 171 z m 274 450 q 314 526 300 497 q 337 569 328 554 q 349 587 346 584 q 354 594 352 590 l 354 594 q 371 628 352 612 q 433 653 389 644 l 433 653 l 438 653 q 495 643 479 651 l 495 643 q 536 596 524 630 l 536 596 q 529 569 538 582 q 511 546 521 556 l 511 546 q 499 496 521 521 l 499 496 q 442 431 467 465 q 383 350 417 396 q 309 239 349 303 q 229 111 269 176 l 229 111 q 62 -132 128 -51 l 62 -132 q 25 -137 50 -148 l 25 -137 q -9 -100 0 -126 l -9 -100 q 0 -35 -21 -69 l 0 -35 q 135 220 52 82 l 135 220 q 210 342 172 281 q 274 450 247 403 z"},"ù":{"ha":606,"x_min":5,"x_max":657,"o":"m 130 439 l 130 439 q 193 471 158 466 q 254 463 227 475 q 293 425 280 451 q 289 364 305 398 l 289 364 q 235 256 255 314 q 198 139 215 198 l 198 139 q 352 312 290 197 l 352 312 q 391 381 370 346 l 391 381 l 406 409 l 436 457 q 457 482 442 476 q 490 487 472 487 q 525 487 507 487 q 558 496 543 486 q 594 504 573 506 q 631 490 614 501 q 656 464 647 479 q 657 433 664 448 l 657 433 q 542 98 615 343 l 542 98 q 510 6 525 43 l 510 6 q 447 -36 485 -25 q 376 -42 409 -47 q 322 -19 342 -38 q 313 27 302 -1 l 313 27 q 255 -15 285 4 q 183 -40 225 -34 q 101 -36 140 -46 q 35 0 62 -27 q 5 72 7 27 l 5 72 q 130 439 -1 230 z m 297 714 l 298 715 q 332 788 289 764 l 332 788 q 417 801 370 808 l 417 801 q 472 786 446 800 q 509 746 498 772 l 509 746 q 502 692 501 720 l 502 692 q 503 614 504 632 q 491 587 502 596 q 466 576 480 578 l 466 576 q 411 586 436 572 l 411 586 q 402 600 406 596 l 402 600 q 396 606 398 601 l 396 606 q 370 639 392 617 l 370 639 l 334 675 q 315 688 319 682 l 315 688 q 298 709 307 697 l 298 709 l 297 714 z"},"ú":{"ha":606,"x_min":5,"x_max":657,"o":"m 130 439 l 130 439 q 193 471 158 466 q 254 463 227 475 q 293 425 280 451 q 289 364 305 398 l 289 364 q 235 256 255 314 q 198 139 215 198 l 198 139 q 352 312 290 197 l 352 312 q 391 381 370 346 l 391 381 l 406 409 l 436 457 q 457 482 442 476 q 490 487 472 487 q 525 487 507 487 q 558 496 543 486 q 594 504 573 506 q 631 490 614 501 q 656 464 647 479 q 657 433 664 448 l 657 433 q 542 98 615 343 l 542 98 q 510 6 525 43 l 510 6 q 447 -36 485 -25 q 376 -42 409 -47 q 322 -19 342 -38 q 313 27 302 -1 l 313 27 q 255 -15 285 4 q 183 -40 225 -34 q 101 -36 140 -46 q 35 0 62 -27 q 5 72 7 27 l 5 72 q 130 439 -1 230 z m 474 783 l 477 783 q 564 753 536 779 l 564 753 q 560 695 596 725 l 560 695 q 548 671 557 684 l 548 671 q 444 587 486 609 l 444 587 q 354 571 387 558 l 354 571 q 341 630 320 584 l 341 630 l 347 637 q 396 738 350 675 l 396 738 q 415 759 407 753 l 415 759 q 474 783 442 775 l 474 783 z"},"û":{"ha":606,"x_min":5,"x_max":657,"o":"m 130 439 l 130 439 q 193 471 158 466 q 254 463 227 475 q 293 425 280 451 q 289 364 305 398 l 289 364 q 235 256 255 314 q 198 139 215 198 l 198 139 q 352 312 290 197 l 352 312 q 391 381 370 346 l 391 381 l 406 409 l 436 457 q 457 482 442 476 q 490 487 472 487 q 525 487 507 487 q 558 496 543 486 q 594 504 573 506 q 631 490 614 501 q 656 464 647 479 q 657 433 664 448 l 657 433 q 542 98 615 343 l 542 98 q 510 6 525 43 l 510 6 q 447 -36 485 -25 q 376 -42 409 -47 q 322 -19 342 -38 q 313 27 302 -1 l 313 27 q 255 -15 285 4 q 183 -40 225 -34 q 101 -36 140 -46 q 35 0 62 -27 q 5 72 7 27 l 5 72 q 130 439 -1 230 z m 516 545 l 516 545 q 521 574 516 557 l 521 574 q 511 609 519 594 q 494 639 502 624 l 494 639 q 423 557 447 581 l 423 557 q 341 514 383 525 l 341 514 q 273 513 295 496 l 273 513 q 262 536 262 520 q 277 575 262 551 l 277 575 q 405 720 365 680 q 468 781 445 760 q 508 818 490 801 q 546 843 525 834 l 546 843 q 619 842 599 866 l 619 842 q 599 794 625 820 l 599 794 l 599 779 q 610 671 610 731 l 610 671 q 619 638 614 656 q 621 601 623 620 l 621 601 q 570 538 616 558 l 570 538 q 537 531 551 531 q 516 545 522 531 z"},"ü":{"ha":606,"x_min":5,"x_max":657,"o":"m 130 439 l 130 439 q 193 471 158 466 q 254 463 227 475 q 293 425 280 451 q 289 364 305 398 l 289 364 q 235 256 255 314 q 198 139 215 198 l 198 139 q 352 312 290 197 l 352 312 q 391 381 370 346 l 391 381 l 406 409 l 436 457 q 457 482 442 476 q 490 487 472 487 q 525 487 507 487 q 558 496 543 486 q 594 504 573 506 q 631 490 614 501 q 656 464 647 479 q 657 433 664 448 l 657 433 q 542 98 615 343 l 542 98 q 510 6 525 43 l 510 6 q 447 -36 485 -25 q 376 -42 409 -47 q 322 -19 342 -38 q 313 27 302 -1 l 313 27 q 255 -15 285 4 q 183 -40 225 -34 q 101 -36 140 -46 q 35 0 62 -27 q 5 72 7 27 l 5 72 q 130 439 -1 230 z m 414 629 q 384 593 404 608 q 342 571 364 577 q 312 564 320 564 q 282 568 304 564 l 282 568 l 281 568 l 279 570 q 237 610 243 586 q 244 657 231 634 q 281 698 256 680 q 323 720 305 716 q 347 724 340 723 q 359 723 353 724 q 371 721 364 722 q 386 717 377 719 l 386 717 l 389 714 q 414 629 438 677 l 414 629 z m 637 648 q 607 606 627 624 q 566 580 586 587 q 539 572 545 572 q 505 577 533 572 l 505 577 l 504 577 q 501 579 503 577 l 501 579 q 459 627 465 598 q 466 682 453 655 q 503 731 478 709 q 545 756 527 752 q 569 760 562 759 q 581 759 575 760 l 581 759 q 609 752 588 759 l 609 752 q 637 648 659 702 l 637 648 z"},"ý":{"ha":579,"x_min":26,"x_max":594,"o":"m 37 306 q 30 373 37 347 q 31 417 23 399 q 55 441 38 434 q 94 446 71 448 q 138 432 116 443 l 138 432 q 212 364 191 408 l 212 364 q 209 310 217 342 q 189 243 200 277 q 168 176 178 208 q 160 121 158 143 l 160 121 q 206 169 186 137 q 242 238 225 201 q 273 310 258 274 q 301 367 287 346 q 322 401 314 388 q 338 423 330 413 l 338 423 q 372 456 351 440 l 372 456 q 409 455 378 461 q 454 446 439 448 q 473 447 468 443 l 473 447 l 487 457 q 553 456 515 471 l 553 456 q 592 407 590 440 l 592 407 q 591 403 591 406 l 591 403 l 594 402 l 587 396 q 577 379 580 383 q 562 365 573 374 l 562 365 q 406 94 494 292 l 406 94 q 366 6 384 45 l 366 6 q 407 -38 393 -11 q 407 -97 421 -65 l 407 -97 q 314 -221 324 -163 l 314 -221 q 302 -272 309 -257 q 278 -301 294 -287 l 278 -301 q 151 -281 224 -341 l 151 -281 q 146 -151 99 -229 l 146 -151 q 169 -107 158 -130 l 169 -107 q 220 -6 185 -73 l 220 -6 q 62 -4 134 -56 l 62 -4 q 26 173 11 35 l 26 173 q 37 306 36 265 z m 424 723 l 427 723 q 514 693 486 719 l 514 693 q 510 635 546 665 l 510 635 q 498 611 507 624 l 498 611 q 394 527 436 549 l 394 527 q 304 511 337 498 l 304 511 q 291 570 270 524 l 291 570 l 297 577 q 346 678 300 615 l 346 678 q 365 699 357 693 l 365 699 q 424 723 392 715 l 424 723 z"},"þ":{"ha":421,"x_min":-120,"x_max":460,"o":"m 54 -164 l 54 -164 q 24 -206 39 -190 q -9 -234 9 -222 q -44 -250 -27 -246 l -44 -250 q -84 -225 -82 -261 l -84 -225 q -94 -214 -87 -216 q -110 -210 -102 -213 l -110 -210 q -120 -163 -128 -203 l -120 -163 q -88 -18 -106 -103 q -41 170 -70 67 l -41 170 q 87 575 8 384 l 87 575 q 174 741 137 695 l 174 741 q 204 762 192 764 l 204 762 q 244 761 228 756 q 272 772 259 766 q 297 781 284 778 q 330 773 310 784 l 330 773 q 312 657 358 757 l 312 657 q 284 594 301 632 l 284 594 q 201 385 237 482 l 201 385 l 210 391 q 350 430 276 435 l 350 430 q 411 413 384 427 q 450 369 437 398 q 460 295 462 340 q 442 201 457 249 q 402 106 427 152 q 345 26 376 60 l 345 26 q 210 -32 275 -51 l 210 -32 q 146 -6 182 -36 l 146 -6 q 130 5 137 1 l 130 5 l 130 -3 l 121 -11 q 54 -164 102 -86 z m 157 69 l 157 69 q 209 133 172 86 q 258 207 245 180 q 251 256 270 233 l 251 256 q 204 220 232 280 l 204 220 q 157 69 157 124 z m 67 -44 l 62 -48 l 53 -48 q 53 -71 48 -71 q 74 -41 57 -71 l 74 -41 l 66 -43 l 67 -44 z"},"ÿ":{"ha":579,"x_min":26,"x_max":594,"o":"m 37 306 q 30 373 37 347 q 31 417 23 399 q 55 441 38 434 q 94 446 71 448 q 138 432 116 443 l 138 432 q 212 364 191 408 l 212 364 q 209 310 217 342 q 189 243 200 277 q 168 176 178 208 q 160 121 158 143 l 160 121 q 206 169 186 137 q 242 238 225 201 q 273 310 258 274 q 301 367 287 346 q 322 401 314 388 q 338 423 330 413 l 338 423 q 372 456 351 440 l 372 456 q 409 455 378 461 q 454 446 439 448 q 473 447 468 443 l 473 447 l 487 457 q 553 456 515 471 l 553 456 q 592 407 590 440 l 592 407 q 591 403 591 406 l 591 403 l 594 402 l 587 396 q 577 379 580 383 q 562 365 573 374 l 562 365 q 406 94 494 292 l 406 94 q 366 6 384 45 l 366 6 q 407 -38 393 -11 q 407 -97 421 -65 l 407 -97 q 314 -221 324 -163 l 314 -221 q 302 -272 309 -257 q 278 -301 294 -287 l 278 -301 q 151 -281 224 -341 l 151 -281 q 146 -151 99 -229 l 146 -151 q 169 -107 158 -130 l 169 -107 q 220 -6 185 -73 l 220 -6 q 62 -4 134 -56 l 62 -4 q 26 173 11 35 l 26 173 q 37 306 36 265 z m 344 581 q 314 545 334 560 q 272 523 294 529 q 242 516 250 516 q 212 520 234 516 l 212 520 l 211 520 l 209 522 q 167 562 173 538 q 174 609 161 586 q 211 650 186 632 q 253 672 235 668 q 277 676 270 675 q 289 675 283 676 q 301 673 294 674 q 316 669 307 671 l 316 669 l 319 666 q 344 581 368 629 l 344 581 z m 567 600 q 537 558 557 576 q 496 532 516 539 q 469 524 475 524 q 435 529 463 524 l 435 529 l 434 529 q 431 531 433 529 l 431 531 q 389 579 395 550 q 396 634 383 607 q 433 683 408 661 q 475 708 457 704 q 499 712 492 711 q 511 711 505 712 l 511 711 q 539 704 518 711 l 539 704 q 567 600 589 654 l 567 600 z"}}}
